<svg id="Layer_1" data-name="Layer 1" xmlns="http://www.w3.org/2000/svg" viewBox="0 0 1080 1080"><defs><style>.cls-1{fill:#3a60aa;}.cls-2{fill:#19407d;}</style></defs><g id="_1429216180240" data-name=" 1429216180240"><path class="cls-1" d="M516,545.11c0,1.18,0,2.35,0,3.53s-.63,1.58-1.71,1.81c-6.49,1.41-8.18.07-8.18-6.4,0-58.75,0,24.81,0-33.94,0-4.95,0-4.94-5.1-4.94q-76.84,0-153.68,0a8.28,8.28,0,0,1-6.46-2.68c-14.2-14.35-28.58-28.53-42.72-43-3.42-3.49-6.1-5.32-11.57-3.35-9.21,3.29-19.45-1.83-24-10.59a21.37,21.37,0,0,1,31-27.36c8.18,5.77,11.65,16.36,7.71,25.24-1.3,2.91-.62,4.38,1.31,6.29q21.62,21.48,43.11,43.07a6.81,6.81,0,0,0,5.31,2.09q39.3-.06,78.6,0c.89,0,2.11.5,2.57-.51.57-1.23-.77-1.82-1.46-2.52-12.79-12.78-25.63-25.53-38.36-38.38-1.79-1.8-3.19-1.91-5.5-1a21.25,21.25,0,0,1-23.52-34.24,21.36,21.36,0,0,1,27-3.33,21.06,21.06,0,0,1,8,26.29c-.79,1.83-.94,3.08.63,4.65q23.75,23.59,47.36,47.31a5.19,5.19,0,0,0,4,1.73c6.93-.08,13.87-.16,20.8,0,2.9.07,3.59-1.08,3.56-3.73q-.13-16.38,0-32.78a6.65,6.65,0,0,0-2.28-5.2q-35.44-35.32-70.74-70.8a9,9,0,0,0-7.06-2.94c-21.62.08-43.24,0-64.86.14a10.15,10.15,0,0,1-8-3.37C309.6,364,297.3,351.9,285.17,339.63c-1.74-1.77-3.2-2.07-5.54-1.38a20.16,20.16,0,0,1-18.12-2.95,21.28,21.28,0,1,1,30.82-7.22c-1.17,2.15-1.1,3.39.65,5.1q16.78,16.6,33.39,33.37a9,9,0,0,0,7.09,3c21.5-.13,43,0,64.5-.14a10.6,10.6,0,0,1,8.31,3.4q37.75,38,75.73,75.76a8.67,8.67,0,0,1,2.84,6.78c-.14,12,0,24-.13,35.95,0,3,1,3.84,3.82,3.72a134,134,0,0,1,13.74,0c3,.17,3.81-1,3.79-3.85-.11-14.91-.09-29.84,0-44.75a6.72,6.72,0,0,0-2.26-5.24q-18.87-18.74-37.62-37.59-50.68-50.7-101.41-101.33a7.59,7.59,0,0,1-2.38-5.9c.08-13.16-.09-26.32.08-39.48.05-3.34-.64-5.15-4-6.6a20.82,20.82,0,0,1-11.84-23.87,21,21,0,0,1,20.93-16.52,21.28,21.28,0,0,1,20.61,16.52,20.86,20.86,0,0,1-12.17,24c-3,1.26-3.67,2.83-3.64,5.7.1,12.11,0,24.21,0,36.31a6,6,0,0,0,1.7,4.75q40.56,40.43,81,80.94c.71.69,1.35,2.09,2.44,1.66,1.32-.53.72-2.07.73-3.17.05-7.41-.05-14.81.08-22.21a8.18,8.18,0,0,0-2.7-6.5c-12.52-12.39-24.93-24.91-37.43-37.31a7,7,0,0,1-2.32-5.57c.11-5.3-.11-10.58.05-15.87.08-2.6-.78-3.91-3.25-5a21.06,21.06,0,0,1-12.49-24.81,21.28,21.28,0,0,1,41.52,1.12,20.93,20.93,0,0,1-12.47,23.56c-2.68,1.07-3.62,2.43-3.48,5.19.2,3.75.17,7.53,0,11.27a7.27,7.27,0,0,0,2.51,5.87c12.52,12.39,24.91,24.92,37.46,37.29a8.65,8.65,0,0,1,2.8,6.81c-.12,12.45,0,24.91-.11,37.36a8.15,8.15,0,0,0,2.74,6.45c14,13.9,27.88,27.92,41.94,41.77A9.11,9.11,0,0,1,516,442.2V545.11Z"/><path class="cls-1" d="M574,456.88c0-29.25,0,83.8,0,54.54,0-1.41.08-2.82.1-4.23s.77-2.09,2.22-2c1.06.05,2.12,0,3.18,0q76.66,0,153.33,0a8.3,8.3,0,0,0,6.42-2.75c15.29-15.44,30.73-30.74,46-46.2,1.78-1.8,3.09-1.58,5.19-.72a21.24,21.24,0,0,0,27.36-28.68A21.51,21.51,0,0,0,798,414.54a21.14,21.14,0,0,0-18.9,29.65c.9,2.06.62,3.31-1,4.89q-21.92,21.72-43.62,43.6A7.12,7.12,0,0,1,729,495c-26.21-.08-52.41-.05-78.61-.07-.89,0-2.15.54-2.62-.4-.63-1.23.83-1.75,1.5-2.42,12.67-12.74,25.39-25.43,38-38.19,1.86-1.88,3.43-2.45,6.11-1.36a20.9,20.9,0,0,0,24.43-6.32,21.3,21.3,0,1,0-37.88-14.69,18.67,18.67,0,0,0,1.74,9.62c1.07,2.22.58,3.56-1,5.18q-23.48,23.36-46.84,46.84a5.66,5.66,0,0,1-4.36,1.8c-6.93-.09-13.87-.14-20.8,0-2.48,0-3.28-.83-3.26-3.26.09-11.28.07-22.56,0-33.84a5.65,5.65,0,0,1,2-4.29q36.13-36.12,72.22-72.3c1.52-1.52,3.18-1.71,5.12-1.71,22.19,0,44.41,0,66.61.09a7.91,7.91,0,0,0,6.18-2.53c12.31-12.44,24.75-24.75,37-37.22,1.86-1.89,3.39-2.43,6.07-1.63,11.75,3.48,23.55-3.65,26.45-15.7,2.79-11.53-4.86-23.24-16.74-25.64-11.64-2.34-23,5.77-25,17.69a21.08,21.08,0,0,0,2.6,13.89c1,1.82.83,2.88-.56,4.26Q769.72,350.31,752.22,368c-1.54,1.56-3.31,1.49-5.19,1.49-22.09,0-44.17,0-66.27-.06a7.84,7.84,0,0,0-6.15,2.52q-37.8,38-75.78,75.73a11.21,11.21,0,0,0-3.67,8.92c.21,11.75,0,23.5.13,35.25,0,2.48-.75,3.25-3.2,3.18-5.06-.17-10.11-.15-15.16,0-2.37.07-3-.78-3-3q.11-22.92,0-45.83c0-2.26,1-3.69,2.48-5.16q35.16-35.09,70.27-70.25,33.75-33.76,67.57-67.48a10.46,10.46,0,0,0,3.42-8.27c-.2-12.82,0-25.63-.14-38.43,0-3.21.74-4.91,4-6.25,8.9-3.65,13.81-13.55,12.07-23.16a21.29,21.29,0,1,0-29,23.6c2.47,1,3.05,2.33,3,4.7q-.12,18.48,0,37a6.87,6.87,0,0,1-2.21,5.3q-40.17,40-80.32,80.13c-.76.75-1.36,2.38-2.68,1.8s-.66-2.13-.67-3.23c-.06-7.63,0-15.27-.06-22.9a6.45,6.45,0,0,1,2.09-5c12.66-12.56,25.21-25.22,37.9-37.77a7.3,7.3,0,0,0,2.45-5.86c-.12-5.39.07-10.8,0-16.22,0-2.32.75-3.48,3-4.39,9.34-3.77,14.23-12.4,13.08-22.57A21.07,21.07,0,0,0,663,243.68a21.46,21.46,0,0,0-23.84,13.79c-3.51,10.2.77,21.63,10.45,25.93,4.06,1.8,4.39,4.15,4.83,8,1,9-2.06,15.37-8.78,21.41-10.82,9.72-20.71,20.46-31.09,30.67a8.64,8.64,0,0,0-2.86,6.8c.1,12.92,0,25.84,0,38.76a6.11,6.11,0,0,1-2.12,4.6c-14.24,14.18-28.4,28.41-42.66,42.54a8.73,8.73,0,0,0-2.93,6.75c.07,81.76,0,21.25.1,103,0,1.48-1,3.79,1.15,4.3,2.56.61,5.44.87,8-.24,1.41-.63.75-2.57.75-3.92q.06-35.74,0-71.55V456.88Z"/><path class="cls-1" d="M545,409.51c0-45.47,0,51.36-.06,5.88a7.91,7.91,0,0,1,2.58-6.16c11.37-11.2,22.62-22.56,34-33.79a7.88,7.88,0,0,0,2.45-6.26c-.15-9.16-.07-18.32-.11-27.49a6.43,6.43,0,0,1,2.1-5c13-12.91,25.94-25.9,38.94-38.8a7.24,7.24,0,0,0,2.36-5.57c-.08-20.57,0-41.13-.13-61.69,0-3.56.66-5.49,4.31-7.12,10.74-4.78,14.88-17.91,9.6-28.71-5-10.12-18-14.37-28.42-9.26a21.24,21.24,0,0,0-9.76,28.22,20.46,20.46,0,0,0,11.65,10.68,3.27,3.27,0,0,1,2.52,3.6q0,30.5,0,61a5.32,5.32,0,0,1-1.72,4.05Q601,307.24,586.83,321.46c-.64.62-1.2,1.79-2.23,1.41s-.76-1.63-.76-2.52c0-17.26.11-34.54-.08-51.8,0-3.51,2.26-3.88,4.39-4.91a21.2,21.2,0,0,0-9.5-40.32,21.17,21.17,0,0,0-8,40.72c2.46,1,3.28,2.33,3.27,4.95q-.12,47.92,0,95.87a7.87,7.87,0,0,1-2.37,6.28c-7.81,7.64-15.47,15.44-23.25,23.1-.73.74-1.29,2.38-2.69,1.74-1.13-.5-.6-1.9-.6-2.9q0-103.81-.07-207.62c0-2.55.93-3.64,3.24-4.56,9.46-3.81,14.57-13.58,12.69-23.79a21.3,21.3,0,0,0-41.44-1.28,20.93,20.93,0,0,0,12.18,24.92c2.82,1.18,3.49,2.7,3.48,5.5Q535,289.54,535,392.83c0,1.07.64,2.64-.73,3.14-1.08.39-1.72-1-2.43-1.72-7.86-7.76-15.65-15.57-23.56-23.3a7.17,7.17,0,0,1-2.25-5.61q.09-47.93,0-95.87c0-2.78.62-4.33,3.49-5.5a21.1,21.1,0,0,0,12.36-24.26,21.42,21.42,0,0,0-22.2-16.35,20.85,20.85,0,0,0-19.59,18.37,20.63,20.63,0,0,0,12.79,22.36c2.54,1,3.31,2.34,3.3,4.93-.1,16.92-.06,33.84-.09,50.76,0,1.1.55,2.65-.83,3.1-1.07.37-1.75-1-2.46-1.71-9.23-9.21-18.42-18.47-27.68-27.65a6.73,6.73,0,0,1-2.21-5.24q.09-29.44,0-58.87c0-2.64.57-4.13,3.31-5.26a21,21,0,0,0,12.86-22.44c-1.16-9.23-8.27-16.33-18.11-18.09-8.78-1.57-17.79,3.15-22.14,11.62-5.46,10.61-.54,24.06,10.75,28.85,2.47,1,3.28,2.3,3.27,4.91-.1,21,0,42.06-.09,63.1a7.53,7.53,0,0,0,2.46,5.87c12.83,12.75,25.57,25.59,38.42,38.32a7.93,7.93,0,0,1,2.54,6.24c-.1,8.81.09,17.62-.1,26.43a8.89,8.89,0,0,0,3,7.09c11.19,11.05,22.25,22.24,33.47,33.27a7.92,7.92,0,0,1,2.49,6.22c-.06,13.74,0,27.49,0,41.24v87.16c0,1.3.05,2.59,0,3.88-.09,2,.8,2.7,2.74,2.68,8.5-.12,7.17.77,7.17-6.69q.06-67.15,0-134.29h0Z"/><path class="cls-1" d="M540,0C254.41,0,22.06,232.33,22.06,518c0,257.31,188.59,471.38,434.8,511.28l1.86.3c1.43.23,2.86.45,4.3.66l1.9.28c-.74-1.24-1.44-2.51-2.11-3.8l-1.84-.28-4.16-.67c-.61-.09-1.21-.19-1.81-.3C211.62,984.79,25.51,772.68,25.51,518,25.51,234.26,256.33,3.45,540,3.45S1054.48,234.26,1054.48,518c0,254.73-186.1,466.84-429.47,507.47-.6.11-1.21.21-1.81.3l-4.17.67-1.83.28c-.67,1.29-1.37,2.56-2.11,3.8l1.89-.28c1.44-.21,2.88-.43,4.31-.66l1.87-.3c246.2-39.9,434.77-254,434.77-511.28C1057.93,232.33,825.6,0,540,0Z"/><polygon class="cls-1" points="386.48 975.74 383.22 932.16 351.86 962.59 361.41 925.69 358.5 924.59 346.21 972.1 380.79 938.57 384.4 986.6 406.74 942.91 403.83 941.8 386.48 975.74"/><polygon class="cls-1" points="381.3 1001.95 377.23 947.94 338.33 985.63 355.58 918.93 366.47 923.08 359.75 949.02 386.78 922.79 389.57 960.37 401.78 936.48 412.66 940.63 381.3 1001.95"/><polygon class="cls-1" points="283.32 937.43 308.75 897.72 289.7 885.53 288.17 887.91 304.6 898.43 292.98 916.58 276.91 906.3 275.38 908.67 291.45 918.96 282.23 933.37 265.8 922.85 264.28 925.23 283.32 937.43"/><polygon class="cls-1" points="284.61 943.29 258.46 926.56 264.47 916.97 280.94 927.53 285.6 920.25 269.52 909.95 275.62 900.45 291.68 910.74 298.75 899.72 282.31 889.19 288.41 879.69 314.61 896.44 284.61 943.29"/><polygon class="cls-1" points="247.36 852.8 224.74 860.81 230.71 837.49 228.22 835.2 221.47 861.64 196.77 870.33 199.27 872.63 220.82 865.07 215.03 887.13 217.53 889.42 224.07 864.03 249.86 855.1 247.36 852.8"/><polygon class="cls-1" points="219.89 897.32 210.29 888.55 214.69 871.7 198.27 877.49 188.73 868.66 217.92 858.4 225.84 827.31 235.45 836.09 230.81 854.16 248.35 847.96 257.98 856.76 227.61 867.29 219.89 897.32"/><path class="cls-1" d="M172.16,768.51,145,813.3l50.78-13.21-2-2.72-16.16,4.25-12-16.07,8.63-14.32ZM151.41,808.6,164,788.15l10.68,14.26Z"/><path class="cls-1" d="M136,820l35.81-59.1,7.5,10-8.62,14.33,8.61,11.49,16.16-4.24L203,802.6Zm28.34-24.36-3.74,6.08,6.91-1.84Z"/><polygon class="cls-1" points="95.38 728.46 107.84 753.05 110.37 751.77 104.84 740.86 144.36 720.82 142.96 718.04 103.43 738.09 97.9 727.18 95.38 728.46"/><polygon class="cls-1" points="105.98 758.71 89.69 726.63 99.75 721.48 105.29 732.39 144.85 712.33 150.03 722.68 110.54 742.74 116.06 753.65 105.98 758.71"/><path class="cls-1" d="M88,648a11.59,11.59,0,0,0-9.82-.88c-3.71,1.15-6.24,3.26-7.57,6.41a15.24,15.24,0,0,0-.11,10.39l2.69,8.72,45-13.94-.91-3-21.41,6.62-1.79-5.81C92.9,652.58,90.83,649.74,88,648ZM73.3,663.38c-1-3.24-1-6.06.07-8.39a8.88,8.88,0,0,1,5.84-4.77,8.81,8.81,0,0,1,7.46.66,10.56,10.56,0,0,1,4.72,6.39l1.83,5.94L75,668.84l-1.69-5.46Z"/><path class="cls-1" d="M70.4,677.94l-3.93-12.75a19.42,19.42,0,0,1,.2-13.22c1.86-4.39,5.3-7.34,10.27-8.89,4.79-1.4,9.41-1,13.27,1.32a18.68,18.68,0,0,1,8,10.9l.54,1.76,21.4-6.61,3.43,11.08Zm6.95-15.79.44,1.4,10.13-3.16-.59-1.87c-.8-2.57-2-3.48-2.76-3.95a4.47,4.47,0,0,0-4.11-.29,4.62,4.62,0,0,0-3.23,2.46c-.6,1.34-.57,3.16.12,5.41Z"/><path class="cls-1" d="M76.94,590a23.15,23.15,0,0,0,16.36-8.8,24.94,24.94,0,0,0-3.59-34.59,23.09,23.09,0,0,0-17.81-5.26,24.12,24.12,0,0,0-21.66,26.83A24.11,24.11,0,0,0,76.94,590Zm-.33-3.23a21.23,21.23,0,0,1-15.89-4.47,21.69,21.69,0,0,1-3.12-30.09,21.24,21.24,0,0,1,14.64-7.63A20.89,20.89,0,0,1,88,549a21.51,21.51,0,0,1,3.13,30.09A20.9,20.9,0,0,1,76.61,586.74Z"/><path class="cls-1" d="M74.1,594.36a28.71,28.71,0,0,1-2.64-57.26,27.24,27.24,0,0,1,21,6.2,29.19,29.19,0,0,1,4.17,40.54,27.36,27.36,0,0,1-19.21,10.35h0C76.27,594.3,75.18,594.36,74.1,594.36Zm.78-45.7a20.64,20.64,0,0,0-2.2.11,17,17,0,0,0-11.83,6.14A17.46,17.46,0,0,0,63.37,579a17,17,0,0,0,12.78,3.54h0a16.65,16.65,0,0,0,11.67-6.08,17,17,0,0,0-13-27.78Z"/><polygon class="cls-1" points="49.46 479.15 96.3 484.52 96.66 481.43 72.5 478.67 75.76 450.29 99.92 453.06 100.27 449.98 53.43 444.59 53.08 447.68 72.95 449.97 69.69 478.34 49.82 476.06 49.46 479.15"/><polygon class="cls-1" points="100.01 489.23 44.77 482.89 46.09 471.34 65.96 473.65 68.25 453.7 48.38 451.42 49.7 439.87 104.92 446.22 103.68 457.77 79.48 454.99 77.19 474.93 101.37 477.68 100.01 489.23"/><polygon class="cls-1" points="124.28 359.44 79.11 344.28 106.8 389.06 68.88 376.33 67.88 379.28 113.72 394.67 86.03 349.88 123.29 362.38 124.28 359.44"/><polygon class="cls-1" points="123.51 402.41 62.52 381.94 66.22 370.95 97.01 381.33 69.35 336.53 129.65 356.76 125.95 367.73 95.81 357.64 123.51 402.41"/><polygon class="cls-1" points="107.34 284.11 148.22 307.59 149.77 304.89 131.32 294.3 130.91 292.59 161.46 284.55 163.57 280.87 130.19 289.58 122.02 258.55 119.97 262.1 128.13 292.47 108.89 281.41 107.34 284.11"/><polygon class="cls-1" points="149.8 313.4 101.55 285.64 107.32 275.62 121.39 283.69 115.42 261.52 123.48 247.45 133.22 284.42 172.34 274.21 164.23 288.19 140.23 294.54 155.54 303.31 149.8 313.4"/><path class="cls-1" d="M215.51,213.43,165.9,196.71l23.95,46.68,2.21-2.58L184.39,226l13.07-15.24L213.3,216Zm-43.65-11.52,22.72,7.83L183,223.26l-11.12-21.35Z"/><path class="cls-1" d="M189,250.93l-31.59-61.55,65.46,22.05-8.16,9.5-15.84-5.29-9.36,10.91,7.67,14.85Zm-8.42-41.55,3.32,6.37,3.45-4Z"/><polygon class="cls-1" points="334.61 123.17 310.91 81.84 301.87 133.71 281.96 99.01 279.27 100.56 303.32 142.5 312.36 90.62 331.91 124.71 334.61 123.17"/><polygon class="cls-1" points="305.49 154.78 273.48 99.02 283.52 93.23 299.71 121.42 308.75 69.57 340.4 124.75 330.34 130.51 314.52 102.91 305.49 154.78"/><polygon class="cls-1" points="445.94 83.13 449.01 82.58 441.29 38.94 469.41 33.97 477.13 77.61 480.19 77.07 471.98 30.65 437.73 36.7 445.94 83.13"/><polygon class="cls-1" points="442.5 88.08 432.82 33.25 475.42 25.73 485.11 80.48 473.69 82.55 465.97 38.86 446.2 42.37 453.92 86 442.5 88.08"/><path class="cls-1" d="M556.78,47.75a11.59,11.59,0,0,0,3.88-9.07c.05-3.88-1.18-6.94-3.76-9.16a15.07,15.07,0,0,0-9.85-3.32l-9.12-.14-.66,47.15,3.1,0,.32-22.4,6.08.08C550.94,51,554.28,49.91,556.78,47.75ZM546.72,29c3.4.05,6.07.93,8,2.65a8.9,8.9,0,0,1,2.72,7,8.75,8.75,0,0,1-2.92,6.89A10.55,10.55,0,0,1,547,48.11L540.73,48,541,28.94Z"/><path class="cls-1" d="M544.56,77.58,533,77.35l.77-55.59,13.38.2a19.59,19.59,0,0,1,12.49,4.27,15.64,15.64,0,0,1,5.29,12.52A15.71,15.71,0,0,1,559.56,51c-3.32,2.9-7.67,4-12.85,4.21l-1.84,0ZM545,43.84l2,0h.12c2.63,0,3.81-.79,4.48-1.4a4.46,4.46,0,0,0,1.54-3.77c0-2.34-.7-3.31-1.35-3.89q-1.62-1.5-5.16-1.55l-1.46,0Z"/><path class="cls-1" d="M615.44,55.27a23.12,23.12,0,0,0,3.26,18.28,24.92,24.92,0,0,0,34,7.41,23.13,23.13,0,0,0,10.56-15.28A23.39,23.39,0,0,0,660,47.32a24.46,24.46,0,0,0-44.56,8Zm3.18.7a21.23,21.23,0,0,1,9.2-13.7,21.69,21.69,0,0,1,29.57,6.44A21.23,21.23,0,0,1,660.06,65a20.83,20.83,0,0,1-9.18,13.55,21.49,21.49,0,0,1-29.55-6.44A20.89,20.89,0,0,1,618.62,56Z"/><path class="cls-1" d="M639.88,89a32.39,32.39,0,0,1-6.61-.73,27.75,27.75,0,0,1-18.14-12.48,27.26,27.26,0,0,1-3.82-21.47,27.69,27.69,0,0,1,12.41-18,28.22,28.22,0,0,1,21.69-3.8A27.91,27.91,0,0,1,663.57,45a27.59,27.59,0,0,1,3.8,21.56A28.41,28.41,0,0,1,639.88,89ZM622.76,56.88a16.7,16.7,0,0,0,2.16,13,15.84,15.84,0,0,0,10.75,7.37A15.63,15.63,0,0,0,648.54,75a16.64,16.64,0,0,0,7.38-10.94A16.88,16.88,0,0,0,653.78,51,16,16,0,0,0,643,43.63a16.28,16.28,0,0,0-12.88,2.19,17,17,0,0,0-7.37,11.06Z"/><polygon class="cls-1" points="712.58 108.18 730.24 67.53 746.57 74.62 747.7 72.03 728.51 63.7 709.73 106.94 712.58 108.18"/><polygon class="cls-1" points="714.78 113.73 704.14 109.16 726.32 58.11 753.27 69.83 748.78 80.21 732.43 73.11 714.78 113.73"/><path class="cls-1" d="M804.73,129.09a11.55,11.55,0,0,0,8.11-5.6c2.12-3.26,2.72-6.5,1.71-9.76a15.08,15.08,0,0,0-6.56-8.07l-7.64-5-25.71,39.52,2.61,1.7,12.22-18.79,5.09,3.32C798.06,128.72,801.46,129.58,804.73,129.09Zm1.49-21.21c2.84,1.85,4.62,4,5.3,6.48a10,10,0,0,1-7.59,11.69,10.57,10.57,0,0,1-7.71-1.9L791,120.76l10.4-16Z"/><path class="cls-1" d="M778.49,147.79l-9.71-6.34,30.33-46.64,11.2,7.28a19.19,19.19,0,0,1,8.27,10.35c1.39,4.5.65,9-2.19,13.36a15.72,15.72,0,0,1-11,7.46c-4.34.79-8.77-.44-13.12-3.28l-1.52-1Zm18.38-28.27,1.68,1.11c2.27,1.43,3.74,1.46,4.67,1.23s2.07-.5,3.33-2.43a4.59,4.59,0,0,0,.88-4,7.63,7.63,0,0,0-3.51-4l0,0-1.24-.79Z"/><path class="cls-1" d="M858.51,207.05l18.88-48.84L829.71,180.1l2.47,2.32,15.18-7L862,189.13l-6,15.6,2.47,2.32Zm13.42-43.11-8.81,22.35-13-12.17Z"/><path class="cls-1" d="M860.21,214.44l-9.15-8.57,6-15.59-10.5-9.82-15.16,7-9.19-8.6L885.11,150Zm-2.62-39.13,3.88,3.63,2.61-6.67Z"/><polygon class="cls-1" points="927.67 229.93 905.49 267.58 948.61 260.47 919.72 285.34 921.47 287.9 958.67 255.9 911.14 263.71 935.57 222.2 892.31 245.34 894.06 247.9 927.67 229.93"/><polygon class="cls-1" points="920.64 294.21 914.08 284.59 934.38 267.11 897.23 273.22 916.36 240.79 892.71 253.42 886.12 243.86 946.89 211.31 919.38 258.07 972.88 249.27 920.64 294.21"/><polygon class="cls-1" points="985.21 330.89 954.64 362.11 998.21 365.58 964.18 382.76 965.27 385.68 1009.06 363.55 961.06 359.71 994.74 325.28 947.18 337.36 948.27 340.27 985.21 330.89"/><polygon class="cls-1" points="962.94 391.62 958.89 380.69 982.81 368.61 945.26 365.62 971.61 338.72 945.64 345.33 941.55 334.39 1008.3 317.46 970.43 356.21 1024.44 360.54 962.94 391.62"/><polygon class="cls-1" points="983.16 477 1030.37 470.6 985.72 442.7 1025.36 437.33 1024.94 434.25 977.04 440.74 1021.68 468.64 982.74 473.91 983.16 477"/><polygon class="cls-1" points="979.54 481.78 977.96 470.29 1009.48 466.01 964.83 438.12 1028.59 429.49 1030.13 440.95 997.91 445.34 1042.57 473.24 979.54 481.78"/><path class="cls-1" d="M1009.12,554.75A11.59,11.59,0,0,0,1018,559c3.89.22,7-.88,9.33-3.37a15.11,15.11,0,0,0,3.74-9.69l.52-9.11-47.07-2.69-.18,3.11,22.38,1.28-.35,6.07C1006.14,548.77,1007.08,552.16,1009.12,554.75Zm19.15-9.24c-.19,3.39-1.19,6-3,7.83a10,10,0,0,1-13.91-.8,10.55,10.55,0,0,1-2.18-7.63l.36-6.21,19,1.09Z"/><path class="cls-1" d="M1018.93,563.28l-1.14,0c-5.08-.32-9.22-2.34-12-5.88h0c-2.7-3.42-3.93-7.81-3.64-13l.12-1.88-22.4-1.28.7-11.55,55.52,3.18-.78,13.34a19.19,19.19,0,0,1-4.84,12.31A15.17,15.17,0,0,1,1018.93,563.28Zm-5.4-20.09-.12,2a6.26,6.26,0,0,0,1.23,4.67,4.6,4.6,0,0,0,3.75,1.67,4,4,0,0,0,3.87-1.17c1-1.05,1.65-2.75,1.77-5.09v0l.08-1.43Z"/><path class="cls-1" d="M999.09,613a23.14,23.14,0,0,0-18.41,2.47,24.9,24.9,0,0,0-8.85,33.63,24.49,24.49,0,0,0,33.29,8.76,24.46,24.46,0,0,0-6-44.86Zm-.83,3.15a21.2,21.2,0,0,1,13.29,9.78,21.68,21.68,0,0,1-7.7,29.26,21.23,21.23,0,0,1-16.38,2,20.86,20.86,0,0,1-13.15-9.74,21.52,21.52,0,0,1,7.7-29.26,20.89,20.89,0,0,1,16.24-2Z"/><path class="cls-1" d="M993.21,665.45a29.31,29.31,0,0,1-7.66-1.05,27.25,27.25,0,0,1-17.4-13.19,29.17,29.17,0,0,1,10.38-39.39,27.23,27.23,0,0,1,21.64-2.89,28.38,28.38,0,0,1,20.31,35,28.51,28.51,0,0,1-27.27,21.52Zm-.84-45.85a16.59,16.59,0,0,0-8.26,2.25,17.29,17.29,0,0,0-6.17,23.4,16.7,16.7,0,0,0,10.6,7.83,17.19,17.19,0,0,0,13.24-1.58,17.43,17.43,0,0,0,6.12-23.39,17,17,0,0,0-10.73-7.87h0A18.55,18.55,0,0,0,992.37,619.6Z"/><path class="cls-1" d="M937.81,716.52a15.58,15.58,0,0,0-1.5,11.1,13.31,13.31,0,0,0,15,9,11,11,0,0,0,6.72-4.62c.38,4.29,2.67,7.49,6.78,9.54a11.21,11.21,0,0,0,9.26.75q4.41-1.71,7.11-7.12l4.6-9.24-42.2-21Zm41.37,16.36c-1.57,3.16-3.31,5.22-5.27,6.14a9,9,0,0,1-8-.43,8.87,8.87,0,0,1-5.06-6,9.71,9.71,0,0,1,1.09-6.63l3.35-6.71,16.58,8.26Zm-19.7-8.33c-1.74,3.48-3.41,5.89-5.15,7.31-2.87,2.29-6.22,2.51-10.08.58a9.24,9.24,0,0,1-5.32-9.92,16.2,16.2,0,0,1,.85-3.29c.32-.79.76-1.83,1.42-3.16l3.53-7.08,18,9Z"/><path class="cls-1" d="M970.35,747.24a17.75,17.75,0,0,1-14.27-7.86,14.59,14.59,0,0,1-3.86,1.46,16.81,16.81,0,0,1-11-1.52,16.54,16.54,0,0,1-9-10.62A19.79,19.79,0,0,1,934,714.64l7.68-15.35,49.79,24.79-6.49,13c-2.29,4.53-5.44,7.63-9.38,9.15A15,15,0,0,1,970.35,747.24Zm-3.15-22.31-1.45,2.93a5.44,5.44,0,0,0-.78,3.77,4.75,4.75,0,0,0,2.85,3.19,5,5,0,0,0,4.38.32c.48-.24,1.69-1.14,3.18-4.15l.79-1.58Zm-20.56-10.26L945,718c-.59,1.2-1,2.14-1.28,2.87a10.62,10.62,0,0,0-.58,2.34,4.71,4.71,0,0,0,.1,2.16,4.76,4.76,0,0,0,2.9,3.31c2.88,1.4,4.4.81,5.55-.09a19.1,19.1,0,0,0,4-5.91l1.39-2.78Z"/><path class="cls-1" d="M881.7,803.14,932.19,817l-26.61-45.21-2.05,2.7,8.5,14.38-12.15,16-16.13-4.37Zm44.24,9-23.12-6.5,10.78-14.17,12.34,20.67Z"/><path class="cls-1" d="M941.14,823.8l-66.62-18.24,7.59-10L898.23,800l8.7-11.43-8.48-14.36L906,764.12ZM910,803.22l6.87,1.93L913.18,799Z"/><polygon class="cls-1" points="877.35 876.27 846.24 840.84 843.91 842.9 859.95 861.17 838.49 880.02 822.45 861.74 820.11 863.79 851.22 899.22 853.56 897.17 840.36 882.14 861.82 863.29 875.02 878.33 877.35 876.27"/><polygon class="cls-1" points="850.82 905.19 814.14 863.43 822.82 855.74 838.89 874.01 853.97 860.79 837.91 842.52 846.64 834.89 883.31 876.62 874.66 884.37 861.42 869.27 846.33 882.52 859.55 897.55 850.82 905.19"/><polygon class="cls-1" points="741.59 914.75 764.87 956.32 774.43 904.53 793.99 939.43 796.7 937.91 773.06 895.74 763.51 947.52 744.3 913.23 741.59 914.75"/><polygon class="cls-1" points="766.92 968.64 735.83 913.14 745.91 907.44 761.47 935.22 771.02 883.43 802.47 939.52 792.37 945.22 776.47 916.85 766.92 968.64"/><polygon class="cls-1" points="703.61 981.82 688.88 937.02 667.4 944.09 668.28 946.78 686.81 940.68 693.54 961.16 675.41 967.12 676.3 969.81 694.43 963.85 699.77 980.1 681.24 986.2 682.12 988.88 703.61 981.82"/><polygon class="cls-1" points="679.4 994.23 675.91 983.47 694.42 977.39 691.73 969.2 673.61 975.16 670.04 964.43 688.19 958.47 684.11 946.04 665.6 952.12 662.03 941.39 691.6 931.68 708.97 984.49 679.4 994.23"/><path class="cls-1" d="M540,862.52c-165.43,0-301.48-134.56-303.28-300,0-1,0-1.92,0-2.88a7.12,7.12,0,0,1,7.16-7.16H836.17a7.16,7.16,0,0,1,7.15,7.16c0,.87,0,1.74,0,2.61v.27c-1.8,165.4-137.85,300-303.27,300ZM836.17,543.29H243.89a16.35,16.35,0,0,0-16.39,16.39c0,1,0,2,0,3,.89,82.63,33.84,160.26,92.75,218.59a312.06,312.06,0,0,0,439.51,0c58.91-58.33,91.85-136,92.75-218.59v-.28c0-.9,0-1.81,0-2.7a16.4,16.4,0,0,0-16.38-16.39Z"/><path class="cls-1" d="M540,875c-83.61,0-162.46-32.49-222-91.45s-92.8-137.38-93.7-220.87l0-3A19.65,19.65,0,0,1,243.89,540H836.17a19.66,19.66,0,0,1,19.61,19.65v2.69A316.11,316.11,0,0,1,540,875ZM243.89,546.52a13.13,13.13,0,0,0-13.16,13.16l0,2.92a309.29,309.29,0,0,0,618.54,0l0-3a13.17,13.17,0,0,0-13.15-13.16ZM540,865.77c-167.2,0-304.7-136-306.51-303.17l0-2.92a10.36,10.36,0,0,1,10.39-10.41H836.17a10.41,10.41,0,0,1,10.38,10.41l0,2.57C844.71,729.76,707.21,865.77,540,865.77Zm-296.14-310a3.88,3.88,0,0,0-2.78,1.11,4,4,0,0,0-1.14,2.81v2.84c1.79,163.64,136.38,296.75,300,296.75s298.25-133.11,300-296.72l0-2.87a3.92,3.92,0,0,0-3.92-3.92Z"/><path class="cls-1" d="M516.81,689.25a7.86,7.86,0,0,0,0-.85C516.83,677.5,516.81,681.84,516.81,689.25Z"/><path class="cls-1" d="M519.49,689.52l-5.37-.26c0-2,0-3.69,0-5,0-1.49,0-2.22,0-2.36h.11c.22-2.78.83-2.78,2.58-2.78h0c1.76,0,2.36.09,2.56,2.75l.09,0V684c0,1.14,0,2.6,0,4.39C519.53,688.79,519.52,689.14,519.49,689.52Z"/><path class="cls-1" d="M540,893a93.5,93.5,0,0,0-85,132.43q.88,1.92,1.86,3.81a93.48,93.48,0,0,0,166.3,0c.65-1.26,1.27-2.53,1.85-3.81A93.5,93.5,0,0,0,540,893Zm0,180.52a87.07,87.07,0,0,1-75.09-43c-.74-1.24-1.44-2.51-2.11-3.8a87,87,0,1,1,154.39,0c-.67,1.29-1.37,2.56-2.11,3.8A87.06,87.06,0,0,1,540,1073.51Z"/><path class="cls-1" d="M540,894.51a92.1,92.1,0,0,0-92,92,91.16,91.16,0,0,0,8.8,39.21c.6,1.29,1.24,2.56,1.91,3.81a92,92,0,0,0,162.57,0c.67-1.25,1.31-2.52,1.91-3.81a91.16,91.16,0,0,0,8.8-39.21A92.09,92.09,0,0,0,540,894.51Zm79,131.88c-.65,1.29-1.33,2.56-2,3.8a88.5,88.5,0,0,1-154,0c-.72-1.24-1.4-2.51-2-3.8a88.54,88.54,0,1,1,158.06,0Z"/><path class="cls-1" d="M579.53,820.86c1.1,0,2.22,0,3.32,0,1.36,0,1.77-.42,1.48-1.88-1-5-2.07-5.87-7.38-5.91-2,0-2.63.63-2.59,2.59C574.52,821.77,573.72,820.75,579.53,820.86Zm-109.4,0h3.56c.67,0,1.41-.14,1.45-.91.1-2.13.9-4.65-.34-6.25-1.11-1.43-3.59-.65-5.42-.43-2.38.3-4.7,3.65-4.15,6.41.47,2.39,2.79.69,4.18,1.18a2.17,2.17,0,0,0,.72,0ZM643.78,638.24c6,0,6,0,6-6,0-.32,0-.64,0-1,.09-1.32-.47-1.67-1.72-1.31a13.39,13.39,0,0,1-7.28.28c-2.6-.75-2.68.32-2.65,2.31,0,5.66,0,5.66,5.65,5.66ZM509.15,748.33c-3.26,0-5.79,0-8.33,0-5.5,0-4.7-.67-4.87,5-.05,1.9.68,2.41,2.5,2.43,5.07,0,10.14-.36,15.19.23a3,3,0,0,0,1.57-.42,18.54,18.54,0,0,0,6.6-6c.25-.38.7-.77.47-1.27s-.83-.36-1.28-.3C516.83,748.65,512.62,748.16,509.15,748.33ZM532.6,611.79c0,2.6,0,5.21,0,7.81,0,1.49.47,2.22,2,2.19q3.79-.09,7.58,0c1.57,0,2-.73,2-2.19q-.07-7.58,0-15.17c0-1.46-.49-2.21-2-2.18q-3.8.07-7.59,0c-1.56,0-2.06.73-2,2.2.06,2.44,0,4.89,0,7.34Zm96.82,75.79c0-2-.1-4,0-6a7.31,7.31,0,0,0-2.16-6.19,6.24,6.24,0,0,1-.11-8.28c2.19-2.75,2.19-2.75-.32-5.26-.45-.45-.93-.87-1.34-1.35-.87-1-1.61-1-2.54,0-2.48,2.56-5.07,5-7.52,7.59-2.2,2.33-2.17,4.14.06,6.42,4.11,4.17,8.27,8.31,12.42,12.44A1.39,1.39,0,0,0,629.42,687.58Zm28.77.42c5-4.85,10-9.54,14.82-14.4,1.6-1.61,1.4-3.63-.2-5.32s-3.52-3.64-5.35-5.38c-4.42-4.28-3-4.44-7.61,0-1.17,1.1-1.23,1.87-.05,3.09,3.4,3.55,3.28,6.66-.19,10.3-.59.62-1.39,1.15-1.4,2.12C658.18,681.64,658.19,684.84,658.19,688Zm-88.87-81.79c-4,0-7.92,0-11.88,0-4.86,0-4.32-.58-4.5,4.46-.1,2.49.85,3.08,3.16,3,7.84-.12,15.67-.05,23.52-.05,4.85,0,4.85,0,5.54-4.67a1.71,1.71,0,0,1,.09-.46c.72-1.9-.17-2.36-1.92-2.35-4.67.06-9.34,0-14,0ZM496,772.06c0,2,0,4,0,5.94,0,1.35.37,2.09,1.87,2.08,4,0,8.08,0,12.12,0,1.28,0,1.89-.5,1.88-1.82q-.06-6,0-11.89c0-1.34-.59-1.84-1.86-1.84-4,0-8.09.05-12.13,0-1.5,0-1.92.72-1.88,2.07C496,768.41,496,770.25,496,772.06ZM643.8,658.34a31.54,31.54,0,0,1,5,0c3.68.6,5.46-2,7.4-4.19,1.55-1.74-.35-3.36-.59-5.06-.29-2.07-1.57-2.55-3.53-2.49-4.66.12-9.32,0-14,0-5.71,0-5.7,0-7,5.57a2.17,2.17,0,0,0,.49,2.16c2.23,2.6,4.62,4.7,8.46,4a20.83,20.83,0,0,1,3.79,0Zm-160.06-.09a11.74,11.74,0,1,0-11.67-11.46A11.27,11.27,0,0,0,483.74,658.25Zm40.62,130.58c-9.9,0-19.79,0-29.69,0-2,0-2.8.64-2.57,2.6a9.59,9.59,0,0,1,0,1.2c0,3.71,0,3.71,3.82,3.71H552c5.18,0,4.38.38,4.59-4.62.1-2.39-.8-2.91-3-2.89-9.73.1-19.48,0-29.21,0Zm40.89-65.27a15.77,15.77,0,0,0,15.94,16,15.95,15.95,0,0,0-.14-31.89,15.83,15.83,0,0,0-15.8,15.89ZM623.8,617.85c6.05-.13,11.7,1.64,17.36,3.5a9.62,9.62,0,0,0,10.91-3.75,10.47,10.47,0,0,0-.14-11.42c-2.28-3.26-7.64-4.83-11-3.51a47.68,47.68,0,0,1-17.35,3.56c-6.12,0-11.84-1.73-17.58-3.62a8.83,8.83,0,0,0-9.22,2.21,9.18,9.18,0,0,0-3,9c1.35,6.09,6.93,9.34,12.85,7.36C612.25,619.37,617.84,617.69,623.8,617.85ZM550,729.57c-.72,7.66,8.42,19.17,18.36,23.54a32.12,32.12,0,0,0,41-44.87c-6.27-11.3-18.67-17.66-29.59-16.56.27.94,1.17,1.23,1.83,1.73,4.52,3.35,9.11,6.6,13.56,10,6.61,5.07,10.21,11.65,10.3,20.14a24.48,24.48,0,0,1-28.26,24.18c-5.87-1-10.57-4-14.92-7.84-4-3.48-8-6.82-12.23-10.36Zm27.9,34.73c-.29-.06-.59-.13-.87-.16a39.14,39.14,0,0,1-20.89-8.31,38.48,38.48,0,0,1-11.71-14.44c-.86-1.86-1.55-1.95-3-.57a21.92,21.92,0,0,1-7.25,4.48,3.16,3.16,0,0,0-2.12,2.32,24.46,24.46,0,0,1-10.37,14.28c-.64.43-1.42.77-1.33,1.78.42,4.82.09,9.65.19,14.49,0,1.46.75,1.91,2.1,1.91q13.77,0,27.57,0c1.32,0,2-.35,2.14-1.84.26-3.86,2.52-6,6.2-6.77,1.32-.29,2.62-.63,3.91-1,5.28-1.61,10.55-3.28,15.44-6.14Zm-53.8,56.56c12.59,0,25.18-.05,37.77,0,2.24,0,2.93-.7,2.78-2.85s0-4.59,0-6.89c0-4.95-1.21-6.12-6.19-6.12q-32.07,0-64.14,0c-1.82,0-3.64,0-5.46,0-3.44.05-4.78,1.36-4.82,4.72,0,2.76.1,5.55,0,8.31-.13,2.19.64,2.86,2.83,2.83,12.44-.09,24.88,0,37.31,0ZM459.06,625.71c0-1.59-.05-3.19,0-4.77s-.63-1.78-1.86-1.09c-3.17,1.76-5.3,4.33-5.55,8-.92,14,2.08,26.85,10.26,38.43,8.94,12.66,20.39,22.69,32.67,31.88,7.79,5.85,16,11.11,23.09,17.88,5.57,5.35,10.7,11.08,13.36,18.51.74,2.11,1.54,2.2,3.15,1,4-2.92,5.83-6.87,6.07-11.79a4.16,4.16,0,0,0-1.54-3.88q-33.76-28.5-67.47-57.1c-7.3-6.17-9.71-13.77-6.95-22.94a1.77,1.77,0,0,0-.92-2.47,8.48,8.48,0,0,1-4.32-7.94C459.07,628.24,459.07,627,459.06,625.71Zm34.31-31.81c-5.46,0-10.94,0-16.39,0-6.26.08-9.16,3-9.17,9.23q0,11.9,0,23.77c0,2.8.92,3.53,3.65,2.8a8,8,0,0,0,1.92-.9c6.87-3.82,13.73-3.85,20.57,0a5.35,5.35,0,0,0,2.63,1c8.47.11,16.94.5,25.15-2.36,1.57-.55,2.14-1.26,2.14-2.85q-.06-12.6,0-25.19c0-1.71-.6-2.48-2.3-3-6.35-1.8-12.73-3.11-19.41-2.64C499.24,594.08,496.3,593.9,493.37,593.9Zm62.92,129.63c1.2-11.8,6.75-19.64,17.59-23.37,1.37-.48.88-1,.12-1.58-2.16-1.62-4.34-3.2-6.51-4.81q-30.6-22.57-61.19-45.17c-1.55-1.14-2.07-1.49-2.4,1a19.64,19.64,0,0,1-7.72,13.18c-2.09,1.62-4.51,2.54-7.29,3.75C511.4,685.53,533.67,704.38,556.29,723.53Zm-41.92-137.9c3.37.9,6.72,1.86,10.09,2.68,2.78.68,5.3,1.69,6.87,4.27.58,1,1.52,1,2.5,1,3.4,0,6.82,0,10.22,0a8.12,8.12,0,0,1,6.41,2.59,4,4,0,0,0,3.37,1.32q18.06,0,36.14,0a7,7,0,0,0,3.8-1.09c4.94-3,10.2-3.85,15.68-1.72a37.7,37.7,0,0,0,28.28,0c7.53-3,16.3.14,20.89,6.12a18.4,18.4,0,0,1,.84,21.16,4.17,4.17,0,0,0-.84,1.91c-.08,4.36-.06,8.73-.06,13.08a1.4,1.4,0,0,0,.73,1.4c2.27,1.06,3,3.15,3.59,5.33a12.54,12.54,0,0,0,3.77,6.14c3.86,3.64,7.55,7.45,11.29,11.23,6.45,6.54,6.46,13.54,0,20q-6.62,6.66-13.28,13.28c-2.36,2.34-5.07,3.83-8.55,3a7.9,7.9,0,0,1-6.4-7.07c-.63-4.58-.29-9.17-.22-13.76a5.35,5.35,0,0,1,1.83-4c1.07-.93,1-1.61.07-2.72-1.7-1.91-3.56-3-6.2-2.63a17.24,17.24,0,0,1-3.8,0c-2.92-.29-4,2.12-5.66,3.73-.62.61.09,1.18.53,1.59a6.35,6.35,0,0,1,1.89,5.17c-.06,3.64,0,7.28,0,10.93,0,3.86-1.62,6.8-5.2,8.34s-6.84.44-9.55-2.23c-4.83-4.8-9.7-9.59-14.44-14.48-5.07-5.21-5.09-12.4,0-17.68,3.54-3.73,7.15-7.42,10.93-10.92a16.21,16.21,0,0,0,5.21-8.53c.45-2,1.24-3.79,3.35-4.6,1-.37,1-1.17,1-2,0-2.29-.1-4.6,0-6.9.12-2.12-.93-2.72-2.82-2.84a41.38,41.38,0,0,0-17.23,2.76c-6.63,2.38-12.61.87-18-3.37a1.6,1.6,0,0,1-.37-.31c-2.06-3.46-5.34-3.46-8.85-3.39-8.88.15-17.76.08-26.63,0-1.68,0-2.53.43-3,2.17a8,8,0,0,1-8,5.93c-3.56.07-7.13.06-10.7,0a2.78,2.78,0,0,0-2.77,1.39,7,7,0,0,1-4.52,3.24c-6.08,1.35-11.94,3.86-18.37,3.48-.16.95.64,1.09,1.06,1.4q29.35,21.71,58.7,43.39c1.42,1.06,2.72.87,4.22.55,13.65-2.94,25.72.28,36.25,9.4,12.17,10.55,16.78,29,11.22,44.08-4.2,11.45-12.08,19.76-21.92,26.45S577.2,774.93,566,778.39c-1.14.35-2.3.64-3.43,1-1.55.47-2.08,1.49-.8,2.57,2.86,2.43,3.41,5.57,3.18,9,0,.64.06,1.27,0,1.91-.34,2.72.09,4.89,3,6.1a6.39,6.39,0,0,1,3.2,3.42c.79,1.78,2.07,2.13,3.81,2.06a37.17,37.17,0,0,1,6.41.25,11.53,11.53,0,0,1,8.23,4.69,20.56,20.56,0,0,1,3.7,12.07c.07,4.47-3.59,7.78-8.19,7.83-6.42.06-12.84,0-19.26,0-33.21,0-66.42-.14-99.63.1-7,.06-11.8-4.87-9.49-12.27.17-.53.28-1.07.42-1.62,1.86-7.35,5.85-10.65,13.43-11.08a21,21,0,0,1,2.86,0,3.37,3.37,0,0,0,3.81-2.07,8.8,8.8,0,0,1,4.18-4.1,3.14,3.14,0,0,0,1.89-3.43c-.1-1.73,0-3.48,0-5.22a8.9,8.9,0,0,1,3.13-7.4c1.13-.89,1.07-2,1.07-3.2q0-14.85,0-29.72c0-6.59,3.15-9.69,9.8-9.69,7.3,0,14.58,0,21.87-.05,4.4,0,4.7-.57,2.72-4.43-3.49-6.77-8.89-11.9-14.66-16.67-8.86-7.32-18.67-13.39-27.47-20.8-11.21-9.45-21.57-19.63-28.89-32.53a59.06,59.06,0,0,1-8-29.71c0-4.72-.53-9.5,1.59-14a18.52,18.52,0,0,1,12.15-10.55c1.92-.54,2.51-1.39,2.45-3.29a37.52,37.52,0,0,1,.23-8.54c1.42-7.08,6-11.28,12.71-13.37h42.33Z"/><path class="cls-1" d="M487.66,994.35h0c0-3.23,0-6.46,0-9.7,0-1-.18-1.36-1.26-.94-3.87,1.48-6.74,5.88-6.79,10.49a11.5,11.5,0,0,0,6.76,10.88c1,.39,1.32.28,1.3-.86-.06-3.3,0-6.58,0-9.87Zm104.66,0h0c0,3.21,0,6.44,0,9.66,0,1.33.45,1.52,1.53.93,4.13-2.27,6.49-5.68,6.51-10.47s-2.32-8.19-6.4-10.53c-1.38-.79-1.68-.22-1.66,1.12C592.36,988.14,592.32,991.24,592.32,994.34Zm-45.49-65.22a6.84,6.84,0,1,0-6.88,6.69A6.91,6.91,0,0,0,546.83,929.12Zm-6.68,30.09q-15.17,0-30.36,0A14.88,14.88,0,0,0,494.92,974q0,19.1,0,38.18a14.71,14.71,0,0,0,12.34,14.45c4.06.63,8.17.34,12.27.34,10.24,0,20.49,0,30.72,0,6.84,0,13.67.11,20.5-.14a14.71,14.71,0,0,0,14.34-15.07q0-18.62,0-37.25a14.92,14.92,0,0,0-15.31-15.3c-9.87,0-19.75,0-29.63,0Zm-.17,74.88c-9.76,0-19.52-.26-29.26.07-11.67.39-22-9-22.85-19.9-.08-1.13-.74-1.35-1.62-1.64-7.85-2.6-12.64-7.88-13.72-16.16a18.69,18.69,0,0,1,13.15-20.07c1.4-.42,1.95-.9,2-2.48A22.41,22.41,0,0,1,510.51,952c8,0,16,0,24,0,1.42,0,2-.31,1.92-1.84a44.44,44.44,0,0,1,0-5.77c.09-1.41-.44-2-1.75-2.56-5.12-2.13-8.22-6-8.66-11.58a13.44,13.44,0,0,1,7.39-13.71,14,14,0,0,1,17.72,20.77,12.51,12.51,0,0,1-6.13,4.63,1.87,1.87,0,0,0-1.54,2.15,59.9,59.9,0,0,1,0,6.14c-.08,1.38.36,1.8,1.76,1.78,8.2-.07,16.4,0,24.6,0a22.59,22.59,0,0,1,22,17.71,34.68,34.68,0,0,1,.46,5,1.41,1.41,0,0,0,1.24,1.51,18.77,18.77,0,0,1,14.08,17.42,19.15,19.15,0,0,1-12.56,18.63,4.62,4.62,0,0,1-1.43.39c-1.09.07-1.5.65-1.56,1.67-.66,10.59-11,20.23-22.67,19.84-9.79-.31-19.61-.05-29.42-.05Z"/><path class="cls-2" d="M510,1034.59c-11.41,0-21.64-9.13-22.55-20.3-.06-.85-.45-1-1.3-1.26-8.25-2.72-13-8.27-14-16.52A19.1,19.1,0,0,1,485.56,976c1.23-.35,1.66-.7,1.7-2.1a22.83,22.83,0,0,1,23.25-22.31h6c6-.12,12.05,0,18,0,.7,0,1.09-.08,1.28-.29a1.46,1.46,0,0,0,.21-1.11,46,46,0,0,1,0-5.85c.07-1.14-.28-1.64-1.49-2.13-5.4-2.25-8.47-6.38-8.92-11.93-.52-6.2,2.13-11.09,7.61-14.13a14.41,14.41,0,0,1,18.25,21.41,13.18,13.18,0,0,1-6.33,4.79c-1,.3-1.29.71-1.24,1.7.09,2.19.07,4.21,0,6.2a1.47,1.47,0,0,0,.17,1.08,1.7,1.7,0,0,0,1.16.26c6.18,0,12.37-.08,18.45,0h6.22a23,23,0,0,1,22.32,18,26.37,26.37,0,0,1,.44,4.41l.05.65c0,.73.21,1,.9,1.14a19.23,19.23,0,0,1,14.42,17.81,19.67,19.67,0,0,1-12.84,19,4.9,4.9,0,0,1-1.55.41c-.82.09-1.13.41-1.17,1.29-.69,10.94-11.08,20.27-22.43,20.27a5,5,0,0,1-.67,0c-6.79-.24-13.69-.15-20.28-.09H530.89c-6.62-.09-13.42-.15-20.15.09A6.11,6.11,0,0,1,510,1034.59Zm12.54-82.21h-12a22,22,0,0,0-22.4,21.53,2.68,2.68,0,0,1-2.31,2.89A18.19,18.19,0,0,0,473,996.39c1,7.9,5.55,13.22,13.43,15.82.91.33,1.8.62,1.92,2,.86,10.73,10.7,19.51,21.7,19.51h.71c6.73-.27,13.56-.18,20.18-.12,6.05,0,12.11,0,18.22,0,6.62-.06,13.52-.17,20.31.12h.64c10.94,0,20.94-9,21.58-19.48a1.93,1.93,0,0,1,2-2,4.73,4.73,0,0,0,1.32-.35,18.81,18.81,0,0,0,12.28-18.21,18.34,18.34,0,0,0-13.79-17,1.82,1.82,0,0,1-1.53-1.9l0-.68a30.13,30.13,0,0,0-.43-4.27,22.18,22.18,0,0,0-21.5-17.37H563.7c-6.12,0-12.3,0-18.45,0a2.24,2.24,0,0,1-1.77-.52,2.17,2.17,0,0,1-.41-1.7,55.82,55.82,0,0,0,0-6.08,2.28,2.28,0,0,1,1.84-2.58,12.05,12.05,0,0,0,5.91-4.5,13.55,13.55,0,0,0-17.17-20.12c-5.25,2.9-7.67,7.37-7.18,13.31.41,5.23,3.32,9.09,8.4,11.23a2.63,2.63,0,0,1,2,2.95,42.24,42.24,0,0,0,0,5.73,2.4,2.4,0,0,1-.44,1.76,2.63,2.63,0,0,1-1.9.52C530.54,952.38,526.55,952.38,522.54,952.38Zm-8.84,75.1a40.55,40.55,0,0,1-6.51-.44,15.17,15.17,0,0,1-12.69-14.85q0-19.1,0-38.2a15.3,15.3,0,0,1,15.29-15.17c6.77,0,13.51,0,20.25,0l10.12,0h29.62a15.4,15.4,0,0,1,15.74,15.7q0,18.6,0,37.26a15.21,15.21,0,0,1-14.76,15.47c-4.81.2-9.72.17-14.47.14-2,0-4,0-6,0H519.53C517.57,1027.39,515.63,1027.48,513.7,1027.48Zm6.21-67.84H509.79A14.46,14.46,0,0,0,495.35,974q0,19.13,0,38.2a14.32,14.32,0,0,0,12,14,57.53,57.53,0,0,0,9.27.38c1,0,2,0,2.94,0h36.76c4.76,0,9.65,0,14.44-.14a14.41,14.41,0,0,0,13.94-14.65q0-18.64,0-37.26a14.58,14.58,0,0,0-14.89-14.88H519.91Zm-32.75,46.05a2.26,2.26,0,0,1-.92-.23,11.8,11.8,0,0,1-7.05-11.26c.06-4.77,3-9.33,7.08-10.88a1.52,1.52,0,0,1,1.4-.06,1.69,1.69,0,0,1,.42,1.38c0,2.31,0,4.65,0,7l0,2.75,0,2.48c0,2.46,0,4.92.05,7.4a1.54,1.54,0,0,1-.44,1.32A.84.84,0,0,1,487.16,1005.69Zm0-21.75a2.48,2.48,0,0,0-.58.14c-3.73,1.44-6.46,5.71-6.52,10.12-.06,4.62,2.61,8.92,6.5,10.5a1.63,1.63,0,0,0,.66.15h0a1.53,1.53,0,0,0,.06-.62c0-2.48,0-4.94,0-7.4V991.6c0-2.31,0-4.65,0-7,0-.56-.06-.67-.08-.7h0Zm105.8,21.72a.91.91,0,0,1-.49-.11,1.69,1.69,0,0,1-.54-1.55c0-2.25,0-4.51,0-6.76l-.05-2.89,0-2.78c0-2.19,0-4.36,0-6.52,0-.7.06-1.46.58-1.76a1.78,1.78,0,0,1,1.71.3c4.4,2.51,6.63,6.17,6.63,10.87s-2.28,8.37-6.73,10.85A2.61,2.61,0,0,1,592.94,1005.66Zm-.2-11.72h0v3.3c0,2.25,0,4.51,0,6.76,0,.73.14.82.14.82a2.29,2.29,0,0,0,.77-.27c4.23-2.31,6.27-5.61,6.29-10.09s-2.08-7.8-6.19-10.17c-.71-.35-.83-.32-.87-.29s-.18.17-.16,1c0,2.16,0,4.33,0,6.52ZM540,936.21h0a7.25,7.25,0,0,1-.05-14.5h.16a6.88,6.88,0,0,1,4.86,2,7.68,7.68,0,0,1,2.32,5.47h0a6.89,6.89,0,0,1-2.09,4.88A7.35,7.35,0,0,1,540,936.21Zm.07-13.68h-.14a6.43,6.43,0,0,0,0,12.86h0a6.56,6.56,0,0,0,4.56-2,6,6,0,0,0,1.84-4.29h0a6.79,6.79,0,0,0-2.06-4.86A6,6,0,0,0,540.07,922.53Z"/><path class="cls-1" d="M513.83,981.88a3.24,3.24,0,0,0-3.39,3,3.41,3.41,0,0,0,3.23,3.75,3.2,3.2,0,0,0,3.48-3.06,3.28,3.28,0,0,0-3.32-3.64Zm-.08-7.19a10.66,10.66,0,0,1,10.69,10.79c0,5.45-5.21,10.52-10.6,10.37-6.26-.17-10.7-4.9-10.61-11.27C503.3,979.3,508.3,974.58,513.75,974.69Z"/><path class="cls-1" d="M514.11,998.53h-.36c-7.76-.23-13.32-6.11-13.21-14a12.62,12.62,0,0,1,4-8.77,13.17,13.17,0,0,1,9.06-3.77h.25A13.14,13.14,0,0,1,523,994.76,12.88,12.88,0,0,1,514.11,998.53Zm-.56-21.14a7.84,7.84,0,0,0-5.32,2.25,7.13,7.13,0,0,0-2.31,5c-.08,4.91,3.21,8.42,8,8.54a7.41,7.41,0,0,0,5.3-2.25,7.73,7.73,0,0,0,2.53-5.41,7.93,7.93,0,0,0-8-8.1h-.16Zm.23,13.89h-.2a6.15,6.15,0,0,1-4.24-2,6.38,6.38,0,0,1-1.57-4.62,5.85,5.85,0,0,1,5.88-5.5h.29a6.21,6.21,0,0,1,4.42,2,6.08,6.08,0,0,1-4.58,10.06Zm-.11-6.7a.53.53,0,0,0-.54.41,1,1,0,0,0,.2.73c1.1.12,1.11-.2,1.14-.38h0l-.76-.76Z"/><path class="cls-1" d="M566.16,988.59a3.36,3.36,0,1,0-3.34-3.39,3.17,3.17,0,0,0,3.34,3.39Zm10.59-3.45A10.72,10.72,0,0,1,566,995.85a10.86,10.86,0,0,1-10.39-11.31,10.6,10.6,0,0,1,21.17.6Z"/><path class="cls-1" d="M566.27,998.53h-.39a13.12,13.12,0,0,1-9.23-4.15,13.87,13.87,0,0,1-3.77-9.92A13.31,13.31,0,0,1,566.06,972h.2a13.55,13.55,0,0,1,9.59,4.09,12.77,12.77,0,0,1,3.58,9.09h0a13.82,13.82,0,0,1-4.28,9.77A12.84,12.84,0,0,1,566.27,998.53Zm-.21-21.14a7.8,7.8,0,0,0-7.8,7.25,8.46,8.46,0,0,0,2.28,6.05,7.84,7.84,0,0,0,5.72,2.46,7.51,7.51,0,0,0,5.19-2.08,8.47,8.47,0,0,0,2.6-6h0a7.2,7.2,0,0,0-2.07-5.24,8.13,8.13,0,0,0-5.81-2.45Zm.1,13.89h0a6.1,6.1,0,0,1-4.35-1.82,6.11,6.11,0,0,1,4.3-10.26,5.43,5.43,0,0,1,4.41,1.75,5.75,5.75,0,0,1,1.76,4A6,6,0,0,1,566.16,991.28Zm-.06-9.39,0,2.69a.58.58,0,0,0-.63.64l.65,3.37V985.9c.35,0,.69,0,.69-.88Z"/><path class="cls-1" d="M539.86,1014.14c-3,0-6.07,0-9.1,0-2.56,0-4.12-1.45-4.1-3.58s1.65-3.57,4.27-3.57l18.37.09c2.47,0,4,1.26,4,3.37s-1.48,3.66-4,3.7c-3.16.07-6.33,0-9.48,0Z"/><path class="cls-1" d="M544.58,1016.86h-2.34l-5.4,0c-2.07,0-4.09,0-6.11,0-4-.09-6.78-2.7-6.77-6.32s2.87-6.23,7-6.23l18.39.09c3.86,0,6.55,2.4,6.72,5.93a6.19,6.19,0,0,1-1.61,4.45,7,7,0,0,1-5,2.08C547.79,1016.86,546.18,1016.86,544.58,1016.86Zm-2-5.38c2.21,0,4.47,0,6.74,0a1.64,1.64,0,0,0,1.2-.38c.13-.9.12-1.31-1.2-1.31l-18.39-.09c-1.57,0-1.57.64-1.57.88s0,.88,1.48.9h6Z"/></g></svg>