<svg id="Layer_1" data-name="Layer 1" xmlns="http://www.w3.org/2000/svg" viewBox="0 0 1080 1080"><defs><style>.cls-1{fill:#3a60aa;}.cls-2{fill:none;stroke:#3a60aa;stroke-miterlimit:10;stroke-width:3px;}</style></defs><g id="_1429216407872" data-name=" 1429216407872"><path class="cls-1" d="M515.88,554.16c0,1.18,0,2.37,0,3.53s-.63,1.59-1.73,1.83c-6.5,1.41-8.19.07-8.18-6.42,0-58.92,0,24.89,0-34,0-5,0-5-5.12-5q-77.07,0-154.14.06a8.32,8.32,0,0,1-6.48-2.68c-14.24-14.41-28.67-28.63-42.84-43.1-3.44-3.5-6.11-5.33-11.6-3.37-9.25,3.31-19.51-1.83-24.11-10.62a21.42,21.42,0,0,1,31.11-27.43c8.19,5.78,11.68,16.4,7.72,25.3-1.3,2.95-.61,4.42,1.31,6.33q21.69,21.53,43.25,43.21a6.83,6.83,0,0,0,5.33,2.08q39.42-.06,78.84,0c.88,0,2.11.5,2.57-.51.57-1.24-.77-1.83-1.47-2.52C417.5,488,404.61,475.18,391.85,462.3c-1.8-1.81-3.21-1.94-5.52-1A21.32,21.32,0,0,1,362.74,427a21.43,21.43,0,0,1,27.12-3.33,21.1,21.1,0,0,1,8,26.36c-.78,1.82-.94,3.09.64,4.66q23.82,23.64,47.5,47.44a5.16,5.16,0,0,0,4,1.75c7-.08,13.91-.16,20.86,0,2.92.08,3.6-1.08,3.58-3.74-.1-11-.08-21.92,0-32.88a6.78,6.78,0,0,0-2.29-5.23q-35.55-35.43-71-71a9,9,0,0,0-7.08-2.95c-21.68.1-43.37,0-65.05.15a10.11,10.11,0,0,1-8-3.39c-12.16-12.31-24.5-24.47-36.66-36.79-1.75-1.76-3.21-2.06-5.56-1.37a20.23,20.23,0,0,1-18.17-3,21.35,21.35,0,1,1,30.91-7.25c-1.18,2.17-1.1,3.41.64,5.13q16.86,16.62,33.5,33.47a9.06,9.06,0,0,0,7.11,2.95c21.57-.11,43.14,0,64.7-.14a10.66,10.66,0,0,1,8.33,3.43q37.88,38.08,76,76a8.68,8.68,0,0,1,2.84,6.8c-.14,12,0,24-.13,36.05,0,3,1,3.86,3.83,3.74a137.88,137.88,0,0,1,13.79,0c3,.15,3.82-1,3.8-3.86q-.15-22.46,0-44.89a6.81,6.81,0,0,0-2.27-5.26q-18.93-18.78-37.74-37.71-50.82-50.83-101.7-101.63a7.56,7.56,0,0,1-2.4-5.92c.08-13.19-.09-26.39.08-39.59.05-3.35-.64-5.16-4-6.62A20.89,20.89,0,0,1,346,234.48a21.12,21.12,0,0,1,21-16.57,21.36,21.36,0,0,1,20.66,16.57,20.93,20.93,0,0,1-12.2,24.11c-3,1.25-3.68,2.83-3.65,5.72.1,12.13,0,24.27,0,36.42a6,6,0,0,0,1.71,4.76q40.67,40.54,81.26,81.17c.71.71,1.36,2.1,2.44,1.66,1.33-.52.73-2.06.73-3.18.06-7.42-.05-14.84.09-22.26a8.23,8.23,0,0,0-2.71-6.52c-12.56-12.43-25-25-37.55-37.43a7.09,7.09,0,0,1-2.33-5.59c.11-5.3-.11-10.61.06-15.91.08-2.61-.77-3.92-3.26-5a21.11,21.11,0,0,1-12.52-24.87,21.34,21.34,0,0,1,41.64,1.11,21,21,0,0,1-12.52,23.65c-2.68,1.06-3.62,2.43-3.48,5.19.2,3.75.16,7.54,0,11.32a7.27,7.27,0,0,0,2.51,5.87c12.56,12.44,25,25,37.57,37.4a8.68,8.68,0,0,1,2.82,6.83c-.13,12.5,0,25-.12,37.48a8.26,8.26,0,0,0,2.75,6.47c14,13.93,28,28,42.06,41.9a9.09,9.09,0,0,1,2.92,6.13Q515.88,502.54,515.88,554.16Z"/><path class="cls-1" d="M574.08,465.67c0-29.35,0,84,0,54.7,0-1.42.09-2.83.1-4.24s.78-2.1,2.23-2c1.06,0,2.13,0,3.18,0q76.92,0,153.79.06a8.26,8.26,0,0,0,6.45-2.78c15.34-15.49,30.82-30.83,46.15-46.32,1.79-1.81,3.11-1.59,5.21-.74a21.31,21.31,0,0,0,27.46-28.75A21.63,21.63,0,0,0,798.8,423.2a21.19,21.19,0,0,0-18.95,29.73c.89,2.07.61,3.33-1,4.92q-22,21.78-43.76,43.72a7.13,7.13,0,0,1-5.56,2.32c-26.29-.09-52.57-.06-78.85-.09-.89,0-2.15.57-2.63-.38-.63-1.25.84-1.75,1.51-2.42,12.7-12.8,25.47-25.51,38.15-38.32,1.87-1.87,3.44-2.45,6.12-1.35A21,21,0,0,0,718.35,455a21.36,21.36,0,1,0-38-14.72,18.61,18.61,0,0,0,1.75,9.63c1.07,2.25.58,3.59-1.06,5.21q-23.55,23.41-47,47a5.56,5.56,0,0,1-4.37,1.79c-7-.06-13.91-.12-20.86,0-2.49.05-3.29-.82-3.27-3.25.08-11.32.06-22.63,0-33.94a5.67,5.67,0,0,1,2-4.3q36.26-36.22,72.44-72.51c1.53-1.53,3.19-1.72,5.13-1.72,22.27,0,44.55,0,66.82.09a7.91,7.91,0,0,0,6.2-2.54c12.34-12.49,24.82-24.84,37.15-37.32,1.88-1.91,3.4-2.46,6.1-1.66,11.78,3.5,23.61-3.66,26.53-15.73,2.79-11.58-4.89-23.31-16.8-25.72C799.42,302.9,788.05,311,786,323a21,21,0,0,0,2.61,13.93c1,1.82.82,2.88-.56,4.26q-17.66,17.6-35.22,35.27c-1.55,1.56-3.32,1.5-5.21,1.5-22.15,0-44.3,0-66.46-.06a7.82,7.82,0,0,0-6.18,2.52q-37.9,38.08-76,76a11.32,11.32,0,0,0-3.68,9c.22,11.77,0,23.56.14,35.35,0,2.47-.75,3.26-3.22,3.18-5.06-.16-10.14-.16-15.19,0-2.39.08-3-.79-3-3q.12-23,0-46c0-2.27,1-3.7,2.5-5.16Q611.8,414.51,647,379.26q33.84-33.86,67.76-67.69a10.43,10.43,0,0,0,3.43-8.3c-.2-12.84,0-25.69-.13-38.54,0-3.2.74-4.93,4-6.26,8.94-3.67,13.85-13.59,12.11-23.23a21.35,21.35,0,1,0-29.06,23.67c2.49,1,3.08,2.34,3.06,4.71q-.12,18.56,0,37.12A6.88,6.88,0,0,1,706,306q-40.31,40.17-80.56,80.39c-.76.75-1.37,2.37-2.7,1.79S622,386.09,622,385c-.07-7.67,0-15.31-.07-23a6.4,6.4,0,0,1,2.1-5c12.7-12.61,25.3-25.31,38-37.89a7.45,7.45,0,0,0,2.46-5.89c-.12-5.41.06-10.84,0-16.26,0-2.32.76-3.5,3-4.4,9.37-3.78,14.27-12.45,13.13-22.65a21.13,21.13,0,0,0-17.29-18.12,21.54,21.54,0,0,0-23.92,13.82c-3.51,10.25.77,21.69,10.48,26,4.07,1.8,4.41,4.16,4.84,8,1,9-2.06,15.42-8.8,21.47-10.85,9.75-20.78,20.53-31.19,30.76a8.71,8.71,0,0,0-2.86,6.82c.1,13,0,25.92,0,38.89a6.09,6.09,0,0,1-2.12,4.61c-14.27,14.21-28.48,28.49-42.79,42.67a8.76,8.76,0,0,0-2.94,6.76c.08,82,0,21.32.1,103.34,0,1.49-1,3.8,1.15,4.3,2.57.61,5.47.88,8-.23,1.42-.63.76-2.57.76-3.93q0-35.86,0-71.77V465.67Z"/><path class="cls-1" d="M545,418.15c0-45.6,0,51.52,0,5.91a7.9,7.9,0,0,1,2.57-6.18c11.41-11.25,22.69-22.63,34.07-33.9a7.89,7.89,0,0,0,2.45-6.28c-.14-9.18-.06-18.39-.12-27.58a6.49,6.49,0,0,1,2.12-5c13.06-12.94,26-26,39.06-38.93a7.24,7.24,0,0,0,2.36-5.59c-.07-20.62,0-41.25-.12-61.87,0-3.58.66-5.51,4.31-7.13,10.78-4.79,14.93-18,9.63-28.8-5-10.16-18-14.41-28.5-9.29a21.29,21.29,0,0,0-9.78,28.3,20.51,20.51,0,0,0,11.67,10.72,3.28,3.28,0,0,1,2.54,3.61q-.08,30.57,0,61.17a5.27,5.27,0,0,1-1.72,4Q601.21,315.59,587,329.83c-.64.64-1.2,1.79-2.23,1.42s-.76-1.64-.76-2.52c0-17.33.11-34.64-.09-52,0-3.5,2.27-3.87,4.41-4.9a21.3,21.3,0,1,0-30.14-23.8,21,21,0,0,0,12.59,24.19c2.47,1.05,3.28,2.33,3.27,5q-.1,48.07,0,96.16a8,8,0,0,1-2.37,6.31c-7.84,7.65-15.52,15.46-23.32,23.17-.75.72-1.3,2.37-2.7,1.74-1.14-.51-.61-1.92-.61-2.92q0-104.1-.06-208.23c0-2.58.93-3.65,3.25-4.58,9.49-3.83,14.61-13.63,12.72-23.86a21.37,21.37,0,0,0-41.56-1.29,21,21,0,0,0,12.22,25c2.83,1.2,3.49,2.73,3.49,5.54Q535,297.82,535,401.41c0,1.08.64,2.66-.74,3.15-1.08.4-1.72-1-2.44-1.71-7.87-7.79-15.69-15.64-23.62-23.37a7.19,7.19,0,0,1-2.25-5.63q.09-48.08,0-96.16c0-2.8.62-4.34,3.51-5.52a21.18,21.18,0,0,0,12.39-24.35,21.5,21.5,0,0,0-22.27-16.38c-10.06.44-18.23,8.11-19.65,18.43a20.69,20.69,0,0,0,12.83,22.43c2.54,1,3.32,2.34,3.3,4.94-.09,17-.05,33.94-.08,50.91,0,1.09.55,2.65-.83,3.11-1.07.36-1.76-1-2.47-1.71-9.26-9.25-18.47-18.54-27.76-27.74a6.8,6.8,0,0,1-2.23-5.27q.1-29.51,0-59c0-2.65.57-4.14,3.32-5.28a21.09,21.09,0,0,0,12.9-22.51c-1.16-9.24-8.29-16.38-18.16-18.13-8.81-1.58-17.84,3.17-22.21,11.66-5.48,10.62-.55,24.13,10.78,28.92,2.48,1.05,3.29,2.32,3.28,4.93-.09,21.11,0,42.2-.09,63.29a7.61,7.61,0,0,0,2.46,5.9c12.88,12.77,25.65,25.65,38.55,38.44a7.92,7.92,0,0,1,2.53,6.23c-.09,8.85.1,17.69-.09,26.52a8.93,8.93,0,0,0,3,7.11c11.23,11.1,22.31,22.32,33.57,33.38a7.91,7.91,0,0,1,2.5,6.23c-.06,13.79,0,27.58,0,41.36V553c0,1.3.07,2.59,0,3.89-.1,2,.8,2.7,2.74,2.67,8.53-.11,7.19.77,7.2-6.7q.06-67.35,0-134.7Z"/><path class="cls-1" d="M540,0C253.57,0,20.52,233.06,20.52,519.49,20.52,779,211.7,994.6,460.58,1033c-.69-1.26-1.36-2.54-2-3.84C212.59,990,24,776.34,24,519.49,24,235,255.47,3.49,540,3.49s516,231.46,516,516c0,256.86-188.61,470.48-434.6,509.62-.63,1.3-1.3,2.59-2,3.85,248.88-38.35,440.06-254,440.06-513.47C1059.49,233.06,826.45,0,540,0Z"/><path class="cls-1" d="M379.19,963.09a11.62,11.62,0,0,0-6.5,7.44c-1.26,3.69-1,7,.75,9.92a15.17,15.17,0,0,0,8.36,6.22l8.66,2.94,15.24-44.77-2.95-1-7.25,21.27-5.76-2C385.77,961.8,382.26,961.8,379.19,963.09Zm3.79,21c-3.21-1.1-5.49-2.78-6.75-5a8.92,8.92,0,0,1-.43-7.57,8.8,8.8,0,0,1,4.93-5.65,10.47,10.47,0,0,1,7.95-.07l5.91,2-6.17,18.12L383,984.08Z"/><path class="cls-1" d="M393.1,995l-12.65-4.31a19.36,19.36,0,0,1-10.59-8,17.08,17.08,0,0,1,7.71-23.5h0c4.07-1.68,8.63-1.68,13.54,0l1.76.58,7.24-21.32,10.94,3.79Zm-8.75-14.86,1.44.46,3.45-10.12-1.91-.67c-2.62-.9-4.06-.49-4.9-.06a4.59,4.59,0,0,0-2.65,3.17c-.72,2.18-.32,3.35.12,4.13.91,1.6,2.92,2.56,4.45,3.09Z"/><path class="cls-1" d="M331.57,914.15l-3.1,52.43,38.85-35.49-3.07-1.45L351.9,941l-18.2-8.62.95-16.74-3.08-1.46Zm.36,45.29,1.59-24L349.66,943l-17.73,16.4Z"/><path class="cls-1" d="M323.65,976.69l4.08-69L339,913l-.94,16.73,13.06,6.19,12.34-11.34,11.3,5.35Zm13.67-34.84-.48,7.3,5.38-5Z"/><path class="cls-1" d="M294.68,917.62c2.94-4.52,5.66-7.66,8.19-9.48A12.13,12.13,0,0,1,308,906a6.32,6.32,0,0,1,4.65.91l6.72-10.34-2.5-1.63-5.18,8-29.6-19.25,5.19-8-2.5-1.63-6.73,10.35,4.52,2.93L258.35,924.6l22.34,14.53,14-21.51Zm-32.17,6.3L285.19,889l21.58,14a15.18,15.18,0,0,0-6.08,2.73q-3.87,2.82-8.62,10.13l-12.45,19.13-17.11-11.13Z"/><path class="cls-1" d="M281.92,945l-29.4-19.17,24.23-37.23-4.53-2.94,11.33-17.45,9.57,6.26-5.19,8,22.54,14.63,5.18-8,9.55,6.25-11.33,17.39-3.54-2.32a2,2,0,0,0-1.65-.27,8.13,8.13,0,0,0-3.43,1.49c-2,1.45-4.41,4.27-7,8.29Zm-13.58-22.31,10.05,6.54,10.14-15.58c3.46-5.33,6.6-9,9.58-11.2l-11.68-7.57Z"/><polygon class="cls-1" points="232.41 842.86 200.96 878.84 253.11 870.46 226.7 900.67 229.05 902.72 260.96 866.22 208.82 874.59 234.77 844.91 232.41 842.86"/><polygon class="cls-1" points="229.44 908.69 220.77 901.04 242.25 876.49 190.1 884.87 231.98 836.94 240.72 844.5 219.67 868.58 271.83 860.21 229.44 908.69"/><path class="cls-1" d="M195,838.9a23.23,23.23,0,0,0,8.69-16.48,25,25,0,0,0-22.35-26.79,23.19,23.19,0,0,0-17.77,5.6A24.53,24.53,0,1,0,195,838.9ZM193,836.39a21.31,21.31,0,0,1-15.72,5.18,21.76,21.76,0,0,1-19.45-23.31,21.28,21.28,0,0,1,7.92-14.53,21,21,0,0,1,15.61-5.09A21.56,21.56,0,0,1,200.75,822,21,21,0,0,1,193,836.39Z"/><path class="cls-1" d="M179.63,848.86c-.92,0-1.85-.06-2.79-.14A28.74,28.74,0,0,1,160.91,798a27,27,0,0,1,20.9-6.54,29.17,29.17,0,0,1,26.12,31.35,28.88,28.88,0,0,1-28.3,26.06Zm-.16-46.1A16.8,16.8,0,0,0,168.42,807,17.2,17.2,0,0,0,162,818.73a17.52,17.52,0,0,0,15.59,18.61c4.77.61,8.84-1,12.67-4.18v0a16.48,16.48,0,0,0,6.28-11.58A17.34,17.34,0,0,0,181,802.85,13.08,13.08,0,0,0,179.47,802.76Z"/><polygon class="cls-1" points="115.82 771.59 130.59 794.96 132.99 793.44 126.44 783.08 164 759.32 162.34 756.67 124.77 780.44 118.21 770.08 115.82 771.59"/><polygon class="cls-1" points="129.28 800.78 110 770.27 119.51 764.25 126.07 774.63 163.66 750.84 169.8 760.62 132.25 784.38 138.81 794.76 129.28 800.78"/><polygon class="cls-1" points="101.38 745.31 143.87 724.57 133.93 704.18 131.38 705.43 139.96 723.01 120.53 732.5 112.13 715.29 109.58 716.54 117.98 733.74 102.56 741.27 93.98 723.68 91.43 724.92 101.38 745.31"/><polygon class="cls-1" points="99.44 750.96 85.8 723.01 95.91 718.03 104.5 735.63 112.34 731.79 103.94 714.63 114.06 709.66 122.46 726.85 134.31 721.06 125.73 703.52 135.86 698.55 149.51 726.53 99.44 750.96"/><polygon class="cls-1" points="123.83 679.97 100.01 676.45 116.25 658.59 115.11 655.38 96.73 675.67 70.75 671.78 71.89 674.99 94.53 678.39 79.07 695.24 80.21 698.45 97.91 679 124.96 683.18 123.83 679.97"/><polygon class="cls-1" points="78.56 706.52 74.25 694.24 86.06 681.39 68.78 678.8 64.39 666.58 95.12 671.15 116.7 647.36 121.08 659.54 108.46 673.42 126.97 676.15 131.28 688.43 99.51 683.51 78.56 706.52"/><polygon class="cls-1" points="61.66 640.59 107.88 630.59 107.22 627.54 83.39 632.7 77.34 604.7 101.17 599.55 100.51 596.5 54.29 606.49 54.95 609.54 74.56 605.3 80.61 633.29 61 637.53 61.66 640.59"/><polygon class="cls-1" points="58.42 645.58 56 634.3 75.59 630.08 71.33 610.3 51.7 614.55 49.28 603.26 103.75 591.51 106.19 602.77 82.35 607.92 86.61 627.7 110.47 622.55 112.88 633.83 58.42 645.58"/><polygon class="cls-1" points="93.83 530.23 46.15 533.4 88.93 564.38 48.88 567.05 49.1 570.15 97.48 566.93 54.7 535.96 94.04 533.34 93.83 530.23"/><polygon class="cls-1" points="45.17 574.64 44.41 563.13 77 560.94 34.23 529.97 97.75 525.75 98.51 537.27 66.63 539.39 109.4 570.37 45.17 574.64"/><polygon class="cls-1" points="47.12 496.98 94.29 500.35 94.51 497.23 73.22 495.71 72.11 494.35 96.19 473.75 96.48 469.52 70.15 491.94 49.22 467.49 48.93 471.59 69.54 495.45 47.34 493.87 47.12 496.98"/><polygon class="cls-1" points="98.2 504.87 42.61 500.88 43.42 489.36 59.71 490.53 44.6 473.02 45.75 456.93 70.62 486.02 101.42 459.78 100.26 475.81 81.29 492.07 99.02 493.35 98.2 504.87"/><path class="cls-1" d="M106.67,412.41l-51.61,9.64L98.87,451.2l.67-3.34-14-9.25,4-19.74L106,415.75l.66-3.34ZM62.82,423.69l23.71-4.26L83,436.94Z"/><path class="cls-1" d="M101.78,458.18l-57.7-38.36L112,407.11l-2.4,12.25-16.49,3.11-2.86,14.19,14,9.25ZM74,426l6.12,4,1.08-5.29Z"/><polygon class="cls-1" points="123.77 391.43 111.84 382.14 110.17 384.58 122.53 392.97 123.77 391.43"/><polygon class="cls-1" points="123.39 398.65 104.31 385.73 110.89 376.02 129.73 390.74 123.39 398.65"/><path class="cls-1" d="M146.19,312.11a23.86,23.86,0,0,0,2.05-18.87,24.4,24.4,0,0,0-30.35-16.3,23.63,23.63,0,0,0-14.49,11.91,22.27,22.27,0,0,0-2.12,16.91l3.62,2a22.76,22.76,0,0,1-1.43-9,21.11,21.11,0,0,1,14-18.53,20.28,20.28,0,0,1,15.4.58L118,308.35l2.49,1.34,15-27.7c5.45,3.19,8.84,7.52,10.15,13.14a21.29,21.29,0,0,1-1.85,15.51,21,21,0,0,1-5.47,6.4,20.77,20.77,0,0,1-8.37,4.18l3.61,1.95a23.17,23.17,0,0,0,12.66-11.06Z"/><path class="cls-1" d="M133.21,327.79l-14.85-8,10.54-2.65a16.4,16.4,0,0,0,6.71-3.35,16.69,16.69,0,0,0,4.45-5.14,17.17,17.17,0,0,0,1.45-12.54,15.07,15.07,0,0,0-4.62-7.85l-14.7,27.19L112.31,310l14.41-26.7a16.25,16.25,0,0,0-7.79.82,16.68,16.68,0,0,0-9.29,8,16.36,16.36,0,0,0-2,6.86,19.15,19.15,0,0,0,1.18,7.27l3.85,10.53-15-8.2-.47-1.75a26.46,26.46,0,0,1,2.49-20,28.53,28.53,0,0,1,38.84-11.66,27.35,27.35,0,0,1,13.75,16.87,28,28,0,0,1-2.39,22.07h0a27.33,27.33,0,0,1-14.89,13Z"/><path class="cls-1" d="M159.86,255.33c1.78,1.3,3.09,2.26,4,3a27,27,0,0,1,2.91,3,8.09,8.09,0,0,1,1.79,3.68,6.32,6.32,0,0,1-1.24,4.81,8.73,8.73,0,0,1-1.88,1.86l2.29,1.68a12.75,12.75,0,0,0,2-2,8.71,8.71,0,0,0,1.76-7.23,10.75,10.75,0,0,0-2.17-4.48,22.58,22.58,0,0,0-3.24-3.5c-1-.81-2.48-1.9-4.37-3.28l-22.21-16.22,12-16.49,35.9,26.21,1.84-2.52-38.2-27.88-15.72,21.53Z"/><path class="cls-1" d="M167.89,278.73l-9.55-7,4.52-3.43a5.37,5.37,0,0,0,1-1,2,2,0,0,0,.47-1.69,4.14,4.14,0,0,0-.94-1.75,30.9,30.9,0,0,0-2.32-2.38c-.77-.64-2-1.54-3.7-2.74v0l-27.92-20.38L150.15,210l45,32.86-6.82,9.37L152.45,226l-7.07,9.66,18.81,13.76c2,1.42,3.54,2.59,4.58,3.46a25,25,0,0,1,3.87,4.13,15.06,15.06,0,0,1,3,6.22,12.82,12.82,0,0,1-2.51,10.56,16.76,16.76,0,0,1-2.67,2.77Z"/><polygon class="cls-1" points="174.26 188.51 208.69 220.92 224.25 204.4 222.18 202.46 208.77 216.7 193.02 201.89 206.14 187.95 204.08 186.01 190.96 199.94 178.46 188.18 191.87 173.93 189.81 171.99 174.26 188.51"/><polygon class="cls-1" points="208.88 226.9 168.3 188.68 189.64 166.02 197.84 173.76 184.43 188.01 190.78 193.97 203.9 180.04 212.1 187.78 198.99 201.71 208.6 210.75 222.01 196.5 230.21 204.24 208.88 226.9"/><polygon class="cls-1" points="213.92 149.23 244.28 185.49 246.67 183.49 232.97 167.13 233.18 165.38 264.72 168.39 267.98 165.65 233.55 162.3 236.6 130.26 233.44 132.89 230.6 164.3 216.32 147.23 213.92 149.23"/><polygon class="cls-1" points="243.75 191.41 207.97 148.71 216.84 141.3 227.32 153.8 229.4 130.77 241.76 120.41 238.15 158.52 278.38 162.41 266.07 172.74 241.19 170.38 252.62 184.05 243.75 191.41"/><polygon class="cls-1" points="280.18 99.98 257.09 115.2 258.65 117.57 268.89 110.82 293.36 147.94 295.96 146.22 271.5 109.1 281.74 102.36 280.18 99.98"/><polygon class="cls-1" points="292.15 153.78 267.69 116.66 257.48 123.38 251.22 114.02 281.37 94.15 287.58 103.55 277.34 110.29 301.8 147.41 292.15 153.78"/><path class="cls-1" d="M333.05,95.44a11.62,11.62,0,0,0-.83-9.85c-1.78-3.47-4.31-5.6-7.64-6.36a15.16,15.16,0,0,0-10.29,1.7l-8.14,4.17,21.59,42.08,2.77-1.43-10.25-20,5.42-2.79C329.4,101.06,331.85,98.53,333.05,95.44ZM315.33,83.58c3-1.55,5.81-2,8.29-1.38A10,10,0,0,1,330,94.61a10.54,10.54,0,0,1-5.49,5.77L319,103.23l-8.74-17,5.11-2.62Z"/><path class="cls-1" d="M325.92,132.89,300.48,83.27l11.87-6.11a19.17,19.17,0,0,1,13.1-2.06c4.64,1.05,8.16,4,10.51,8.58a15.76,15.76,0,0,1,1,13.26h0c-1.6,4.16-4.77,7.45-9.41,9.77l-1.64.85,10.24,20ZM315.91,88l4.87,9.51,1.79-.93c2.43-1.25,3.14-2.56,3.48-3.46a4.66,4.66,0,0,0-.45-4.1c-1.05-2-2.17-2.56-3-2.79a8.15,8.15,0,0,0-5.29,1.07h0Z"/><path class="cls-1" d="M361.47,84.62a23.25,23.25,0,0,0,12.38,13.93A25,25,0,0,0,406.78,87a23.23,23.23,0,0,0,1-18.6,24.53,24.53,0,1,0-46.32,16.19Zm3.08-1.07A21.33,21.33,0,0,1,365.23,67a21.76,21.76,0,0,1,28.65-10,21.32,21.32,0,0,1,10.83,12.52,21,21,0,0,1-.73,16.4,21.57,21.57,0,0,1-28.64,10A21,21,0,0,1,364.55,83.55Z"/><path class="cls-1" d="M384.19,105.2A28,28,0,0,1,372,102.35,27.41,27.41,0,0,1,357.49,86,28.42,28.42,0,0,1,375.2,49.53,28.48,28.48,0,0,1,411.78,67a27.46,27.46,0,0,1-1.21,21.85,28,28,0,0,1-16.52,14.57A29.86,29.86,0,0,1,384.19,105.2ZM368.54,82.14a16.73,16.73,0,0,0,8.68,10,17.4,17.4,0,0,0,22.94-8,16.73,16.73,0,0,0,.56-13.23A17,17,0,0,0,392,60.76a15.93,15.93,0,0,0-13-.58,16.15,16.15,0,0,0-9.9,8.64,17.06,17.06,0,0,0-.5,13.32Z"/><polygon class="cls-1" points="433.32 37.71 441.95 84.2 445.01 83.64 440.56 59.66 468.73 54.44 473.18 78.41 476.24 77.84 467.61 31.35 464.55 31.92 468.21 51.64 440.05 56.87 436.38 37.15 433.32 37.71"/><polygon class="cls-1" points="438.58 89.09 428.4 34.35 439.76 32.2 443.42 51.95 463.3 48.28 459.64 28.5 470.98 26.47 481.16 81.21 469.8 83.36 465.35 59.36 445.47 63.03 449.92 87.05 438.58 89.09"/><polygon class="cls-1" points="542.67 73.14 540.92 25.39 508.68 67.22 507.22 27.12 504.1 27.23 505.87 75.69 538.11 33.86 539.55 73.25 542.67 73.14"/><polygon class="cls-1" points="502.07 87.52 499.75 23.18 511.28 22.75 512.47 55.38 544.7 13.58 547.02 77.19 535.49 77.63 534.33 45.66 502.07 87.52"/><polygon class="cls-1" points="577.31 27.45 572.52 74.5 575.63 74.82 577.79 53.58 579.17 52.51 599.04 77.2 603.28 77.63 581.65 50.63 606.72 30.44 602.63 30.03 578.16 49.92 580.41 27.77 577.31 27.45"/><polygon class="cls-1" points="612.87 82.86 596.86 81.21 581.2 61.72 579.4 79.43 567.89 78.24 573.54 22.83 585.04 24.02 583.38 40.23 601.33 25.62 617.31 27.34 587.57 51.28 612.87 82.86"/><path class="cls-1" d="M660,89.52,652,37.64,621.5,80.56l3.32.77,9.66-13.69,19.61,4.56,2.64,16.56,3.31.76Zm-10-44.17,3.56,23.83-17.41-4.05Z"/><path class="cls-1" d="M665.16,95,653,92.26l-2.63-16.61-14.08-3.26-9.64,13.67L614.4,83.27l40.12-56.54Zm-21.89-32.6,5.28,1.25-1.08-7.24Z"/><polygon class="cls-1" points="748.72 125.02 769.33 81.9 721.36 104 738.66 67.8 735.84 66.45 714.94 110.21 762.9 88.11 745.91 123.67 748.72 125.02"/><polygon class="cls-1" points="750.71 130.62 740.28 125.65 754.05 96.83 706.09 118.93 733.86 60.85 744.3 65.79 730.19 95.28 778.17 73.18 750.71 130.62"/><polygon class="cls-1" points="849.41 135.16 827.39 118.44 825.67 120.7 835.45 128.12 808.58 163.52 811.06 165.41 837.93 130 847.7 137.41 849.41 135.16"/><polygon class="cls-1" points="811.88 171.31 802.67 164.33 829.55 128.94 819.77 121.52 826.58 112.53 855.33 134.38 848.5 143.3 838.74 135.89 811.88 171.31"/><polygon class="cls-1" points="872.11 154.68 839.61 189.02 856.08 204.61 858.03 202.56 843.82 189.1 858.69 173.4 872.59 186.56 874.54 184.5 860.64 171.34 872.43 158.88 886.64 172.34 888.59 170.28 872.11 154.68"/><polygon class="cls-1" points="856.26 210.58 833.65 189.2 871.95 148.71 894.55 170.09 886.82 178.29 872.59 164.86 866.6 171.17 880.5 184.31 872.77 192.52 858.85 179.37 849.79 188.94 864 202.38 856.26 210.58"/><path class="cls-1" d="M890.93,217.33c-1.69,1.4-3,2.43-3.88,3.1a26.94,26.94,0,0,1-3.62,2.06,8.08,8.08,0,0,1-4,.82,6.31,6.31,0,0,1-4.35-2.39,9.35,9.35,0,0,1-1.34-2.3l-2.19,1.8a11.78,11.78,0,0,0,1.47,2.46,8.71,8.71,0,0,0,6.56,3.52,10.54,10.54,0,0,0,4.88-1,22.3,22.3,0,0,0,4.19-2.26c1-.76,2.46-1.92,4.27-3.41l21.26-17.47,13,15.78-34.35,28.23,2,2.4,36.54-30-16.92-20.59Z"/><path class="cls-1" d="M894.17,254.61l-7.32-8.92,34.35-28.22-7.61-9.28-18,14.81c-1.88,1.54-3.38,2.76-4.45,3.55a25.5,25.5,0,0,1-5,2.7,16.6,16.6,0,0,1-6.84,1.37,12.89,12.89,0,0,1-9.58-5.06,14.83,14.83,0,0,1-2-3.38l-1.37-3,9.14-7.54,2.15,5.36a5.63,5.63,0,0,0,.7,1.22,2.22,2.22,0,0,0,1.51.87,4.94,4.94,0,0,0,1.85-.49,22,22,0,0,0,2.89-1.63c.76-.56,1.82-1.43,3.21-2.56l2.32,2.12.11-.09-2-2.41L915,192.14l22.28,27.11Z"/><polygon class="cls-1" points="952.05 248.03 912.04 273.23 924.13 292.43 926.53 290.91 916.1 274.36 934.39 262.83 944.6 279.03 947 277.51 936.8 261.32 951.31 252.18 961.75 268.73 964.15 267.22 952.05 248.03"/><polygon class="cls-1" points="922.81 298.24 906.22 271.92 953.38 242.19 969.94 268.52 960.45 274.54 950 257.99 942.62 262.64 952.81 278.81 943.3 284.83 933.08 268.66 921.92 275.67 932.35 292.22 922.81 298.24"/><polygon class="cls-1" points="980.12 296.29 937.39 316.55 938.73 319.37 958.01 310.22 959.65 310.86 948.81 340.63 950.63 344.47 962.54 311.99 992.78 323 991.03 319.29 961.34 308.64 981.46 299.11 980.12 296.29"/><polygon class="cls-1" points="951.12 355.37 944.25 340.82 952.8 317.35 936.7 324.97 931.8 314.53 982.13 290.68 987.07 301.12 972.33 308.1 994.08 315.93 1001.02 330.47 965.06 317.41 951.12 355.37"/><path class="cls-1" d="M980.42,354.93a23.2,23.2,0,0,0-14.31,11.92,25,25,0,0,0,10.46,33.29,23.22,23.22,0,0,0,18.55,1.59A24.22,24.22,0,0,0,1011,371a23.73,23.73,0,0,0-12-14.52A23.45,23.45,0,0,0,980.42,354.93Zm1,3.11a21.28,21.28,0,0,1,16.5,1.2,21.74,21.74,0,0,1,9.1,28.95,21.27,21.27,0,0,1-12.85,10.43,21,21,0,0,1-16.37-1.24,21.56,21.56,0,0,1-9.09-28.95A21,21,0,0,1,981.39,358Z"/><path class="cls-1" d="M987.5,407.17a27.19,27.19,0,0,1-12.92-3.32,29.21,29.21,0,0,1-12.21-38.94,27.29,27.29,0,0,1,16.78-14h0a27.4,27.4,0,0,1,21.84,1.86,29.14,29.14,0,0,1,12.25,38.94,27.57,27.57,0,0,1-16.86,14A29.15,29.15,0,0,1,987.5,407.17Zm.85-46a19.06,19.06,0,0,0-5.7.9h0a16.78,16.78,0,0,0-10.25,8.34,17.33,17.33,0,0,0,7.24,23.19,18,18,0,0,0,23.65-7.42A17.58,17.58,0,0,0,996,363,17,17,0,0,0,988.35,361.16Z"/><polygon class="cls-1" points="1017.2 436.79 980.35 460.52 1022.18 473.61 985.09 482.85 985.5 485.94 1033.26 474.04 987.16 459.6 1027.77 433.43 978.57 434.65 978.99 437.74 1017.2 436.79"/><polygon class="cls-1" points="981.96 491.17 980.38 479.68 1006.59 473.13 970.5 461.85 1002.29 441.4 975.32 442.04 973.75 430.55 1042.67 428.84 997.02 458.27 1048.85 474.5 981.96 491.17"/><polygon class="cls-1" points="1024.39 523.39 983.89 540.12 1022.69 560.5 984.54 562.93 984.39 566.05 1033.51 562.92 990.75 540.43 1035.39 521.98 986.77 514.35 986.63 517.46 1024.39 523.39"/><polygon class="cls-1" points="979.99 570.57 980.47 558.97 1007.42 557.25 973.96 539.65 1008.9 525.23 982.23 521.04 982.77 509.46 1050.89 520.14 1000.69 540.9 1048.75 566.18 979.99 570.57"/><polygon class="cls-1" points="990.52 608.57 978.76 600.09 978.13 603.29 1020.28 633.73 1020.91 630.53 993.58 610.99 1026.82 600.91 1027.51 597.43 990.52 608.57"/><polygon class="cls-1" points="1023.13 641.02 973.48 605.13 975.88 592.82 991.29 603.93 1032.98 591.37 1030.47 604.19 1003 612.54 1025.58 628.71 1023.13 641.02"/><polygon class="cls-1" points="1012.12 663.6 967.41 648.16 966.4 651.11 989.45 659.07 980.1 686.14 957.05 678.18 956.03 681.13 1000.73 696.56 1001.75 693.62 982.79 687.07 992.13 659.99 1011.1 666.54 1012.12 663.6"/><polygon class="cls-1" points="1003.35 701.92 950.67 683.74 954.45 672.84 977.49 680.8 984.08 661.7 961.03 653.73 964.81 642.82 1017.47 660.97 1013.72 671.93 994.74 665.36 988.15 684.44 1007.1 690.99 1003.35 701.92"/><polygon class="cls-1" points="927.35 741.25 969.75 763.27 949.25 714.6 984.87 733.09 986.3 730.33 943.27 707.98 963.77 756.65 928.78 738.48 927.35 741.25"/><polygon class="cls-1" points="978.17 772.4 921.66 743.05 927 732.81 955.34 747.53 934.85 698.84 991.99 728.53 986.65 738.77 957.67 723.74 978.17 772.4"/><polygon class="cls-1" points="950.08 793.86 911.47 766.57 909.67 769.12 927.09 781.44 927.34 783.18 896.08 788.34 893.63 791.81 927.77 786.25 933.02 818.01 935.39 814.65 930.11 783.56 948.28 796.41 950.08 793.86"/><polygon class="cls-1" points="930.53 828.79 924.29 791.07 884.39 797.61 893.65 784.47 918.32 780.39 903.77 770.1 910.46 760.7 955.95 792.84 949.31 802.27 935.97 792.84 939.84 815.67 930.53 828.79"/><path class="cls-1" d="M855.43,835.44l49.19,18.39-22.48-47.57-2.3,2.51L887,823.9l-13.59,14.86-15.71-5.82-2.3,2.5Zm43.38,13-22.51-8.59,12.06-13.18Z"/><path class="cls-1" d="M912.86,861.43l-64.73-24.2,8.39-9.25,15.72,5.84L882,823.15,874.8,808l8.47-9.22ZM883.59,838.1l6.85,2.62-3.19-6.63Z"/><polygon class="cls-1" points="809.17 875.72 803.11 868.4 800.82 870.3 808.68 879.8 812.83 876.37 841.19 910.6 843.6 908.62 815.24 874.38 836.97 856.38 865.32 890.62 867.72 888.62 837.56 852.2 809.17 875.72"/><polygon class="cls-1" points="840.66 916.57 812.28 882.31 808.14 885.74 794.86 869.72 803.67 862.47 809.73 869.8 838.11 846.27 873.64 889.17 864.78 896.59 836.41 862.33 821.17 874.92 849.51 909.16 840.66 916.57"/><polygon class="cls-1" points="755.25 910.61 779.99 951.5 787.83 899.27 808.6 933.6 811.28 931.99 786.17 890.49 778.33 942.72 757.92 909 755.25 910.61"/><polygon class="cls-1" points="782.41 963.69 749.46 909.18 759.35 903.19 775.88 930.53 783.72 878.3 817.08 933.44 807.16 939.35 790.27 911.42 782.41 963.69"/><polygon class="cls-1" points="694.67 938.19 713 982.32 728.58 931.86 743.98 968.91 746.86 967.71 728.25 922.93 712.68 973.4 697.55 936.99 694.67 938.19"/><polygon class="cls-1" points="713.58 994.7 689.15 935.88 699.84 931.49 712.1 961.01 727.67 910.55 752.35 969.95 741.71 974.48 729.16 944.26 713.58 994.7"/><path class="cls-2" d="M630.55,989.45a90.07,90.07,0,0,1-9.13,39.66c-.63,1.3-1.3,2.59-2,3.85a90.57,90.57,0,0,1-158.85,0c-.69-1.26-1.36-2.54-2-3.84a90.55,90.55,0,1,1,172-39.66Z"/><path class="cls-1" d="M508.8,937.56c5-1,8.38,1.84,9.89,7.7a42,42,0,0,0,3.3,9.13c4.34,8.3,4.5,15.7-3.46,22.08-2.46,1.95-2.63,4.44-1.11,7.4,7.88,15.37,20.7,25.18,35.82,32.49,3.75,1.82,5.54-1.27,7.52-3.32,10.23-10.52,10.2-10.55,23.13-3.75,1.44.75,2.86,1.51,4.3,2.27,10.75,5.68,11.78,16.64,1.86,24.26-8.28,6.35-17.59,8.72-28.07,5.72-33.52-9.66-55.2-32.66-70.15-62.76-6.72-13.53-3.74-27.68,5.92-37.2C501.25,938.12,502.86,937.46,508.8,937.56Z"/><path class="cls-1" d="M570.83,1045.54a34.91,34.91,0,0,1-9.6-1.43c-31.37-9-54.87-30-71.82-64.13-7-14.08-4.53-29.52,6.45-40.31,4-4,6.1-5,12.7-4.83,6.3-.9,10.86,2.44,12.75,9.74a37.43,37.43,0,0,0,3.09,8.55c5.45,10.5,4.1,18.82-4.18,25.42-.94.76-1.66,1.63-.39,4.11,6.75,13.17,17.74,23.12,34.58,31.29,1.15.5,1.51.5,3.45-1.72l1-1.07c11.1-11.43,12.34-11.58,26.31-4.25l4.31,2.27c6,3.14,9.65,8.09,10.1,13.53s-2.31,11-7.86,15.27C585.11,1043,578.13,1045.51,570.83,1045.54ZM507.76,940.22c-4.47,0-5.4.58-8.1,3.29-9.27,9.1-11.35,22.16-5.43,34.08,16.25,32.67,38.66,52.74,68.49,61.35,9.19,2.7,17.61,1,25.68-5.27,4-3.08,6.09-6.83,5.79-10.5s-2.88-6.92-7.26-9.22l-4.29-2.27c-11.11-5.87-11.11-5.81-19.85,3.14l-.89,1c-1.67,1.89-4.77,5.41-9.83,3-18-8.73-29.72-19.43-37-33.71-3-5.73-.13-9.19,1.83-10.76,6.18-5,7-10.53,2.75-18.71a44.1,44.1,0,0,1-3.53-9.74c-1.75-6.69-5.41-5.9-6.78-5.7l-.55.06C508.4,940.25,508.06,940.22,507.76,940.22Z"/><path class="cls-1" d="M837.05,561.59H635.54a23.87,23.87,0,0,1,7.56,5.64c9.83,10.55,8.85,23.64-3.56,36.95-26.85,28.79-59,45.1-106.75,44.52-32.48.1-66.75-15.09-92.82-44.9-12-13.71-13.13-26.6-3.26-36.88a23.45,23.45,0,0,1,7.29-5.33H243a7.15,7.15,0,0,0-7.18,7.17c0,1,0,2,0,2.92C237.65,737.56,374.1,872.52,540,872.52s302.38-135,304.17-300.86v-.25c0-.88,0-1.76,0-2.65a7.18,7.18,0,0,0-7.18-7.17Zm-266.94,0a36.67,36.67,0,0,1-60.57,0H458.41q6.39,2.56,13.36,9.37c43.56,42.64,94,42.5,136.29-.29,4.33-4.38,8.62-7.41,12.79-9.08Zm283.35,9.94v.23A313.3,313.3,0,0,1,319.61,791c-59.08-58.49-92.12-136.35-93-219.23,0-1,0-2,0-3A16.39,16.39,0,0,1,243,552.33H837.05a16.46,16.46,0,0,1,16.44,16.43c0,.91,0,1.85,0,2.77Z"/><path class="cls-1" d="M532.86,840c98.93-1.75,176.44-36.82,240.19-105.11a130.46,130.46,0,0,0,9.78-11.92c8.53-11.68,9.86-24.36-.91-34.39s-22.58-7.73-32.46,3.46c-21.22,24-44.15,45.87-71.75,62C561.31,821.79,429,800.84,337.37,699.88c-16.73-18.43-28.11-21.84-39.44-11.83-11.59,10.22-10.36,24.88,6.23,43.55C367.77,803.24,447.29,837.66,532.86,840Z"/><path class="cls-1" d="M532.63,743.58c74.4.14,130.33-26.77,176.08-77.74,13.24-14.75,14.12-29.31,2.69-39.64-10.57-9.54-23.31-6.72-36.09,8-72.13,83-195,84.31-269,2.8-1.91-2.12-3.64-4.41-5.56-6.52-9.78-10.82-20.86-13.46-32.69-4.15-10.32,8.11-11,23.88-.91,35.71,27.59,32.2,60.61,56.31,100.25,69.86C490.84,739.92,514.85,744.33,532.63,743.58Z"/></g></svg>