<svg id="Layer_1" data-name="Layer 1" xmlns="http://www.w3.org/2000/svg" viewBox="0 0 1080 1080"><defs><style>.cls-1{fill:#3a60aa;}</style></defs><g id="_1429214516752" data-name=" 1429214516752"><path class="cls-1" d="M516.07,540.05c0,1.15,0,2.36,0,3.51s-.62,1.57-1.7,1.83c-6.45,1.36-8.14.05-8.13-6.39,0-58.43,0,24.67,0-33.77,0-4.92,0-4.92-5.07-4.92q-76.47,0-152.91.05a8.27,8.27,0,0,1-6.43-2.67C327.68,483.4,313.37,469.31,299.3,455c-3.4-3.5-6.06-5.28-11.5-3.35-9.17,3.26-19.36-1.83-23.92-10.57s-2.42-19.11,5.17-25.76a21.07,21.07,0,0,1,25.68-1.42c8.14,5.71,11.6,16.29,7.68,25.09-1.29,2.92-.62,4.4,1.29,6.28q21.53,21.36,42.91,42.83a6.74,6.74,0,0,0,5.28,2.09c26.07,0,52.14,0,78.21,0,.88,0,2.09.52,2.56-.47.56-1.26-.77-1.83-1.46-2.51-12.73-12.73-25.5-25.4-38.17-38.18-1.78-1.83-3.18-1.93-5.48-1a21.13,21.13,0,0,1-23.4-34,21.31,21.31,0,0,1,26.9-3.35A21,21,0,0,1,399,436.75c-.78,1.77-.94,3,.63,4.6q23.63,23.49,47.11,47.08a5.06,5.06,0,0,0,4,1.72c6.9,0,13.8-.15,20.69.05,2.9.06,3.58-1.1,3.55-3.71-.1-10.89-.08-21.73,0-32.62a6.64,6.64,0,0,0-2.27-5.19q-35.28-35.18-70.39-70.42a8.84,8.84,0,0,0-7-2.94c-21.51.06-43-.05-64.53.11a9.86,9.86,0,0,1-7.93-3.35c-12.06-12.2-24.3-24.24-36.37-36.5a4.81,4.81,0,0,0-5.51-1.36,20,20,0,0,1-18-2.93,21.17,21.17,0,1,1,30.66-7.17c-1.17,2.14-1.09,3.35.64,5.07q16.73,16.5,33.23,33.2a8.93,8.93,0,0,0,7.05,2.93c21.4-.1,42.79,0,64.18-.15a10.68,10.68,0,0,1,8.28,3.4q37.56,37.79,75.34,75.4a8.58,8.58,0,0,1,2.83,6.76c-.14,11.88,0,23.82-.14,35.76,0,3,.95,3.82,3.81,3.66a132.62,132.62,0,0,1,13.67.05c3,.16,3.79-1,3.77-3.82-.1-14.87-.09-29.68,0-44.56a6.7,6.7,0,0,0-2.25-5.18Q485.17,418,466.52,399.2q-50.43-50.43-100.9-100.8a7.51,7.51,0,0,1-2.38-5.86c.08-13.09-.09-26.23.09-39.32,0-3.3-.64-5.08-4-6.54a21,21,0,0,1,9.05-40.16A21.11,21.11,0,0,1,388.87,223a20.73,20.73,0,0,1-12.11,23.87c-2.95,1.26-3.64,2.83-3.62,5.71.1,12,0,24.08,0,36.13a6,6,0,0,0,1.7,4.71q40.35,40.22,80.61,80.53c.7.69,1.34,2,2.42,1.63,1.33-.53.72-2.05.73-3.14.05-7.39-.05-14.72.09-22.1a8.11,8.11,0,0,0-2.7-6.45c-12.46-12.35-24.8-24.81-37.24-37.11a7.09,7.09,0,0,1-2.31-5.56c.1-5.28-.11-10.53.05-15.81.09-2.56-.76-3.87-3.23-4.92a21,21,0,0,1-12.43-24.71,21.18,21.18,0,0,1,41.32,1.15,20.87,20.87,0,0,1-12.42,23.46c-2.66,1-3.59,2.4-3.45,5.12.2,3.72.16,7.49,0,11.21a7.2,7.2,0,0,0,2.48,5.86c12.47,12.31,24.79,24.77,37.28,37.08a8.69,8.69,0,0,1,2.79,6.8c-.12,12.36,0,24.77-.11,37.18a8.11,8.11,0,0,0,2.72,6.39c13.94,13.82,27.75,27.8,41.73,41.57a9.09,9.09,0,0,1,2.89,6.08Q516.07,488.84,516.07,540.05Z"/><path class="cls-1" d="M573.81,452.24v54.3c0-1.41.09-2.83.11-4.24s.77-2,2.21-2c1,.05,2.11,0,3.16,0q76.28,0,152.56.05a8.22,8.22,0,0,0,6.39-2.77C753.46,482.24,768.81,467,784,451.67c1.77-1.79,3.07-1.57,5.16-.74a21.13,21.13,0,0,0,23.52-5,21.27,21.27,0,0,0-16-35.76,21,21,0,0,0-18.8,29.48c.89,2.05.61,3.3-1,4.87q-21.8,21.6-43.4,43.41a7.11,7.11,0,0,1-5.52,2.3c-26.08-.1-52.14-.05-78.21-.1-.89,0-2.14.57-2.61-.37-.63-1.26.83-1.78,1.49-2.41,12.6-12.67,25.27-25.29,37.85-38,1.85-1.89,3.4-2.41,6.07-1.37a20.78,20.78,0,0,0,24.31-6.27,21.19,21.19,0,1,0-37.69-14.61,18.43,18.43,0,0,0,1.74,9.58c1.06,2.2.57,3.51-1.06,5.12q-23.35,23.26-46.6,46.61a5.46,5.46,0,0,1-4.33,1.78c-6.9,0-13.8-.11-20.7,0-2.47.05-3.26-.79-3.24-3.25.08-11.2.06-22.41,0-33.66A5.57,5.57,0,0,1,607,449q36-36,71.86-71.94c1.51-1.52,3.17-1.67,5.09-1.67,22.09,0,44.19-.06,66.28.05a7.79,7.79,0,0,0,6.15-2.51c12.25-12.37,24.63-24.61,36.86-37,1.85-1.89,3.38-2.42,6-1.63,11.69,3.46,23.42-3.62,26.32-15.6,2.77-11.52-4.84-23.15-16.67-25.56-11.57-2.3-22.86,5.77-24.87,17.65a21,21,0,0,0,2.6,13.82c1,1.78.82,2.83-.56,4.19q-17.52,17.44-34.93,35c-1.53,1.52-3.3,1.47-5.16,1.47q-33,0-65.94-.06a7.82,7.82,0,0,0-6.13,2.52q-37.6,37.77-75.39,75.35a11.08,11.08,0,0,0-3.66,8.85c.22,11.67,0,23.4.13,35.08,0,2.46-.74,3.24-3.18,3.14-5-.16-10.06-.16-15.08.05-2.36.05-3-.79-3-3q.12-22.77,0-45.6c0-2.26,1-3.66,2.47-5.14q35-34.86,69.92-69.9Q679.74,333,713.39,299.4a10.39,10.39,0,0,0,3.41-8.23c-.2-12.77,0-25.49-.14-38.22,0-3.19.74-4.92,4-6.23,8.87-3.66,13.75-13.5,12-23a21.18,21.18,0,1,0-28.82,23.46c2.46,1,3,2.36,3,4.72q-.11,18.36,0,36.8a6.82,6.82,0,0,1-2.2,5.24q-40,39.9-79.92,79.74c-.76.79-1.36,2.36-2.68,1.78s-.65-2.09-.66-3.19c-.06-7.59,0-15.19-.06-22.77a6.43,6.43,0,0,1,2.08-5C636,332,648.48,319.4,661.1,306.94a7.45,7.45,0,0,0,2.44-5.87c-.12-5.34.06-10.73,0-16.13,0-2.29.75-3.45,3-4.4,9.29-3.71,14.16-12.3,13-22.45a21,21,0,0,0-17.15-18,21.41,21.41,0,0,0-23.73,13.72c-3.48,10.17.77,21.52,10.4,25.82,4,1.78,4.38,4.13,4.8,7.91,1,8.95-2,15.29-8.73,21.3-10.77,9.69-20.61,20.37-30.94,30.53a8.53,8.53,0,0,0-2.84,6.75c.1,12.89,0,25.72,0,38.59a6.06,6.06,0,0,1-2.11,4.56c-14.16,14.09-28.26,28.28-42.45,42.36a8.52,8.52,0,0,0-2.91,6.65c.07,81.37,0,21.15.1,102.53,0,1.46-1,3.77,1.13,4.29a12.48,12.48,0,0,0,7.92-.26c1.41-.58.75-2.52.75-3.88q0-35.58,0-71.21V452.24Z"/><path class="cls-1" d="M545,405.11c0-45.23,0,51.11-.05,5.87a7.83,7.83,0,0,1,2.56-6.13c11.32-11.15,22.5-22.46,33.8-33.61A7.87,7.87,0,0,0,583.7,365c-.15-9.11-.07-18.22-.12-27.33a6.58,6.58,0,0,1,2.1-5c13-12.83,25.81-25.76,38.75-38.59a7.28,7.28,0,0,0,2.35-5.55c-.09-20.47,0-40.94-.13-61.37,0-3.55.65-5.49,4.28-7.06,10.69-4.77,14.81-17.86,9.55-28.59-4.94-10.06-17.91-14.29-28.27-9.21a21.1,21.1,0,0,0-9.71,28.06A20.27,20.27,0,0,0,614.09,221a3.28,3.28,0,0,1,2.51,3.62q-.06,30.32,0,60.63a5.24,5.24,0,0,1-1.7,4c-9.46,9.37-18.86,18.79-28.3,28.22-.64.63-1.19,1.78-2.22,1.41s-.76-1.62-.76-2.51c0-17.17.11-34.35-.08-51.53,0-3.5,2.26-3.86,4.37-4.92A21.12,21.12,0,1,0,558,236.42a20.79,20.79,0,0,0,12.49,24c2.46,1,3.26,2.3,3.26,4.92q-.13,47.67,0,95.4a7.84,7.84,0,0,1-2.35,6.23c-7.79,7.59-15.4,15.34-23.13,23-.75.74-1.29,2.36-2.69,1.73-1.12-.47-.59-1.88-.59-2.88q0-103.27-.08-206.56c0-2.57.93-3.61,3.23-4.55,9.41-3.77,14.5-13.52,12.62-23.67a21.19,21.19,0,0,0-41.23-1.26,20.81,20.81,0,0,0,12.12,24.77c2.81,1.2,3.47,2.72,3.46,5.5q-.09,102.72-.05,205.51c0,1.1.64,2.62-.73,3.14-1.07.37-1.7-1-2.42-1.73-7.8-7.69-15.56-15.5-23.43-23.14a7.19,7.19,0,0,1-2.23-5.6q.09-47.67,0-95.41c0-2.77.62-4.29,3.48-5.44A21.07,21.07,0,0,0,522,236.15a21.33,21.33,0,0,0-22.09-16.23c-10,.42-18.09,8.06-19.5,18.27a20.58,20.58,0,0,0,12.74,22.26c2.52,1,3.29,2.3,3.28,4.92-.1,16.81-.06,33.66-.09,50.47,0,1.1.54,2.62-.83,3.1-1.05.36-1.73-1-2.45-1.74-9.19-9.11-18.31-18.32-27.53-27.49a6.7,6.7,0,0,1-2.21-5.23q.1-29.22,0-58.54c0-2.62.57-4.13,3.29-5.24a20.93,20.93,0,0,0,12.8-22.35c-1.16-9.16-8.23-16.24-18-18-8.74-1.57-17.7,3.14-22,11.57-5.43,10.52-.54,23.93,10.7,28.69,2.45,1,3.26,2.25,3.24,4.87-.09,20.95,0,41.83-.08,62.78a7.52,7.52,0,0,0,2.44,5.87c12.77,12.67,25.45,25.44,38.24,38.12a7.89,7.89,0,0,1,2.52,6.18c-.11,8.79.09,17.53-.1,26.33a8.77,8.77,0,0,0,3,7c11.13,11,22.13,22.14,33.29,33.14a7.74,7.74,0,0,1,2.49,6.18c-.06,13.66,0,27.33,0,41V538.9c0,1.26.06,2.56,0,3.87-.09,1.94.8,2.67,2.72,2.63,8.46-.11,7.14.78,7.15-6.66Q545,472,545,405.12h0Z"/><path class="cls-1" d="M540,3.46C255.84,3.46,24.67,234.67,24.67,518.85c0,256.63,188.57,470.06,434.45,509l4.29.66c-.71-1.24-1.39-2.51-2-3.79-1.39-.21-2.78-.43-4.16-.66C214.18,984.36,28.1,772.92,28.1,518.85,28.1,236.57,257.74,6.9,540,6.9s511.88,229.65,511.88,511.94h0c0,254.07-186.06,465.51-429.1,505.19-1.38.23-2.77.45-4.16.66-.64,1.28-1.32,2.55-2,3.79,1.43-.21,2.85-.43,4.28-.66,245.86-38.91,434.45-252.35,434.45-509h0C1055.33,234.65,824.15,3.46,540,3.46Z"/><path class="cls-1" d="M540,893.49A91.5,91.5,0,0,0,457.22,1024c.6,1.28,1.23,2.54,1.9,3.79a91.51,91.51,0,0,0,161.76,0c.67-1.25,1.31-2.51,1.91-3.79A91.5,91.5,0,0,0,540,893.49Zm78.63,131.21c-.64,1.28-1.32,2.55-2,3.79a88.07,88.07,0,0,1-153.19,0c-.71-1.24-1.39-2.51-2-3.79a88.1,88.1,0,1,1,157.25,0Z"/><path class="cls-1" d="M363.84,978.23a24.16,24.16,0,1,0,17.49-45,23,23,0,0,0-16.66-.27l-1.49,3.8a20.51,20.51,0,0,1,9-2.2,19.72,19.72,0,0,1,14.54,5.31,21.63,21.63,0,0,1,4.84,6.13,18.12,18.12,0,0,1,2.29,8.07,20.73,20.73,0,0,1-1.51,9.23,21.23,21.23,0,0,1-11.19,12,20.05,20.05,0,0,1-16.23.36,20.76,20.76,0,0,1-7.43-5,22.34,22.34,0,0,1-4.61-7.7l-1.49,3.8a22.08,22.08,0,0,0,12.43,11.45Z"/><path class="cls-1" d="M372.92,984.11A28.79,28.79,0,0,1,362.37,982h0a26,26,0,0,1-14.65-13.53l-.73-1.58,6-15.56,3.71,10.23a18.16,18.16,0,0,0,3.78,6.33,16.31,16.31,0,0,0,5.91,3.9,16,16,0,0,0,13-.28,17,17,0,0,0,9.09-9.77,16.28,16.28,0,0,0,1.23-7.41A14.15,14.15,0,0,0,388,948a17.61,17.61,0,0,0-4-5.13,16.74,16.74,0,0,0-5.06-3.21,15.32,15.32,0,0,0-6.65-1.06,16.39,16.39,0,0,0-7.32,1.78L355.57,945l6-15.28,1.74-.64a26.74,26.74,0,0,1,19.54.3,27.73,27.73,0,0,1,15.91,15.15,28.28,28.28,0,0,1-14.64,37.17A27.82,27.82,0,0,1,372.92,984.11Z"/><polygon class="cls-1" points="301.89 892.67 277.36 933.24 326.86 916.07 306.26 950.14 308.91 951.73 333.8 910.57 284.3 927.73 304.54 894.27 301.89 892.67"/><polygon class="cls-1" points="310.3 957.33 300.64 951.53 317.51 923.63 268.03 940.8 300.5 887.04 310.13 892.89 293.64 920.17 343.15 903 310.3 957.33"/><path class="cls-1" d="M222.18,890.84a24.13,24.13,0,0,0,34.24-2.31,23.2,23.2,0,0,0,5.86-17.45,23.71,23.71,0,0,0-8.51-16.81,23,23,0,0,0-15.62-5.83l-2.67,3.08a20.69,20.69,0,0,1,21.15,10.82,22,22,0,0,1,2.51,7.41,18.13,18.13,0,0,1-.56,8.37,20.74,20.74,0,0,1-4.5,8.19,21.3,21.3,0,0,1-14.58,7.55,20,20,0,0,1-15.41-5.1,20.51,20.51,0,0,1-5.34-7.15,22.39,22.39,0,0,1-1.77-8.8l-2.67,3.08A22,22,0,0,0,222.18,890.84Z"/><path class="cls-1" d="M238,901a27.44,27.44,0,0,1-18.45-7.07h0a26.11,26.11,0,0,1-9.27-17.64l-.15-1.74L221,861.92l0,10.87a18.2,18.2,0,0,0,1.44,7.21,16.35,16.35,0,0,0,4.25,5.68,15.75,15.75,0,0,0,12.38,4.11A17.33,17.33,0,0,0,251,883.64a16.67,16.67,0,0,0,3.64-6.57,14.16,14.16,0,0,0,.5-6.57,18.47,18.47,0,0,0-2.09-6.21,15.65,15.65,0,0,0-9.59-7.93,16.89,16.89,0,0,0-7.49-.78l-10.49,1.26,10.81-12.47h2a26.94,26.94,0,0,1,18.16,6.83,27.64,27.64,0,0,1,9.91,19.6,28.27,28.27,0,0,1-26.26,30.11Q239,901,238,901Z"/><polygon class="cls-1" points="165.72 831.01 183.5 851.89 185.65 850.06 177.75 840.8 211.32 812.2 209.31 809.85 175.75 838.45 167.86 829.18 165.72 831.01"/><polygon class="cls-1" points="183.05 857.65 159.98 830.56 168.32 823.42 176.22 832.68 209.76 804.11 217.09 812.66 183.51 841.26 191.39 850.51 183.05 857.65"/><polygon class="cls-1" points="141.46 797.96 180.85 772.5 168.64 753.6 166.28 755.13 176.81 771.43 158.79 783.07 148.49 767.12 146.12 768.65 156.43 784.6 142.13 793.83 131.6 777.53 129.24 779.06 141.46 797.96"/><polygon class="cls-1" points="140.25 803.6 123.59 777.83 132.81 771.9 143.35 788.18 150.78 783.39 140.47 767.42 149.7 761.49 160.01 777.42 171.16 770.22 160.63 753.92 169.85 747.95 186.5 773.72 140.25 803.6"/><polygon class="cls-1" points="112.86 729.92 141.76 697.43 98.3 696.07 131.28 677.36 130.06 674.52 87.59 698.61 135.49 700.13 103.67 735.95 150.35 721.68 149.13 718.84 112.86 729.92"/><polygon class="cls-1" points="90.94 744.1 126.65 703.93 72.93 702.23 132 668.71 136.48 679.11 112.97 692.44 150.62 693.61 125.58 721.76 151.46 713.85 155.88 724.26 90.94 744.1"/><path class="cls-1" d="M116.07,625.16c-1.12-5-3.25-8.42-6.4-10.31a14.06,14.06,0,0,0-10.43-1.51q-12.55,2.8-9,18.59l1.77,8-19.71,4.38.68,3,45.79-10.18-2.65-11.94Zm-22.95,7c-.9-4-1.06-7-.56-9Q94,617.83,100,616.5c3.36-.75,6.11-.35,8.39,1.16,2.46,1.62,4.23,4.75,5.25,9.35l1.71,7.7-20.59,4.57Zm18.49-27-.68-3L65.14,612.28l.68,3Z"/><path class="cls-1" d="M69.83,652.17l-2.45-11,19.71-4.39-.88-4c-2.08-9.35-.14-15.06,3.07-18.54l-26.56,5.9-2.46-11L114,597.23l2.52,11-7.75,1.72a19,19,0,0,1,2.93,1.38c4.19,2.49,7,6.84,8.35,13h0l3.54,15.93ZM97.1,631.25l.7,3.16,12.62-2.81-.82-3.7c-.76-3.46-2-5.82-3.5-6.83-.85-.54-2.26-1.18-5.28-.59s-3.93,2.27-4.33,3.7c-.14.55-.39,2.51.61,7.07Z"/><polygon class="cls-1" points="106 481.96 58.67 479.39 97.1 515 57.35 512.85 57.18 515.94 105.22 518.54 66.79 482.93 105.83 485.05 106 481.96"/><polygon class="cls-1" points="116.29 523.22 52.85 519.8 53.53 508.55 86.03 510.31 47.61 474.7 110.3 478.1 109.69 489.35 77.86 487.62 116.29 523.22"/><polygon class="cls-1" points="65.86 432.17 111.6 442.57 112.28 439.56 88.7 434.19 95 406.49 118.59 411.86 119.27 408.84 73.54 398.43 72.85 401.44 92.26 405.87 85.95 433.57 66.55 429.15 65.86 432.17"/><polygon class="cls-1" points="114.66 447.47 60.98 435.24 63.48 424.26 82.88 428.68 87.37 408.94 67.96 404.51 70.47 393.54 124.17 405.77 121.66 416.75 98.07 411.37 93.58 431.12 117.17 436.47 114.66 447.47"/><path class="cls-1" d="M140.47,348.82l-6.09-2.58.77-1.81a31.61,31.61,0,0,0,2.4-8.7,18.59,18.59,0,0,0-.36-6.87,16.46,16.46,0,0,0-2.5-5.27,17.26,17.26,0,0,0-3.72-3.8,22.47,22.47,0,0,0-4.22-2.33,23.37,23.37,0,0,0-4.66-1.45,17.73,17.73,0,0,0-5.26,0,16.44,16.44,0,0,0-5.53,1.86,18.79,18.79,0,0,0-5.2,4.51,31.57,31.57,0,0,0-4.6,7.75l-.77,1.81-5.17-2.2-1.22,2.84,5.18,2.21-.78,1.81a30.86,30.86,0,0,0-2.36,8.62,19.24,19.24,0,0,0,.33,6.94,17.46,17.46,0,0,0,6.2,9,22.08,22.08,0,0,0,4.24,2.42,22.41,22.41,0,0,0,4.62,1.36,17.18,17.18,0,0,0,10.82-1.74,19.42,19.42,0,0,0,5.24-4.57,31.47,31.47,0,0,0,4.57-7.69l.77-1.81,6.09,2.58,1.21-2.85Zm-10.71,1.11a23.69,23.69,0,0,1-4.84,7.57,12.28,12.28,0,0,1-5.72,3.76,16.78,16.78,0,0,1-5.6.6,16.11,16.11,0,0,1-5.18-1.3,15.43,15.43,0,0,1-8-7.29,13,13,0,0,1-1.34-6.76,25.62,25.62,0,0,1,2.18-8.7l.82-1.94L130.58,348l-.82,1.95Zm-25.61-18.85a26,26,0,0,1,4.79-7.67,13.06,13.06,0,0,1,5.76-3.66,17.2,17.2,0,0,1,5.54-.63,16.75,16.75,0,0,1,5.25,1.32,15.87,15.87,0,0,1,4.52,2.84,16.62,16.62,0,0,1,3.46,4.45,12.52,12.52,0,0,1,1.29,6.66,24.48,24.48,0,0,1-2.14,8.8l-.83,1.95L103.32,333l.83-1.94Z"/><path class="cls-1" d="M114.53,369.25a18.33,18.33,0,0,1-3.52-.34,25.72,25.72,0,0,1-5.43-1.6,27.11,27.11,0,0,1-5-2.85,20.28,20.28,0,0,1-4.65-4.77,19.32,19.32,0,0,1-3.13-6.5,23.09,23.09,0,0,1-.44-8.46,34.64,34.64,0,0,1,1.89-7.79L89,334.72l4.41-10.35,5.22,2.21a33.73,33.73,0,0,1,4.34-6.83,22.93,22.93,0,0,1,6.35-5.47A20.39,20.39,0,0,1,116.2,312a21.93,21.93,0,0,1,6.61,0,26.27,26.27,0,0,1,5.54,1.7,26.57,26.57,0,0,1,5,2.77,21.16,21.16,0,0,1,7.8,11.36,23,23,0,0,1,.45,8.37,32.72,32.72,0,0,1-1.91,7.85l6.12,2.62L141.4,357l-6.12-2.6a34.12,34.12,0,0,1-4.3,6.77,23.06,23.06,0,0,1-6.4,5.52,18.65,18.65,0,0,1-7,2.29A19.44,19.44,0,0,1,114.53,369.25Zm-10.21-28a19.62,19.62,0,0,0-1.14,5.45,9.12,9.12,0,0,0,.82,4.56,13.3,13.3,0,0,0,2.56,3.41A12.86,12.86,0,0,0,110,356.8a12.32,12.32,0,0,0,3.89,1,15.43,15.43,0,0,0,4.25-.47,8.61,8.61,0,0,0,3.78-2.59,18.4,18.4,0,0,0,3.24-4.61Zm4.41-10.36,20.84,8.87a18.62,18.62,0,0,0,1.1-5.49,8.37,8.37,0,0,0-.79-4.55,12.29,12.29,0,0,0-2.59-3.4,11.35,11.35,0,0,0-3.4-2.12,12.27,12.27,0,0,0-4-1,13.46,13.46,0,0,0-4.19.5,9.25,9.25,0,0,0-3.88,2.58A20.79,20.79,0,0,0,108.73,330.89Z"/><path class="cls-1" d="M146.79,283.88a23,23,0,0,0,18.1,3.7,24.78,24.78,0,0,0,19.3-28.72,23,23,0,0,0-10.26-15.36,24,24,0,0,0-33.66,6.69,23.55,23.55,0,0,0-3.81,18.29,23.24,23.24,0,0,0,10.33,15.4Zm1.79-2.68a21.11,21.11,0,0,1-9.29-13.53,21.56,21.56,0,0,1,16.79-25,21.06,21.06,0,0,1,16,3.49,20.8,20.8,0,0,1,9.18,13.45,21.38,21.38,0,0,1-16.79,25A20.76,20.76,0,0,1,148.58,281.2Z"/><path class="cls-1" d="M160,292.19a27.47,27.47,0,0,1-15.47-4.91h0a28.42,28.42,0,1,1,31.7-47.17,27,27,0,0,1,12,18,28.86,28.86,0,0,1-22.53,33.5A28,28,0,0,1,160,292.19Zm.07-45.77a19,19,0,0,0-3.24.28,17.52,17.52,0,0,0-13.51,20.14,17,17,0,0,0,7.58,11h0a16.69,16.69,0,0,0,12.9,2.79,17.32,17.32,0,0,0,13.53-20.13,16.63,16.63,0,0,0-7.46-10.9A17.2,17.2,0,0,0,160,246.42Z"/><path class="cls-1" d="M211.85,196.66a11.48,11.48,0,0,0-4.07-8.93c-2.82-2.64-5.89-3.79-9.26-3.38a15,15,0,0,0-9.05,5l-6.2,6.62,34.22,32.08,2.12-2.26-16.26-15.25,4.13-4.41c2.84-3,4.28-6.21,4.37-9.49Zm-20.51-5.16c2.3-2.46,4.75-3.84,7.28-4.07a9.95,9.95,0,0,1,10.11,9.48,10.56,10.56,0,0,1-3.2,7.22l-4.24,4.51-13.85-13Z"/><path class="cls-1" d="M217.68,233.84,177.5,196.17l9-9.59a19.27,19.27,0,0,1,11.5-6.27q6.95-.83,12.6,4.45a15.45,15.45,0,0,1,5.35,12h0c-.11,4.31-2,8.39-5.46,12.15l-1.35,1.44,16.26,15.25ZM193.2,195.46l7.9,7.41,1.44-1.53c1.87-2,2.1-3.5,2.1-4.45a4.67,4.67,0,0,0-1.82-3.78c-1.7-1.59-2.89-1.7-3.82-1.6-1.5.12-3.08,1.07-4.7,2.78Z"/><polygon class="cls-1" points="239.78 154.16 278.36 174.21 269.04 131.75 295.25 159.15 297.71 157.27 263.96 122 274.21 168.8 231.69 146.71 256.95 188.49 259.41 186.61 239.78 154.16"/><polygon class="cls-1" points="255.83 194.52 220.68 136.38 268.35 161.16 256.86 108.67 303.81 157.73 294.83 164.62 276.15 145.1 284.22 181.86 250.8 164.49 264.79 187.62 255.83 194.52"/><path class="cls-1" d="M361.46,121.61,322,87.62l4.62,52,3-1.55-1.52-16.56,17.75-9.16,12.64,10.81,3-1.55ZM325.52,94.66l18,15.7-15.75,8.14Z"/><path class="cls-1" d="M323.05,146.05,317,78l51.7,44.48-10.82,5.59-12.63-10.82-12.87,6.65,1.5,16.56Zm7.52-41.59.72,7.63,5-2.6Z"/><polygon class="cls-1" points="428.15 97.06 431.08 106.02 433.88 105.1 430.08 93.47 425 95.13 411.29 53.22 408.35 54.19 422.06 96.09 395.46 104.79 381.75 62.88 378.81 63.85 393.39 108.43 428.15 97.06"/><polygon class="cls-1" points="390.79 113.58 373.65 61.25 384.35 57.72 398.07 99.64 416.91 93.49 403.2 51.56 413.91 48.08 427.62 89.98 432.69 88.32 439.02 107.68 428.48 111.19 425.55 102.22 390.79 113.58"/><polygon class="cls-1" points="500.71 83.32 493.86 36.43 466.56 81.14 460.8 41.76 457.74 42.2 464.7 89.8 492 45.09 497.66 83.77 500.71 83.32"/><polygon class="cls-1" points="462.29 101.57 453.11 38.73 464.25 37.14 468.96 69.36 496.26 24.63 505.34 86.77 494.2 88.4 489.6 56.86 462.29 101.57"/><path class="cls-1" d="M538.59,57.42A23,23,0,0,0,545,74.76,24.79,24.79,0,0,0,579.59,76a23,23,0,0,0,7.64-16.82,23.29,23.29,0,0,0-6.42-17.4,24.33,24.33,0,0,0-42.22,15.66Zm3.23.12a21.18,21.18,0,0,1,6.59-15,21.59,21.59,0,0,1,30.08,1.07A21.12,21.12,0,0,1,584,59a20.78,20.78,0,0,1-6.58,14.9,21.39,21.39,0,0,1-30.08-1.07A20.83,20.83,0,0,1,541.82,57.54Z"/><path class="cls-1" d="M563.08,86.5h-1.17A27.62,27.62,0,0,1,542,77.54a27,27,0,0,1-7.52-20.26,28.42,28.42,0,1,1,56.81,2A28.09,28.09,0,0,1,563.08,86.5ZM545.9,57.69a16.65,16.65,0,0,0,4.45,12.42,16,16,0,0,0,11.94,5.39A14.8,14.8,0,0,0,574.57,71a16.65,16.65,0,0,0,5.34-12.1,17.07,17.07,0,0,0-4.46-12.59A16.1,16.1,0,0,0,563.53,41a15.37,15.37,0,0,0-12.32,4.47A17,17,0,0,0,545.9,57.69Z"/><polygon class="cls-1" points="633.1 41.87 623.19 87.72 626.21 88.38 631.32 64.73 659.1 70.74 653.98 94.39 657 95.04 666.92 49.19 663.89 48.54 659.69 67.99 631.92 61.98 636.12 42.53 633.1 41.87"/><polygon class="cls-1" points="660.13 99.88 649.12 97.53 654.24 73.87 634.44 69.59 629.34 93.22 618.33 90.87 629.96 37.01 640.96 39.41 636.78 58.86 656.57 63.12 660.76 43.67 671.78 46.08 660.13 99.88"/><polygon class="cls-1" points="712.46 63.1 695.05 106.67 697.93 107.81 706.9 85.34 733.29 95.88 724.31 118.35 727.18 119.5 744.59 75.93 741.72 74.79 734.33 93.27 707.95 82.73 715.33 64.25 712.46 63.1"/><polygon class="cls-1" points="729.45 124.82 719.02 120.61 727.98 98.16 709.18 90.66 700.21 113.11 689.75 108.95 710.2 57.77 720.62 61.98 713.25 80.45 732.05 87.97 739.43 69.47 749.89 73.67 729.45 124.82"/><path class="cls-1" d="M773,115.91a23.07,23.07,0,0,0-3.09,18.23,24.8,24.8,0,0,0,29.36,18.31,23,23,0,0,0,15-10.77A24.33,24.33,0,1,0,773,115.91Zm2.74,1.71a21.14,21.14,0,0,1,13.21-9.74,21.58,21.58,0,0,1,25.54,15.93A21.19,21.19,0,0,1,811.52,140a20.83,20.83,0,0,1-13.14,9.63,21.41,21.41,0,0,1-25.54-15.94A20.79,20.79,0,0,1,775.71,117.62Z"/><path class="cls-1" d="M793.67,157.2a27.91,27.91,0,0,1-15-4.48,27.51,27.51,0,0,1-12.77-17.66,27.06,27.06,0,0,1,3.59-21.31h0a28.42,28.42,0,1,1,48.22,30.11,27.18,27.18,0,0,1-17.59,12.59A28.26,28.26,0,0,1,793.67,157.2Zm-14.5-37.42a16.74,16.74,0,0,0-2.35,13,17.35,17.35,0,0,0,20.58,12.88A16.76,16.76,0,0,0,808,137.81a17,17,0,0,0,2.41-13.14,17.47,17.47,0,0,0-20.57-12.82,17,17,0,0,0-10.71,7.93Z"/><path class="cls-1" d="M858.19,209l31.92-35-51.88,7.25L865,151.73l-2.28-2.08-32.4,35.55L882.24,178l-26.34,28.9Zm17.33-54.42a12.35,12.35,0,0,0,3.16,4.78,12.8,12.8,0,0,0,5.11,2.75,9,9,0,0,0,6.2-.54l-.93-2.64c-3,1.34-5.83.76-8.48-1.65s-3.48-5.16-2.43-8.3l-2.72-.67a8.82,8.82,0,0,0,.09,6.27Z"/><path class="cls-1" d="M858.46,214.71l-8.33-7.57,21.47-23.56-51.88,7.22,42.76-46.91,8.33,7.58-21.95,24.08,51.88-7.24Zm27.65-48.24a12.6,12.6,0,0,1-3.42-.48,16.47,16.47,0,0,1-6.76-3.68,16,16,0,0,1-4.2-6.28,12.82,12.82,0,0,1-.18-9l1.18-3.61L883.42,146l-1.4,4.2c-.43,1.32-.38,2.45,1.3,4s2.83,1.49,4.1.94l4.05-1.8,3.61,10.42-3.47,1.51A13.65,13.65,0,0,1,886.11,166.47Z"/><path class="cls-1" d="M918.45,284c2.78,4.32,6,6.79,9.57,7.47a14.1,14.1,0,0,0,10.3-2.19c7.21-4.64,7.89-11.52,2.07-20.57L936,261.8l14.61-9.4,10.53,16.38,2.38-1.52-12.22-19-39.46,25.38Zm19.12-14.48c2.21,3.43,3.39,6.18,3.65,8.27q.49,5.46-4.65,8.77c-2.9,1.86-5.62,2.44-8.28,1.81-2.86-.67-5.61-3-8.16-7l-4.26-6.62,17.74-11.42Z"/><path class="cls-1" d="M930.44,295.72a17.27,17.27,0,0,1-3.11-.27c-4.82-.93-8.93-4-12.32-9.29l-8.83-13.73,46.33-29.8,16.63,25.85-9.24,5.95-10.55-16.38-7.73,5,2.2,3.43c3.41,5.29,4.93,10.18,4.49,14.54-.48,4.72-3.08,8.64-7.77,11.66A18.55,18.55,0,0,1,930.44,295.72ZM921.51,276l2.06,3.18c1.91,3,3.87,4.79,5.66,5.22.94.22,2.58.32,5.14-1.29s2.92-3.47,2.77-4.94c-.08-.75-.61-2.73-3-6.45l-1.75-2.7Z"/><polygon class="cls-1" points="987.02 310.13 944.43 329.78 953.86 350.22 956.41 349.05 948.28 331.42 967.75 322.43 975.71 339.67 978.27 338.49 970.31 321.25 985.77 314.12 993.9 331.75 996.45 330.57 987.02 310.13"/><polygon class="cls-1" points="951.88 355.64 939 327.79 989.03 304.71 1001.86 332.55 991.91 337.17 983.76 319.54 975.73 323.25 983.69 340.5 973.71 345.07 965.76 327.86 953.71 333.42 961.82 351.02 951.88 355.64"/><path class="cls-1" d="M1013.83,385.35a8.72,8.72,0,0,1-.54,7.27,8.53,8.53,0,0,1-5.18,3.82,8.78,8.78,0,0,1-7.32-.69,9.24,9.24,0,0,1-4.35-5.52l-1.21-4-2.69.8,1.2,4c1.1,3.71,1.11,6.94,0,9.61a9.45,9.45,0,0,1-6.41,5.36c-3.84,1.14-7.05.71-9.71-1.29a13.38,13.38,0,0,1-4.66-7,14.43,14.43,0,0,1-.05-7.83,12.56,12.56,0,0,1,4.48-7.14l-2.2-2.43a17.94,17.94,0,0,0-5,7.73,16.64,16.64,0,0,0,0,10.26,17,17,0,0,0,5.75,8.94c3.51,2.69,7.58,3.31,12.3,1.91a13.14,13.14,0,0,0,6.85-4.61,11.77,11.77,0,0,0,2.33-7.95,11.87,11.87,0,0,0,18.73-2.64,11.66,11.66,0,0,0,.47-9c-1.64-5.53-5-8.94-10-10.3l-1.18,2.7a11.37,11.37,0,0,1,8.41,8.06Z"/><path class="cls-1" d="M983.58,413.92a16.22,16.22,0,0,1-10.11-3.49,21.09,21.09,0,0,1-7.19-11,20.7,20.7,0,0,1,0-12.75,22.19,22.19,0,0,1,6.19-9.45l3-2.74,7.76,8.62L980,385.82a8.49,8.49,0,0,0-3.11,4.88,10.58,10.58,0,0,0,0,5.8,9.28,9.28,0,0,0,3.2,4.94c1.08.81,2.75,1.65,6.08.64,2.55-.75,3.38-2,3.83-3.06.72-1.73.67-4-.16-6.83l-2.36-7.94L998,381.11l2.38,7.95a5.32,5.32,0,0,0,2.53,3.19,4.55,4.55,0,0,0,4.07.28,4.37,4.37,0,0,0,2.85-2c.37-.61.79-1.72.11-4h0a7.32,7.32,0,0,0-5.6-5.29l-4.51-1.29,4.48-10.19,3.38.91c6.39,1.72,10.84,6.24,12.89,13.07,1.33,4.47,1.08,8.52-.77,12.07s-5,6.31-9.57,7.68a15.21,15.21,0,0,1-9.79-.13,14.78,14.78,0,0,1-2.1,3.68,17.28,17.28,0,0,1-8.88,6A21.16,21.16,0,0,1,983.58,413.92Z"/><path class="cls-1" d="M1006.32,444a23,23,0,0,0-16.13,9,24.78,24.78,0,0,0,4.11,34.35,23,23,0,0,0,17.81,4.95,24.33,24.33,0,1,0-5.79-48.32Zm.38,3.21a21.16,21.16,0,0,1,15.88,4.19,21.56,21.56,0,0,1,3.58,29.89,21.14,21.14,0,0,1-14.44,7.82A20.74,20.74,0,0,1,996,484.89,21.41,21.41,0,0,1,992.41,455,20.83,20.83,0,0,1,1006.7,447.2Z"/><path class="cls-1" d="M1008.81,496.6a26.75,26.75,0,0,1-17-6A28.85,28.85,0,0,1,987,450.48a27,27,0,0,1,18.85-10.55,27.72,27.72,0,0,1,20.87,5.79,28.4,28.4,0,0,1-14.12,50.64A30.34,30.34,0,0,1,1008.81,496.6Zm-1.63-45.34a16.71,16.71,0,0,0-11.59,6.29,17.35,17.35,0,0,0,2.87,24.1,16.61,16.61,0,0,0,12.79,3.4A17.1,17.1,0,0,0,1023,478.7a17.52,17.52,0,0,0-2.91-24.08,17.1,17.1,0,0,0-12.91-3.36Z"/><polygon class="cls-1" points="989.4 532.24 989.22 535.33 1033.24 537.94 1031.56 566.3 987.54 563.69 987.36 566.78 1034.18 569.55 1036.23 535.01 989.4 532.24"/><polygon class="cls-1" points="1038.01 573.88 983.07 570.61 983.68 559.37 1027.73 561.98 1028.92 541.77 984.9 539.16 985.58 527.91 1040.56 531.18 1038.01 573.88"/><path class="cls-1" d="M974.18,639.28l51.4-8.47L982.74,601l-.73,3.3,13.66,9.46-4.36,19.49L974.92,636ZM1017.9,629l-23.6,3.73,3.87-17.29L1017.9,629Z"/><path class="cls-1" d="M968.89,644.29l2.63-11.88,16.41-2.75,3.14-14.13-13.66-9.46,2.69-11.9,56.08,39Zm32-22-1.24,5.54,7.55-1.2Z"/><path class="cls-1" d="M1000.4,708.71a24.14,24.14,0,0,0-13.51-31.54,23.2,23.2,0,0,0-18.41.26,23.66,23.66,0,0,0-13,13.59,23,23,0,0,0-.33,16.67l3.79,1.51a20.66,20.66,0,0,1,3.21-23.55,21.88,21.88,0,0,1,6.16-4.82,18,18,0,0,1,8.08-2.24,20.69,20.69,0,0,1,9.22,1.54,21.2,21.2,0,0,1,11.95,11.25,20,20,0,0,1,.3,16.23,20.87,20.87,0,0,1-5,7.41,22.17,22.17,0,0,1-7.72,4.57l3.8,1.51a22,22,0,0,0,11.49-12.39Z"/><path class="cls-1" d="M989,725.55l-15.48-6.15,10.18-3.65a18.46,18.46,0,0,0,6.35-3.75,16.21,16.21,0,0,0,3.93-5.9,15.8,15.8,0,0,0-.21-13,17,17,0,0,0-9.73-9.14,16.76,16.76,0,0,0-7.42-1.28,14.4,14.4,0,0,0-6.37,1.71,18.38,18.38,0,0,0-5.12,4,16.49,16.49,0,0,0-3.27,5.05,17.12,17.12,0,0,0-1.07,6.62,16.52,16.52,0,0,0,1.76,7.35l4.59,9.47-15.31-6.07-.62-1.76a27.32,27.32,0,0,1,.4-19.54,27.88,27.88,0,0,1,15.22-15.83,28.26,28.26,0,0,1,37.35,36.54h0a26.17,26.17,0,0,1-13.59,14.59Z"/><polygon class="cls-1" points="973.69 763.43 933.6 739.08 931.99 741.72 952.67 754.28 937.91 778.57 917.24 766 915.63 768.64 955.72 793 957.32 790.37 940.32 780.02 955.07 755.75 972.08 766.08 973.69 763.43"/><polygon class="cls-1" points="957.09 798.63 910.02 770.01 915.85 760.39 936.55 772.96 947.06 755.65 926.38 743.09 932.23 733.45 979.3 762.07 973.45 771.7 956.44 761.35 945.92 778.66 962.93 789 957.09 798.63"/><path class="cls-1" d="M911.57,814.39a23,23,0,0,0-17.45-6.06,24.77,24.77,0,0,0-23,25.9,23,23,0,0,0,8.12,16.59,24.34,24.34,0,1,0,32.28-36.43Zm-2.15,2.42a21.16,21.16,0,0,1,7.42,14.65,21.59,21.59,0,0,1-20,22.54,21.15,21.15,0,0,1-15.43-5.6,20.79,20.79,0,0,1-7.31-14.56,21.38,21.38,0,0,1,20-22.52,20.77,20.77,0,0,1,15.33,5.49Z"/><path class="cls-1" d="M895.16,861.07a28.44,28.44,0,0,1-1.28-56.81,26.8,26.8,0,0,1,20.39,7.07,27.31,27.31,0,0,1,9.55,19.45A28.84,28.84,0,0,1,897.05,861C896.42,861.05,895.78,861.07,895.16,861.07Zm.13-45.7c-.32,0-.65,0-1,0a17.29,17.29,0,0,0-16.09,18.11,16.6,16.6,0,0,0,5.94,11.83,17.13,17.13,0,0,0,12.53,4.57,16,16,0,0,0,11.69-5.83,16.21,16.21,0,0,0,4.4-12.34,17.09,17.09,0,0,0-6.06-11.87h0A16.65,16.65,0,0,0,895.29,815.37Z"/><path class="cls-1" d="M846.64,911.19a24.16,24.16,0,0,0-11.87-43.08,23.66,23.66,0,0,0-18.1,5.19A23,23,0,0,0,808,887.54l2.53,3.21a20.41,20.41,0,0,1,2.66-8.9A19.6,19.6,0,0,1,825.14,872a21.45,21.45,0,0,1,7.74-1.08,18.11,18.11,0,0,1,8.11,2.11,20.66,20.66,0,0,1,7.19,6,21.23,21.23,0,0,1,4.69,15.73A20,20,0,0,1,845,908.94a20.72,20.72,0,0,1-8,3.9,22.57,22.57,0,0,1-9,.08l2.52,3.2a22,22,0,0,0,16.16-4.93Z"/><path class="cls-1" d="M832.68,920.31c-.85,0-1.71,0-2.58-.11l-1.75-.17-10.29-13.11,10.64,2a18.44,18.44,0,0,0,7.37-.06,16.59,16.59,0,0,0,6.37-3.11,16,16,0,0,0,6.38-11.39A17,17,0,0,0,845,881.57a16.08,16.08,0,0,0-5.76-4.83A15.81,15.81,0,0,0,832,875a17.7,17.7,0,0,0-5.6.9,17.22,17.22,0,0,0-11.82,15.16l-.8,10.48-10.15-12.95.35-1.81a27.1,27.1,0,0,1,10.15-16.69,27.83,27.83,0,0,1,21.11-6,28.23,28.23,0,0,1,13.9,50.36h0A26.14,26.14,0,0,1,832.68,920.31Z"/><polygon class="cls-1" points="778.13 955.26 801.72 941.28 800.29 938.86 789.82 945.06 767.35 907.12 764.68 908.7 787.16 946.64 776.69 952.84 778.13 955.26"/><polygon class="cls-1" points="776.72 960.85 771.08 951.42 781.57 945.19 759.09 907.27 768.78 901.54 791.26 939.46 801.72 933.26 807.31 942.72 776.72 960.85"/><polygon class="cls-1" points="688.88 943.1 705.99 987.31 722.67 937.65 737.03 974.77 739.92 973.66 722.56 928.79 705.88 978.46 691.77 941.99 688.88 943.1"/><polygon class="cls-1" points="706.28 999.33 683.59 940.77 694.1 936.72 705.6 966.45 722.29 916.77 745.21 975.99 734.7 980.05 722.94 949.67 706.28 999.33"/><path class="cls-1" d="M539.94,879.92c-196.43,0-357.05-149.28-358-332.79l0-1.73h1.72l358-1.75v0H898v1.72c0,88.78-37.43,172.65-105.41,236.12S634.92,879.92,539.94,879.92ZM185.36,548.84c2,180.81,160.66,327.64,354.58,327.64,194.91,0,353.6-147.6,354.6-329.36H538.23Z"/><path class="cls-1" d="M502.41,944a12.86,12.86,0,0,0-12.86,12.83v49.74a12.87,12.87,0,0,0,12.86,12.88H581a12.88,12.88,0,0,0,12.87-12.88V956.79A12.87,12.87,0,0,0,581,944ZM581,1022H502.41A15.44,15.44,0,0,1,487,1006.53V956.79a15.42,15.42,0,0,1,15.43-15.39H581a15.42,15.42,0,0,1,15.43,15.39v49.74A15.44,15.44,0,0,1,581,1022Z"/><path class="cls-1" d="M581,1024.65h-78.6a18.14,18.14,0,0,1-18.11-18.12V956.78a18.11,18.11,0,0,1,18.11-18.06H581a18.12,18.12,0,0,1,18.13,18.06v49.75A18.14,18.14,0,0,1,581,1024.65Zm-78.6-78a10.18,10.18,0,0,0-10.19,10.14v49.75a10.21,10.21,0,0,0,10.19,10.21H581a10.22,10.22,0,0,0,10.2-10.21V956.78A10.19,10.19,0,0,0,581,946.64Z"/><polygon class="cls-1" points="529.02 1036.32 526.54 1035.65 530.75 1020.3 533.22 1020.99 529.02 1036.32"/><polygon class="cls-1" points="530.89 1039.61 523.25 1037.52 528.87 1017 536.51 1019.13 530.89 1039.61"/><polygon class="cls-1" points="519.98 1037.26 562.91 1037.26 562.91 1034.7 519.98 1034.7 519.98 1037.26"/><rect class="cls-1" x="517.3" y="1032.03" width="48.29" height="7.91"/><polygon class="cls-1" points="554.91 1036.48 550.7 1021.14 553.18 1020.46 557.39 1035.8 554.91 1036.48"/><polygon class="cls-1" points="553.04 1039.76 547.42 1019.27 555.05 1017.19 560.67 1037.68 553.04 1039.76"/><polygon class="cls-1" points="488.26 1001.98 595.17 1001.98 595.17 999.42 488.26 999.42 488.26 1001.98"/><rect class="cls-1" x="485.58" y="996.74" width="112.26" height="7.91"/><path class="cls-1" d="M541.72,1010.25a1.1,1.1,0,1,0,1.12,1.1A1.1,1.1,0,0,0,541.72,1010.25Zm0,4.77a3.67,3.67,0,1,1,3.68-3.67A3.67,3.67,0,0,1,541.72,1015Z"/><path class="cls-1" d="M541.72,1017.69a6.35,6.35,0,1,1,6.36-6.35A6.35,6.35,0,0,1,541.72,1017.69Zm0-7.33a1,1,0,0,0-1,1c0,1.13,2,1.1,2,0A1,1,0,0,0,541.72,1010.36Z"/><path class="cls-1" d="M648.82,686.56c0-21.26-.22-42.52.15-63.78.1-5.55-1.66-7.07-6.86-7.22a226.65,226.65,0,0,1-23.58-1.78c-27.38-3.51-53.94-9.54-76.36-27-2.38-1.84-3.61-1.16-5.58.21a127,127,0,0,1-29.68,15.29c-23.9,8.74-48.67,12.61-74,13.3-5.59.15-7.26,1.94-7.22,7.69.29,38.38.9,76.76-.1,115.09-.74,28.43,10.7,50,32.33,66.92,22.92,18,49.31,28.84,77.18,36.55a8,8,0,0,0,4.45,0c30.25-8.37,58.89-20.1,82.71-41.2,16.76-14.82,27.09-32.93,26.62-56.23-.38-19.28-.08-38.55-.08-57.86ZM537,563.77h5.26c1.39,1.05,3.07,1.83,4.13,3.14,8.82,10.84,20.71,16.49,33.58,20.74,24.37,8.11,49.59,10.47,75,11.3,8.57.27,11.07,2.68,11.08,10.95q0,68.8,0,137.5A78.83,78.83,0,0,1,654.76,788c-12.8,21.63-32.06,36.18-53.54,48.23-19.4,10.84-40.14,18.22-61.65,23.61h-5.25a33.91,33.91,0,0,0-3.65-1.31c-31.78-8.06-61.33-20.78-86.42-42.36-23.05-19.74-36.2-44-35.53-75.55.93-43.36.22-86.76.25-130.12,0-9.12,2.17-11.31,11.06-11.58,17.31-.41,34.56-1.67,51.55-5.07C495.74,589.11,519.49,583.2,537,563.77Z"/><path class="cls-1" d="M534.31,863l-2-.55a17.88,17.88,0,0,0-2.42-.86c-35.93-9.1-64.6-23.17-87.67-43-25.28-21.66-37.26-47.16-36.62-78,.64-29.9.5-60.33.37-89.77-.06-13.43-.13-26.85-.11-40.27,0-10.82,3.42-14.4,14.08-14.69,20.18-.5,36.39-2.09,51-5,24-4.73,46.94-10.52,63.64-29.12l.93-1h7.7l.82.62c.41.29.83.56,1.24.83a13.81,13.81,0,0,1,3.44,2.81c9,11,21.28,16.17,32.15,19.76,25.56,8.51,51.82,10.41,74.15,11.16,10.26.29,14.08,4.11,14.09,14V747.4a82.21,82.21,0,0,1-11.69,42.22C646,809,629.1,824.2,602.74,839c-18.12,10.11-38.55,17.94-62.4,23.91Zm.59-6.23h4.68c22.57-5.74,42.49-13.36,60.12-23.21,25.35-14.21,41.52-28.73,52.39-47.09a76.07,76.07,0,0,0,10.83-39.05V609.9c0-6.52-1.14-7.62-8.07-7.83-22.79-.76-49.62-2.7-75.91-11.46-11.73-3.88-25.07-9.49-35-21.73a8.7,8.7,0,0,0-2-1.52l-.7-.47h-2.92c-17.89,19.21-41.49,25.18-66.12,30-15,3-31.55,4.65-52.09,5.14-7.19.21-8,1.07-8,8.47q0,20.1.12,40.25c.14,29.47.28,60-.37,89.93-.61,28.83,10.66,52.76,34.45,73.12,22.32,19.2,50.17,32.83,85.16,41.7a25.27,25.27,0,0,1,3.17,1.1Zm2.55-11.49a11.6,11.6,0,0,1-3.14-.44C501.6,835.77,476.72,824,456,807.71c-23.3-18.28-34.25-41-33.51-69.45.82-31.79.54-64.18.26-95.5l-.16-19.48c-.05-7.49,2.92-10.63,10.24-10.83,27-.73,50.9-5,73-13.12a122.06,122.06,0,0,0,29-14.9c1.89-1.3,5-3.47,9.28-.15,22.66,17.68,49.38,23.14,74.85,26.41a226.08,226.08,0,0,0,23.25,1.76c7.09.21,10,3.31,9.92,10.38-.27,15.48-.23,30.95-.19,46.43l0,17.3c0,5.91,0,11.81,0,17.73-.07,13.36-.13,26.71.14,40.05.45,22.6-8.61,41.78-27.69,58.64-21.15,18.76-47,31.67-83.92,41.87A11.47,11.47,0,0,1,537.45,845.26Zm2.06-256.51-1.14.79A128.92,128.92,0,0,1,508,605.18c-22.74,8.33-47.26,12.74-75,13.5-3.73.09-4.21.36-4.18,4.54L429,642.7c.26,31.38.55,63.83-.27,95.72-.69,26.35,9.49,47.42,31.14,64.39,20,15.75,44.2,27.18,76.07,36a5.14,5.14,0,0,0,2.83,0c35.89-9.92,61-22.42,81.43-40.53,17.64-15.57,26-33.18,25.59-53.84-.28-13.4-.21-26.8-.14-40.23,0-5.88.06-11.78.06-17.68l0-17.28c0-15.52-.09-31,.19-46.56.07-3.81-.32-3.93-3.86-4a227.71,227.71,0,0,1-23.87-1.82c-25.09-3.21-54-9-77.88-27.66A2.74,2.74,0,0,0,539.51,588.75Z"/><path class="cls-1" d="M536.92,720.49c-12.48,0-25,.15-37.43,0-4.16-.11-5.82.94-5.74,5.38q.36,21,0,42c-.05,4,1.26,5.19,5.25,5.13q38.4-.24,76.81.06c4.27,0,5.09-1.57,5-5.4-.16-14-.17-28,0-42,0-4-1.15-5.34-5.22-5.23-12.91.2-25.82,0-38.73,0Zm.27,69.74q-24.68,0-49.32-.05c-8.22,0-11.09-2.78-11.13-11q-.14-32.28,0-64.46c0-8.53,2.93-11.62,11.58-11.25,5.31.21,6.12-1.89,6-6.45a254,254,0,0,1,.4-25.6c1.7-21.62,21.95-38.49,44.69-37.64,22,.78,40.74,19.42,41.1,40.89.11,6.6-2.71,10.37-8,10.68s-8.46-3-9.19-9.69c-1.62-14.86-12.65-25.18-26.4-24.76-14.6.41-25.28,11.67-25.58,27-.12,6.59.26,13.19-.12,19.73-.28,4.77,1.58,5.77,6,5.77,22.57-.22,45.14-.11,67.72-.11,10.5,0,12.94,2.35,13,12.52q0,31.25,0,62.46c0,9.63-2.41,11.94-12.11,12Z"/><path class="cls-1" d="M537.5,755.46a8.68,8.68,0,0,1-8.5-9c.31-5.18,3.35-8,8.42-8.12,5.24-.1,8,3.14,8.58,8.06C546.52,751,542.08,755.46,537.5,755.46Z"/><path class="cls-1" d="M537.49,758.58a11.78,11.78,0,0,1-11.6-12.25c.41-6.79,4.69-10.92,11.48-11.05h.32c6.39,0,10.65,4,11.41,10.82a10.89,10.89,0,0,1-2.88,8.38A12,12,0,0,1,537.49,758.58Zm.23-17.07h-.23c-3.52.07-5.17,1.66-5.38,5.18a5.29,5.29,0,0,0,1.5,3.89,5.37,5.37,0,0,0,8-.24,4.67,4.67,0,0,0,1.32-3.54C542.38,742.14,539.76,741.51,537.72,741.51Z"/></g></svg>