<svg id="Layer_1" data-name="Layer 1" xmlns="http://www.w3.org/2000/svg" viewBox="0 0 1080 1080"><defs><style>.cls-1{fill:#3a60aa;}</style></defs><g id="_1429217648064" data-name=" 1429217648064"><path class="cls-1" d="M515.94,553.44c0,1.17,0,2.35,0,3.53s-.63,1.59-1.73,1.81c-6.48,1.41-8.17.07-8.16-6.39,0-58.79,0,24.82,0-34,0-5,0-5-5.09-5q-76.9,0-153.77,0a8.28,8.28,0,0,1-6.46-2.68c-14.2-14.36-28.6-28.54-42.74-43-3.42-3.5-6.1-5.32-11.57-3.36-9.22,3.29-19.47-1.83-24.05-10.6a21.37,21.37,0,0,1,31-27.37c8.17,5.78,11.65,16.37,7.71,25.26-1.3,2.92-.62,4.39,1.3,6.3q21.64,21.48,43.15,43.09a6.84,6.84,0,0,0,5.31,2.08q39.33-.06,78.64,0c.89,0,2.11.51,2.58-.51.56-1.24-.77-1.81-1.47-2.51-12.8-12.8-25.65-25.55-38.38-38.41-1.79-1.79-3.2-1.91-5.51-1a21.26,21.26,0,0,1-23.53-34.25,21.39,21.39,0,0,1,27.05-3.34,21.06,21.06,0,0,1,8,26.3c-.78,1.83-.94,3.09.64,4.65q23.74,23.61,47.37,47.34a5.27,5.27,0,0,0,4,1.74c6.93-.08,13.88-.17,20.81,0,2.9.08,3.58-1.07,3.57-3.73-.1-10.93-.08-21.86,0-32.8a6.71,6.71,0,0,0-2.3-5.2q-35.44-35.34-70.77-70.84a9,9,0,0,0-7.07-2.94c-21.62.1-43.25,0-64.88.14a10.13,10.13,0,0,1-8-3.37c-12.13-12.3-24.44-24.41-36.57-36.7-1.74-1.76-3.21-2.06-5.55-1.38a20.18,20.18,0,0,1-18.13-3,21.29,21.29,0,1,1,30.84-7.22c-1.17,2.15-1.11,3.39.64,5.1q16.82,16.61,33.41,33.39a9,9,0,0,0,7.09,2.95c21.52-.12,43,0,64.54-.13A10.59,10.59,0,0,1,406.2,381Q444,419,482,456.81a8.65,8.65,0,0,1,2.83,6.78c-.14,12,0,24-.12,36,0,3,.95,3.85,3.82,3.71,4.57-.19,9.18-.21,13.74,0,3.05.16,3.82-1,3.8-3.85-.11-14.92-.09-29.85,0-44.78a6.82,6.82,0,0,0-2.26-5.25c-12.6-12.48-25.1-25.06-37.65-37.61q-50.72-50.71-101.45-101.38a7.56,7.56,0,0,1-2.4-5.9c.09-13.16-.1-26.34.09-39.51.05-3.34-.65-5.14-4-6.59a20.84,20.84,0,0,1-11.84-23.88A21.06,21.06,0,0,1,367.41,218,21.32,21.32,0,0,1,388,234.55c2.17,10-2.64,20-12.18,24-3,1.27-3.67,2.84-3.64,5.72.1,12.11,0,24.21,0,36.32a6.06,6.06,0,0,0,1.71,4.75q40.57,40.46,81.06,81c.71.69,1.36,2.09,2.44,1.67,1.33-.54.72-2.09.73-3.18.05-7.41,0-14.82.08-22.22a8.23,8.23,0,0,0-2.7-6.5c-12.53-12.4-24.93-24.92-37.45-37.34a7.09,7.09,0,0,1-2.33-5.57c.11-5.29-.1-10.58.06-15.88.08-2.6-.77-3.9-3.24-4.95a21.09,21.09,0,0,1-12.51-24.83,21.29,21.29,0,0,1,41.55,1.12,21,21,0,0,1-12.49,23.58c-2.67,1.06-3.61,2.43-3.47,5.19.19,3.75.16,7.53,0,11.28a7.33,7.33,0,0,0,2.51,5.87c12.53,12.39,24.93,24.93,37.48,37.3a8.66,8.66,0,0,1,2.8,6.81c-.11,12.47.05,24.94-.1,37.38a8.14,8.14,0,0,0,2.74,6.46c14,13.91,27.9,27.93,42,41.8a9.19,9.19,0,0,1,2.9,6.12v103Z"/><path class="cls-1" d="M574,465.17c0-29.27,0,83.84,0,54.56,0-1.41.08-2.82.1-4.23s.78-2.09,2.23-2c1,0,2.11,0,3.17,0q76.71,0,153.41,0a8.3,8.3,0,0,0,6.43-2.76c15.3-15.45,30.74-30.75,46-46.2,1.79-1.8,3.1-1.6,5.19-.74A21.26,21.26,0,0,0,818,435.12a21.54,21.54,0,0,0-19.81-12.31,21.14,21.14,0,0,0-18.91,29.65c.9,2.06.62,3.32-1,4.9Q756.34,479.08,734.61,501a7.14,7.14,0,0,1-5.55,2.3c-26.22-.08-52.43,0-78.65-.08-.89,0-2.14.55-2.62-.38-.63-1.24.83-1.76,1.5-2.43,12.67-12.75,25.4-25.44,38.05-38.21,1.87-1.88,3.43-2.45,6.12-1.36a20.93,20.93,0,0,0,24.44-6.32A21.31,21.31,0,1,0,680,439.81a18.69,18.69,0,0,0,1.75,9.62c1.07,2.24.58,3.57-1,5.19Q657.19,478,633.82,501.47a5.59,5.59,0,0,1-4.36,1.8c-6.94-.07-13.87-.13-20.81,0-2.47.05-3.27-.82-3.26-3.26.09-11.27.07-22.56,0-33.85a5.65,5.65,0,0,1,2-4.29q36.17-36.15,72.26-72.34c1.51-1.52,3.18-1.71,5.11-1.71,22.22,0,44.44,0,66.66.09a7.88,7.88,0,0,0,6.19-2.54c12.3-12.44,24.75-24.75,37-37.23,1.87-1.88,3.39-2.43,6.08-1.63,11.76,3.47,23.57-3.65,26.47-15.71,2.79-11.53-4.87-23.25-16.75-25.64-11.65-2.35-23,5.76-25,17.69a21.06,21.06,0,0,0,2.62,13.9c1,1.81.82,2.87-.56,4.26q-17.62,17.53-35.13,35.18c-1.55,1.56-3.33,1.48-5.2,1.48-22.09,0-44.2,0-66.3-.06a7.91,7.91,0,0,0-6.16,2.52q-37.81,38-75.82,75.78a11.27,11.27,0,0,0-3.67,8.92c.22,11.76,0,23.51.13,35.27,0,2.48-.75,3.25-3.2,3.19-5.05-.18-10.12-.16-15.16,0-2.38.08-3-.78-3-3q.12-22.92,0-45.85c0-2.25,1-3.69,2.48-5.16q35.19-35.1,70.32-70.28,33.75-33.78,67.59-67.52a10.45,10.45,0,0,0,3.43-8.28c-.21-12.82,0-25.64-.14-38.44,0-3.21.74-4.92,4-6.26,8.92-3.65,13.82-13.56,12.08-23.16a21.3,21.3,0,1,0-29,23.61c2.47,1,3.06,2.33,3,4.7q-.1,18.53,0,37a6.8,6.8,0,0,1-2.21,5.29Q665.32,346,625.17,386.12c-.76.75-1.36,2.37-2.69,1.79s-.65-2.12-.67-3.21c0-7.65,0-15.29,0-22.94a6.36,6.36,0,0,1,2.09-5c12.66-12.57,25.23-25.24,37.92-37.8a7.38,7.38,0,0,0,2.45-5.86c-.12-5.41.06-10.81,0-16.22,0-2.33.75-3.49,3-4.41,9.34-3.76,14.23-12.4,13.09-22.58A21.07,21.07,0,0,0,663,251.86a21.45,21.45,0,0,0-23.85,13.78c-3.51,10.21.76,21.64,10.45,25.95,4.06,1.8,4.4,4.15,4.83,8,1,9-2.05,15.38-8.78,21.42-10.83,9.72-20.72,20.47-31.12,30.68a8.7,8.7,0,0,0-2.85,6.8c.1,12.93,0,25.86,0,38.79a6.11,6.11,0,0,1-2.12,4.6c-14.24,14.18-28.42,28.43-42.69,42.57a8.75,8.75,0,0,0-2.93,6.75c.08,81.81,0,21.25.1,103.08,0,1.48-1,3.79,1.15,4.29,2.57.62,5.46.87,8-.24,1.41-.63.76-2.57.76-3.92q0-35.77,0-71.57V465.17Z"/><path class="cls-1" d="M545,417.77c0-45.5,0,51.38,0,5.89a7.91,7.91,0,0,1,2.57-6.17c11.37-11.21,22.62-22.58,34-33.8a7.9,7.9,0,0,0,2.44-6.26c-.14-9.18-.06-18.35-.11-27.51a6.55,6.55,0,0,1,2.11-5c13-12.91,26-25.92,39-38.82a7.24,7.24,0,0,0,2.36-5.58c-.08-20.58,0-41.14-.12-61.72,0-3.55.66-5.48,4.3-7.12,10.75-4.76,14.89-17.91,9.6-28.72-5-10.12-18-14.38-28.43-9.27A21.26,21.26,0,0,0,602.84,222a20.47,20.47,0,0,0,11.65,10.68,3.26,3.26,0,0,1,2.52,3.6q0,30.53,0,61a5.3,5.3,0,0,1-1.71,4Q601,315.45,586.85,329.67c-.63.64-1.2,1.78-2.23,1.41s-.76-1.62-.76-2.51c0-17.27.11-34.56-.08-51.84,0-3.51,2.26-3.88,4.39-4.89a21.22,21.22,0,0,0-9.51-40.35,21.18,21.18,0,0,0-8,40.74c2.47,1,3.28,2.31,3.28,4.94q-.13,48,0,95.92a8,8,0,0,1-2.38,6.3c-7.82,7.63-15.47,15.43-23.26,23.1-.74.75-1.28,2.38-2.69,1.74-1.13-.5-.61-1.89-.61-2.89q0-103.87-.06-207.74c0-2.55.93-3.62,3.24-4.56,9.47-3.81,14.57-13.59,12.69-23.8A21.31,21.31,0,0,0,519.4,164a21,21,0,0,0,12.19,24.93c2.82,1.18,3.49,2.71,3.48,5.51Q535,297.75,535,401.07c0,1.09.65,2.65-.73,3.15-1.07.39-1.72-1-2.44-1.72-7.85-7.75-15.65-15.58-23.56-23.3a7.18,7.18,0,0,1-2.24-5.61q.09-48,0-95.93c0-2.79.62-4.33,3.5-5.5a21.12,21.12,0,0,0,12.35-24.28,21.41,21.41,0,0,0-22.2-16.35,21.23,21.23,0,0,0-6.81,40.75c2.54,1,3.31,2.34,3.3,4.93-.1,16.92-.05,33.86-.09,50.78,0,1.1.55,2.66-.83,3.11-1.06.36-1.75-1-2.46-1.72-9.24-9.21-18.42-18.48-27.7-27.66a6.76,6.76,0,0,1-2.21-5.25q.11-29.45,0-58.89c0-2.65.57-4.13,3.32-5.27a21,21,0,0,0,12.86-22.45c-1.16-9.24-8.27-16.33-18.11-18.11-8.79-1.56-17.8,3.17-22.16,11.63-5.46,10.62-.54,24.08,10.76,28.87,2.47,1.06,3.27,2.3,3.26,4.92-.09,21,0,42.08-.08,63.13a7.55,7.55,0,0,0,2.45,5.87c12.85,12.76,25.59,25.62,38.45,38.34a7.94,7.94,0,0,1,2.54,6.25c-.1,8.81.09,17.62-.1,26.43a9,9,0,0,0,3,7.11c11.2,11.05,22.26,22.25,33.49,33.27a8,8,0,0,1,2.5,6.23c-.07,13.76,0,27.51,0,41.26v87.22c0,1.29.07,2.59,0,3.87-.09,2,.8,2.71,2.74,2.68,8.51-.12,7.17.76,7.18-6.69q.06-67.2,0-134.37Z"/><path class="cls-1" d="M540,0C254.27,0,21.8,232.47,21.8,518.21c0,257.65,189,472,435.67,511.63,2.23.36,4.46.71,6.7,1-.74-1.25-1.43-2.53-2.1-3.82q-3.24-.49-6.48-1C211.78,985.63,25.26,773.29,25.26,518.21,25.26,234.38,256.18,3.47,540,3.47s514.73,230.91,514.73,514.74c0,255.08-186.51,467.42-430.32,507.81q-3.23.54-6.48,1c-.67,1.3-1.37,2.57-2.1,3.83,2.24-.33,4.47-.68,6.7-1,246.66-39.65,435.67-254,435.67-511.64C1058.21,232.47,825.75,0,540,0Z"/><path class="cls-1" d="M393.85,938.35a15.51,15.51,0,0,0-11.2-.08,13.31,13.31,0,0,0-7.08,16,11,11,0,0,0,5.45,6.09c-4.23.93-7.1,3.59-8.6,7.94a11.2,11.2,0,0,0,.43,9.29q2.25,4.15,8,6.13l9.75,3.4,15.5-44.55-12.22-4.25Zm-11,43.13c-3.33-1.16-5.6-2.63-6.76-4.45a9,9,0,0,1-.59-8,8.87,8.87,0,0,1,5.31-5.79,9.61,9.61,0,0,1,6.73.25l7.08,2.45-6.09,17.51Zm5.76-20.62c-3.68-1.27-6.28-2.63-7.91-4.17-2.63-2.56-3.28-5.85-1.86-9.93a9,9,0,0,1,5.24-5.81,8.83,8.83,0,0,1,3.93-.74,15.7,15.7,0,0,1,3.37.43c.82.21,1.91.52,3.32,1l7.48,2.59-6.63,19-6.94-2.42Z"/><path class="cls-1" d="M393.12,992.4l-13.66-4.75c-4.8-1.66-8.24-4.39-10.23-8.08a15.3,15.3,0,0,1-.71-12.6,16.64,16.64,0,0,1,5.13-7.58,14.71,14.71,0,0,1-2-3.7,17.42,17.42,0,0,1,9.42-21.24,19.73,19.73,0,0,1,14.1,0l16.11,5.6Zm-9.46-25.52a3.92,3.92,0,0,0-1.4.23c-.84.31-2,1-2.84,3.28a4.84,4.84,0,0,0,.23,4.5c.31.49,1.36,1.58,4.59,2.69h0l1.78.62,3.38-9.7-3.18-1.11A7.93,7.93,0,0,0,383.66,966.88Zm4-22.55a4.32,4.32,0,0,0-1.89.39,4.89,4.89,0,0,0-3,3.41c-1.09,3.14-.24,4.56.85,5.62s3.27,2.13,6.38,3.21h0l3.05,1.07L397,946.79l-3.6-1.25c-1.26-.44-2.24-.72-3-.91a11.74,11.74,0,0,0-2.48-.3Z"/><path class="cls-1" d="M343.86,917.45c-4.6-2.34-8.61-2.87-12.1-1.64a14.22,14.22,0,0,0-7.83,7.14c-3.91,7.69-1,14,8.64,18.9l7.32,3.72-9.2,18.09,2.78,1.41L354.83,923l-11-5.57Zm-9.25,22.27c-3.72-1.89-6.14-3.68-7.37-5.33-2.13-3-2.27-6.31-.4-10,1.56-3.09,3.63-5,6.27-5.78,2.82-.86,6.38-.24,10.61,1.9l7.06,3.59-9.61,18.92Zm-9.16-31.63-2.77-1.41-21.37,42.05,2.77,1.41Z"/><path class="cls-1" d="M335.28,970.62l-10.13-5.16,9.19-18.09-3.64-1.86c-5.65-2.85-9.44-6.33-11.28-10.34a14.93,14.93,0,0,1-1.15-3.85l-12.39,24.37-10.11-5.15,25.1-49.4L331,906.29l-3.58,7a19,19,0,0,1,2.91-1.37q7-2.41,15.4,1.81l14.65,7.45Zm.5-48.24a5.17,5.17,0,0,0-1.47.2c-1,.3-2.43,1-3.79,3.7-1.46,2.88-.78,4.51.07,5.72.34.46,1.73,1.93,5.88,4h0l2.9,1.46,5.87-11.57-3.4-1.74A14.35,14.35,0,0,0,335.78,922.38Z"/><path class="cls-1" d="M274.05,875l-27,38.7,2.56,1.78,13.22-19c3.56,2,6.66,4,9.33,5.91,3.54,2.46,5.66,4.37,6.47,5.79a6.68,6.68,0,0,1,.87,2.59,5.07,5.07,0,0,1-.37,2.51,16.93,16.93,0,0,1-.86,2,16.47,16.47,0,0,1-1.2,1.84l-8.2,11.78,2.55,1.78,8.21-11.78a18.37,18.37,0,0,0,3-5.92,7.59,7.59,0,0,0-1-5.56c-1.14-2.08-3.46-4.3-7-6.77-2.26-1.58-5.59-3.73-10.14-6.47l12.12-17.41L274.05,875Z"/><path class="cls-1" d="M272.5,936.39l-9.34-6.46,10.56-15.18c.42-.59.71-1,.87-1.27a13.57,13.57,0,0,0,.72-1.67,2.26,2.26,0,0,0-.21-1.55c-.13-.22-1-1.5-5.27-4.48-1.74-1.23-3.66-2.49-5.79-3.78l-13.38,19.19-9.32-6.46L273,869.26l9.32,6.48-12,17.19c2.79,1.75,5,3.18,6.61,4.32,4.18,2.9,6.8,5.5,8.27,8.18a11.39,11.39,0,0,1,1.42,8.54,21.87,21.87,0,0,1-3.61,7.28Z"/><polygon class="cls-1" points="223.71 831.53 191.29 866.47 243.53 859.66 216.31 889 218.59 891.12 251.49 855.65 199.25 862.47 226 833.64 223.71 831.53"/><polygon class="cls-1" points="218.82 896.94 210.48 889.22 232.75 865.21 180.5 872.02 223.48 825.7 231.82 833.42 210.04 856.92 262.28 850.08 218.82 896.94"/><path class="cls-1" d="M152.52,822.51A24.3,24.3,0,1,0,190.36,792,23.2,23.2,0,0,0,176,783.44L172.76,786a20.53,20.53,0,0,1,9,2.6,19.87,19.87,0,0,1,10,11.92,21.93,21.93,0,0,1,1.15,7.78,18.26,18.26,0,0,1-2.07,8.18,20.87,20.87,0,0,1-5.93,7.29,21.44,21.44,0,0,1-15.78,4.84,20.16,20.16,0,0,1-14.33-7.83,20.67,20.67,0,0,1-4-8,22.45,22.45,0,0,1-.16-9l-3.2,2.56a22.18,22.18,0,0,0,5.1,16.22Z"/><path class="cls-1" d="M171.84,835.9a30.76,30.76,0,0,1-3.43-.2,27.62,27.62,0,0,1-19.1-10.62h0a26.13,26.13,0,0,1-6-19.14l.16-1.76,13.17-10.54-2,10.82a18,18,0,0,0,.12,7.36,16.62,16.62,0,0,0,3.19,6.4,16,16,0,0,0,11.49,6.29,16.77,16.77,0,0,0,12.83-4,16.94,16.94,0,0,0,4.79-5.85,14.51,14.51,0,0,0,1.66-6.4,17.83,17.83,0,0,0-.94-6.46,17,17,0,0,0-2.8-5.39,17.25,17.25,0,0,0-5.25-4.23,16.44,16.44,0,0,0-7.26-2.12l-10.67-.66,13-10.39,1.84.34a27.17,27.17,0,0,1,16.88,10.05,28,28,0,0,1,6.25,21.19,28.47,28.47,0,0,1-28,25.26Z"/><path class="cls-1" d="M148.25,762.92c1.89-1.11,3.3-1.93,4.3-2.46a26,26,0,0,1,3.89-1.47,7.8,7.8,0,0,1,4.08-.19,6.3,6.3,0,0,1,3.93,3,9.08,9.08,0,0,1,1,2.46l2.43-1.43a11.69,11.69,0,0,0-1.07-2.66,8.68,8.68,0,0,0-5.93-4.46,10.43,10.43,0,0,0-5,.22,21.78,21.78,0,0,0-4.48,1.59c-1.13.58-2.72,1.52-4.73,2.71l-23.61,14-10.37-17.52,38.16-22.58-1.58-2.68-40.61,24,13.55,22.89,26-15.42Z"/><path class="cls-1" d="M120.76,784,103,754l47.68-28.2,5.81,9.74-38.18,22.59,6.18,10.44,20.06-11.87c2.09-1.24,3.75-2.22,4.92-2.82a25.64,25.64,0,0,1,5.34-1.9,14.35,14.35,0,0,1,6.92-.27,12.6,12.6,0,0,1,8.55,6.38,15.09,15.09,0,0,1,1.5,3.61l.89,3.07-10,5.89-1.31-5.41a5.46,5.46,0,0,0-.5-1.34,2.23,2.23,0,0,0-1.39-1.12,3.86,3.86,0,0,0-2,.17,22,22,0,0,0-3.09,1.15c-1,.52-2.31,1.3-4.12,2.36Z"/><polygon class="cls-1" points="121.86 670.93 77.78 689.06 128.06 704.78 91.04 720 92.22 722.88 136.96 704.48 86.68 688.76 123.04 673.8 121.86 670.93"/><polygon class="cls-1" points="89.97 728.27 85.67 717.75 115.93 705.29 65.65 689.58 124.1 665.54 128.41 676.06 98.8 688.23 149.08 703.96 89.97 728.27"/><polygon class="cls-1" points="61.53 633.21 68.71 659.84 71.44 659.1 68.26 647.29 111.07 635.74 110.26 632.74 67.45 644.29 64.26 632.48 61.53 633.21"/><polygon class="cls-1" points="65.81 664.92 56.49 630.31 67.16 627.41 70.36 639.25 113.16 627.7 116.13 638.63 73.31 650.18 76.49 661.98 65.81 664.92"/><polygon class="cls-1" points="55.52 604 102.12 596.68 98.6 574.33 95.81 574.76 98.84 594.05 77.53 597.4 74.57 578.53 71.77 578.97 74.73 597.83 57.83 600.49 54.8 581.21 52 581.64 55.52 604"/><polygon class="cls-1" points="52.1 608.7 47.28 578.23 58.22 576.49 61.26 595.78 70.03 594.41 67.07 575.55 78.01 573.82 80.97 592.69 94.12 590.61 91.08 571.31 102.04 569.64 106.84 600.1 52.1 608.7"/><path class="cls-1" d="M78.82,543c2.2-.07,3.82-.13,5-.09a27.85,27.85,0,0,1,4.13.58,8,8,0,0,1,3.66,1.8,6.29,6.29,0,0,1,2,4.53,9.19,9.19,0,0,1-.35,2.64l2.83-.09a12.08,12.08,0,0,0,.34-2.84,8.67,8.67,0,0,0-3-6.77,10.39,10.39,0,0,0-4.46-2.2,21.77,21.77,0,0,0-4.69-.77c-1.27,0-3.11,0-5.44.1l-27.43.84-.63-20.36L95,519l-.09-3.11-47.15,1.45L48.57,544Z"/><path class="cls-1" d="M87.74,556.79l1.47-5.37a4.57,4.57,0,0,0,.21-1.4,2.19,2.19,0,0,0-.65-1.66,3.9,3.9,0,0,0-1.85-.82,20.72,20.72,0,0,0-4.09-.49c-.92,0-2.09.05-3.52.09l-34.73,1.08L43.5,513.4l55.41-1.72L99.22,523l-44.29,1.38.36,12.1,23.31-.71c2.45-.07,4.31-.15,5.66-.1a26.71,26.71,0,0,1,5.59.9A14.64,14.64,0,0,1,96,539.68a12.75,12.75,0,0,1,4.44,9.76,15.74,15.74,0,0,1-.41,3.82l-.68,3.17Z"/><path class="cls-1" d="M97.37,473.84c.51-5.13-.45-9.07-2.87-11.87A14.15,14.15,0,0,0,85,457.25c-8.59-.86-13.42,4.13-14.5,14.89l-.82,8.17-20.2-2-.3,3.09,46.93,4.7,1.23-12.24Zm-24.11-.57c.42-4.14,1.2-7.06,2.3-8.8q3-4.59,9.14-4c3.45.35,6,1.59,7.66,3.75s2.54,5.87,2.07,10.59l-.79,7.87-21.12-2.11Z"/><path class="cls-1" d="M99.84,490.59l-55.16-5.51,1.15-11.29,20.19,2,.4-4.07c1.78-17.63,12.67-19.06,19-18.59a18.51,18.51,0,0,1,12.15,6.08c3.23,3.74,4.5,8.78,3.88,15ZM77,476.9,90,478.19l.37-3.78c.36-3.54-.06-6.18-1.19-7.61-.64-.8-1.82-1.91-4.86-2.22s-4.45.92-5.29,2.16c-.3.48-1.16,2.27-1.65,7Z"/><polygon class="cls-1" points="57.31 421.31 103.2 432.25 103.92 429.22 80.26 423.58 86.88 395.79 110.55 401.44 111.27 398.41 65.39 387.46 64.67 390.49 84.14 395.13 77.5 422.92 58.04 418.28 57.31 421.31"/><polygon class="cls-1" points="106.26 437.2 52.34 424.36 54.98 413.32 74.45 417.97 79.18 398.19 59.73 393.54 62.31 382.49 116.23 395.35 113.6 406.4 89.93 400.75 85.22 420.52 108.9 426.16 106.26 437.2"/><path class="cls-1" d="M132.78,338.3l-52.38.56,38,36.19,1.23-3.16-12.13-11.5,7.31-18.71,16.71-.22Zm-45,3.5,24-.1-6.48,16.61Z"/><path class="cls-1" d="M120,382.25l-49.81-47.4,68.62-.75-4.46,11.44-16.72.21-5.28,13.55,12.13,11.51ZM98.1,345.88l5.59,5.25,2.06-5.28Z"/><path class="cls-1" d="M143.52,316.45,131.62,294l1.68-3.12,18.61,10,1.48-2.74-41.52-22.4-3.82,7.11c-1.82,3.35-2.67,6.27-2.59,8.65a12.31,12.31,0,0,0,6.92,10.71,13.91,13.91,0,0,0,5.17,1.75,9,9,0,0,0,4.38-.37,11.59,11.59,0,0,0,2.82-1.21,8,8,0,0,0,1.74-1.15,17.34,17.34,0,0,0,3.45-4.16l11.83,22.61,1.75-3.24Zm-12.71-26.94-2.55,4.73c-1.71,3.17-3.77,5.19-6.08,6a9.74,9.74,0,0,1-8.25-.92,11,11,0,0,1-4.19-3.86,8.49,8.49,0,0,1-1.26-5.1,14.6,14.6,0,0,1,2.06-6.21l2.35-4.35,17.92,9.67Z"/><path class="cls-1" d="M141.72,328.47l-12.59-24.06a10.79,10.79,0,0,1-2.44,1.62,14.71,14.71,0,0,1-3.6,1.52,12.46,12.46,0,0,1-6,.51,17.77,17.77,0,0,1-6.63-2.22,16.66,16.66,0,0,1-6.91-6.52,17.07,17.07,0,0,1-2.17-7.71c-.11-3.12.92-6.74,3.08-10.72l5.77-10.72L159,296.48l-5.41,10-14.93-8.07,9.56,18.06Zm-27.17-43-.39.72a10.77,10.77,0,0,0-1.57,4.39,4.55,4.55,0,0,0,.63,2.76,6.8,6.8,0,0,0,2.67,2.44,5.72,5.72,0,0,0,4.9.67c1.31-.49,2.66-1.92,3.85-4.14l.58-1.09Z"/><polygon class="cls-1" points="166.48 197.77 149.13 219.22 151.33 221 159.03 211.48 193.49 239.37 195.45 236.96 160.98 209.06 168.68 199.55 166.48 197.77"/><polygon class="cls-1" points="194.1 245.18 159.63 217.27 151.96 226.79 143.34 219.83 165.88 191.96 174.45 198.96 166.78 208.45 201.25 236.34 194.1 245.18"/><polygon class="cls-1" points="186.67 175.72 219.9 209.2 235.96 193.26 233.97 191.26 220.12 205 204.93 189.69 218.48 176.24 216.49 174.23 202.93 187.68 190.88 175.53 204.74 161.79 202.74 159.78 186.67 175.72"/><polygon class="cls-1" points="219.87 215.03 180.84 175.69 202.75 153.97 210.58 161.79 196.7 175.56 202.95 181.85 216.52 168.38 224.29 176.27 210.75 189.71 220.14 199.17 234.01 185.42 241.77 193.29 219.87 215.03"/><polygon class="cls-1" points="255.59 175.96 251.28 152.33 273.36 161.94 276.02 159.84 250.97 148.98 246.31 123.2 243.64 125.31 247.68 147.78 226.82 138.58 224.15 140.68 248.19 151.17 252.93 178.06 255.59 175.96"/><polygon class="cls-1" points="250.08 185.58 244.51 154.06 216.19 141.7 226.22 133.81 242.25 140.89 239.15 123.6 249.13 115.7 254.62 146.08 283.95 158.78 273.99 166.72 256.73 159.19 260.08 177.65 250.08 185.58"/><polygon class="cls-1" points="272.95 104.58 297.1 145.09 299.78 143.5 287.31 122.6 311.86 107.97 324.31 128.86 326.99 127.27 302.83 86.75 300.16 88.35 310.41 105.53 285.87 120.17 275.62 102.99 272.95 104.58"/><polygon class="cls-1" points="295.67 150.73 267.3 103.14 277.06 97.33 287.3 114.53 304.76 104.11 294.5 86.91 304.26 81.11 332.64 128.7 322.88 134.51 310.43 113.62 292.97 124.03 305.43 144.93 295.67 150.73"/><polygon class="cls-1" points="387.53 99.95 369.42 55.86 353.68 106.14 338.48 69.1 335.6 70.29 353.97 115.04 369.72 64.76 384.65 101.13 387.53 99.95"/><polygon class="cls-1" points="354.5 127.16 330.22 68.07 340.72 63.72 353.15 94.02 368.89 43.74 392.92 102.19 382.4 106.5 370.24 76.88 354.5 127.16"/><polygon class="cls-1" points="404.14 45.23 415.98 90.89 418.99 90.11 413.65 69.5 414.58 68.02 441.71 84.21 445.82 83.15 416.24 65.39 432.69 37.83 428.71 38.86 412.72 65.94 407.15 44.44 404.14 45.23"/><polygon class="cls-1" points="413.02 95.89 399.13 42.27 410.11 39.41 414.23 55.31 426.04 35.29 441.37 31.34 421.87 63.98 456.37 84.68 441.08 88.64 419.53 75.75 424.02 93.09 413.02 95.89"/><path class="cls-1" d="M503,74.47,477.33,28.8,463.87,79.54l3.36-.44,4.25-16.17,19.92-2.58,8.23,14.55,3.37-.44Zm-24.72-37.8,11.63,21L472.24,60Z"/><path class="cls-1" d="M458.31,84.39,476,17.93l33.62,59.83-12.16,1.59L489.19,64.8l-14.42,1.86-4.25,16.18Zm21.36-36.68-1.92,7.4,5.63-.72Z"/><polygon class="cls-1" points="598.26 76.74 602.53 29.27 565.37 66.61 568.96 26.74 565.86 26.47 561.53 74.65 598.69 37.3 595.17 76.46 598.26 76.74"/><polygon class="cls-1" points="556.4 85.64 562.13 22.01 573.44 22.99 570.5 55.62 607.66 18.27 601.99 81.22 590.68 80.19 593.55 48.29 556.4 85.64"/><polygon class="cls-1" points="695.79 101.13 710.64 55.84 666.03 83.85 678.51 45.81 675.55 44.85 660.47 90.81 705.09 62.8 692.83 100.16 695.79 101.13"/><polygon class="cls-1" points="698.42 106.33 687.64 102.79 697.62 72.34 653 100.35 672.92 39.67 683.71 43.18 673.5 74.29 718.11 46.27 698.42 106.33"/><polygon class="cls-1" points="744.32 70.32 723.22 112.5 726 113.9 736.89 92.13 762.44 104.92 751.56 126.67 754.34 128.07 775.44 85.87 772.66 84.49 763.7 102.39 738.15 89.61 747.1 71.7 744.32 70.32"/><polygon class="cls-1" points="756.19 133.59 746.03 128.52 756.91 106.77 738.73 97.66 727.83 119.44 717.7 114.34 742.49 64.77 752.62 69.87 743.68 87.76 761.87 96.85 770.82 78.98 780.96 84.02 756.19 133.59"/><path class="cls-1" d="M799.62,157l3.86-5.41,1.62,1.14a31.44,31.44,0,0,0,8,4.23,18.49,18.49,0,0,0,6.83,1.14,16.27,16.27,0,0,0,5.71-1.31A17.21,17.21,0,0,0,830.2,154a22.19,22.19,0,0,0,3.19-3.63,22.59,22.59,0,0,0,2.43-4.26,17.89,17.89,0,0,0,1.16-5.16,16.5,16.5,0,0,0-.62-5.83,19.1,19.1,0,0,0-3.3-6.09,31.77,31.77,0,0,0-6.62-6.19l-1.61-1.15,3.28-4.61-2.53-1.81-3.28,4.61-1.62-1.15a31.41,31.41,0,0,0-7.95-4.19,19.18,19.18,0,0,0-6.9-1.18,15.16,15.16,0,0,0-5.65,1.36,15.91,15.91,0,0,0-4.5,2.78,23,23,0,0,0-3.29,3.64,22.07,22.07,0,0,0-2.34,4.25,15.52,15.52,0,0,0-1.2,5.22,15.3,15.3,0,0,0,.57,5.79,19.34,19.34,0,0,0,3.36,6.13,31,31,0,0,0,6.56,6.15L801,149.8l-3.86,5.41,2.53,1.81Zm1.25-10.76a23.9,23.9,0,0,1-6.4-6.38,12.43,12.43,0,0,1-2.45-6.43,16.75,16.75,0,0,1,.62-5.64A16.29,16.29,0,0,1,795,123a16.54,16.54,0,0,1,3.81-3.88,17.07,17.07,0,0,1,5.08-2.38,13.1,13.1,0,0,1,6.92.16,25.45,25.45,0,0,1,8.07,4l1.73,1.22-18.06,25.34Zm24-21.07a26.14,26.14,0,0,1,6.5,6.37,13.35,13.35,0,0,1,2.35,6.45,17.22,17.22,0,0,1-.59,5.57,16.58,16.58,0,0,1-2.43,4.87,15.79,15.79,0,0,1-3.77,3.83,16.53,16.53,0,0,1-5.12,2.43,12.64,12.64,0,0,1-6.82-.17,24.56,24.56,0,0,1-8.17-4l-1.74-1.24L823.19,124l1.72,1.23Z"/><path class="cls-1" d="M800.58,162.76l-9.24-6.58,3.9-5.47a34.83,34.83,0,0,1-5.71-5.67,23.57,23.57,0,0,1-4.06-7.48,19.73,19.73,0,0,1-.73-7.34,19.33,19.33,0,0,1,1.54-6.49,25.14,25.14,0,0,1,2.77-5,27,27,0,0,1,3.86-4.29,20,20,0,0,1,5.7-3.52,19.53,19.53,0,0,1,7-1.68,22.23,22.23,0,0,1,8.43,1.41,34.37,34.37,0,0,1,7.23,3.52l3.32-4.67,9.22,6.63-3.31,4.63a34.4,34.4,0,0,1,5.77,5.73,23.37,23.37,0,0,1,4,7.43,20.77,20.77,0,0,1,.79,7.26,22.44,22.44,0,0,1-1.47,6.51,27.2,27.2,0,0,1-2.9,5.1,25.56,25.56,0,0,1-3.81,4.3,21.23,21.23,0,0,1-12.79,5.19,25.49,25.49,0,0,1-8.35-1.37,34,34,0,0,1-7.3-3.58Zm10.32-14.48a18.2,18.2,0,0,0,5.14,2.26,8.79,8.79,0,0,0,4.63.21,12.2,12.2,0,0,0,3.87-1.8,11.92,11.92,0,0,0,2.85-2.9,13,13,0,0,0,1.85-3.68,13.25,13.25,0,0,0,.4-4.19,9.51,9.51,0,0,0-1.69-4.4,20.45,20.45,0,0,0-3.84-4Zm-4.06-27.82a6.68,6.68,0,0,0-1.75.23,12.8,12.8,0,0,0-3.84,1.78,12.18,12.18,0,0,0-2.85,2.92,12.45,12.45,0,0,0-1.81,3.58,13.23,13.23,0,0,0-.45,4.31,8.57,8.57,0,0,0,1.72,4.28,18.56,18.56,0,0,0,3.8,4.13l13.22-18.51a19.62,19.62,0,0,0-5.12-2.3A12,12,0,0,0,806.84,120.46Z"/><path class="cls-1" d="M854.09,170a23.17,23.17,0,0,0-7.15,17.16,24.95,24.95,0,0,0,24.61,24.59,23.17,23.17,0,0,0,17.16-7.16A24.47,24.47,0,1,0,854.09,170Zm2.3,2.3a21.2,21.2,0,0,1,15.15-6.55A21.67,21.67,0,0,1,893,187.09a21.23,21.23,0,0,1-6.54,15.15,20.9,20.9,0,0,1-15.06,6.46,21.51,21.51,0,0,1-21.41-21.39,20.93,20.93,0,0,1,6.45-15.06Z"/><path class="cls-1" d="M871.72,215.82h-.2a29.06,29.06,0,0,1-28.7-28.71A27.15,27.15,0,0,1,851.18,167a28.35,28.35,0,0,1,40.33.1,28.26,28.26,0,0,1,.11,40.32A27.28,27.28,0,0,1,871.72,215.82Zm.06-46h-.19a17.18,17.18,0,0,0-12.29,5.34,16.78,16.78,0,0,0-5.24,12.19,17.4,17.4,0,0,0,17.22,17.24,16.8,16.8,0,0,0,12.22-5.26A17.15,17.15,0,0,0,888.83,187a17.57,17.57,0,0,0-17.05-17.22Z"/><path class="cls-1" d="M921.33,242.12a11.56,11.56,0,0,0,9.53-2.52c3.1-2.35,4.76-5.2,4.93-8.61a15.11,15.11,0,0,0-3.44-9.81l-5.5-7.28-37.62,28.47,1.89,2.49L909,231.32l3.67,4.85c2.52,3.33,5.43,5.3,8.67,6Zm8.6-19.46c2.05,2.71,3,5.36,2.79,7.91a10,10,0,0,1-11.1,8.41,10.57,10.57,0,0,1-6.62-4.4l-3.75-5,15.22-11.53Z"/><path class="cls-1" d="M890.3,250.65l-6.83-9.07,44.17-33.44,8,10.55a19.41,19.41,0,0,1,4.28,12.44c-.25,4.7-2.45,8.62-6.55,11.76s-8.49,4.15-12.85,3.27-8-3.4-11.15-7.52l-1.18-1.55ZM917,230.41l1.27,1.68c1.66,2.19,3.11,2.67,4.05,2.83a4.68,4.68,0,0,0,4-1.15c1.86-1.41,2.18-2.62,2.25-3.53.12-1.49-.54-3.21-2-5.1l-1-1.27Z"/><polygon class="cls-1" points="953.02 267.41 927.4 302.83 971.01 299.81 939.9 321.85 941.41 324.57 981.46 296.19 933.39 299.5 961.62 260.45 916.35 279.44 917.86 282.16 953.02 267.41"/><polygon class="cls-1" points="940.04 330.59 934.5 320.63 956.65 304.93 918.9 307.55 941.1 276.89 916.05 287.39 910.51 277.43 973.56 250.97 941.89 294.79 995.81 291.05 940.04 330.59"/><path class="cls-1" d="M964.4,383.45l38.9-35.09-52.45-2,1.16,3.19,16.71.59L975.61,369l-12.38,11.23ZM995.84,351l-18,16-6.12-16.74Z"/><path class="cls-1" d="M962.62,390.59l-4.21-11.52,12.39-11.24-5-13.66-16.72-.58L944.87,342l68.74,2.6Zm15.1-36,1.95,5.33,5.71-5.09Z"/><polygon class="cls-1" points="978.87 442.91 969.6 444.92 970.24 447.82 982.25 445.21 981.12 439.95 1024.44 430.52 1023.78 427.47 980.46 436.91 974.46 409.41 1017.79 399.98 1017.13 396.93 971.04 406.97 978.87 442.91"/><polygon class="cls-1" points="967.08 452.72 964.72 441.76 973.96 439.75 966.14 403.81 1020.3 392.02 1022.67 403.13 979.36 412.57 983.6 432 1026.92 422.57 1029.37 433.65 986.02 443.11 987.15 448.36 967.08 452.72"/><polygon class="cls-1" points="985.16 506.65 1032.71 503.39 989.98 472.58 1029.92 469.84 1029.7 466.74 981.45 470.05 1024.18 500.86 984.94 503.55 985.16 506.65"/><polygon class="cls-1" points="981.33 511.04 980.55 499.73 1012.51 497.54 969.78 466.73 1033.53 462.35 1034.31 473.66 1001.65 475.9 1044.38 506.72 981.33 511.04"/><path class="cls-1" d="M1008.75,535.85a23.18,23.18,0,0,0-17.75,5.5A24.93,24.93,0,0,0,987.88,576a23.15,23.15,0,0,0,16.48,8.59,24.47,24.47,0,1,0,4.39-48.75Zm-.3,3.24a21.3,21.3,0,0,1,14.74,7.43,21.7,21.7,0,0,1-2.71,30.15,21.17,21.17,0,0,1-15.82,4.68,20.84,20.84,0,0,1-14.6-7.42,21.5,21.5,0,0,1,2.7-30.14A20.94,20.94,0,0,1,1008.45,539.09Z"/><path class="cls-1" d="M1006.86,588.82c-.94,0-1.9,0-2.87-.12a27.21,27.21,0,0,1-19.29-10.08,29.05,29.05,0,0,1,3.65-40.43,27,27,0,0,1,20.76-6.45h0a28.73,28.73,0,0,1,15.7,50.52A27.32,27.32,0,0,1,1006.86,588.82Zm-.68-45.7a16.4,16.4,0,0,0-10.8,3.85,17.39,17.39,0,0,0-2.22,24.26,16.64,16.64,0,0,0,11.85,6,17.21,17.21,0,0,0,12.89-3.77A17.59,17.59,0,0,0,1020,549.2a17,17,0,0,0-12-6h0C1007.43,543.15,1006.8,543.12,1006.18,543.12Z"/><polygon class="cls-1" points="1021.67 620.55 975.91 609.08 975.15 612.1 998.75 618.02 991.81 645.73 968.21 639.82 967.46 642.83 1013.21 654.3 1013.97 651.28 994.55 646.42 1001.5 618.7 1020.91 623.57 1021.67 620.55"/><polygon class="cls-1" points="1016.21 659.31 962.49 645.84 965.19 634.83 988.82 640.72 993.75 621.02 970.13 615.11 972.93 604.08 1026.67 617.55 1023.91 628.56 1004.49 623.7 999.56 643.42 1018.95 648.28 1016.21 659.31"/><polygon class="cls-1" points="1001.78 689.01 958.16 671.06 956.98 673.94 979.48 683.2 968.6 709.62 946.11 700.36 944.92 703.24 988.55 721.19 989.73 718.31 971.22 710.7 982.1 684.27 1000.61 691.89 1001.78 689.01"/><polygon class="cls-1" points="990.79 726.58 939.56 705.48 943.87 694.98 966.36 704.24 974.1 685.45 951.61 676.18 955.91 665.67 1007.16 686.77 1002.85 697.28 984.34 689.65 976.6 708.45 995.1 716.07 990.79 726.58"/><path class="cls-1" d="M925.4,740.42c-2.64,4.44-3.43,8.41-2.42,12a14.11,14.11,0,0,0,6.6,8.28c7.42,4.41,13.91,1.92,19.44-7.38l4.19-7,17.44,10.37,1.59-2.68-40.55-24.09ZM947,751.12c-2.13,3.59-4.07,5.89-5.8,7q-4.68,2.89-10-.25c-3-1.77-4.72-4-5.35-6.63-.69-2.87.17-6.4,2.6-10.47l4-6.81,18.24,10.83Zm-32.16,7-1.58,2.68,40.55,24.09,1.59-2.68Z"/><path class="cls-1" d="M955.27,790.6l-47.66-28.32,5.81-9.75,6.8,4a18.19,18.19,0,0,1-1.19-3c-1.33-4.73-.38-9.84,2.83-15.24l8.39-14.12,47.63,28.28-5.8,9.78L954.63,751.9l-2.07,3.49c-4.9,8.27-10.26,11.12-15,11.48l23.48,14Zm-21.29-51L932,742.87c-1.8,3-2.55,5.66-2.14,7.42.24,1,.84,2.49,3.44,4,2.8,1.7,4.43,1.06,5.71.29.5-.31,2-1.58,4.4-5.58l0,0,1.65-2.78Z"/><polygon class="cls-1" points="933.04 814.36 895.93 785.23 881.96 803.03 884.19 804.77 896.24 789.42 913.2 802.74 901.42 817.76 903.64 819.51 915.43 804.49 928.89 815.06 916.84 830.41 919.07 832.16 933.04 814.36"/><polygon class="cls-1" points="919.77 837.93 911.06 831.1 923.11 815.76 916.13 810.27 904.31 825.3 895.63 818.46 907.42 803.44 896.94 795.2 884.89 810.56 876.18 803.72 895.23 779.44 938.82 813.65 919.77 837.93"/><path class="cls-1" d="M853.54,898.35A24.27,24.27,0,0,0,856.61,864a23.34,23.34,0,0,0-16.42-8.55,23.76,23.76,0,0,0-18,5.82,23.14,23.14,0,0,0-8.24,14.59l2.64,3.14a20.58,20.58,0,0,1,2.39-9,21,21,0,0,1,5.14-6.64,20.66,20.66,0,0,1,6.54-3.65,22,22,0,0,1,7.75-1.34,18.14,18.14,0,0,1,8.21,1.87A20.55,20.55,0,0,1,854,866a21.38,21.38,0,0,1,5.23,15.66,20.1,20.1,0,0,1-7.48,14.51,20.82,20.82,0,0,1-7.94,4.19,22.63,22.63,0,0,1-9,.37l2.64,3.14a22.19,22.19,0,0,0,16.09-5.49Z"/><path class="cls-1" d="M838.94,908c-.58,0-1.16,0-1.74-.06l-1.77-.09L824.61,895l10.82,1.65a17.71,17.71,0,0,0,7.41-.28A16.76,16.76,0,0,0,849.1,893a16.06,16.06,0,0,0,6-11.65,17.12,17.12,0,0,0-4.28-12.72,16.36,16.36,0,0,0-6-4.66,14.46,14.46,0,0,0-6.42-1.5,20.47,20.47,0,0,0-6.47,1.09,16.52,16.52,0,0,0-5.25,2.91,17.07,17.07,0,0,0-4.16,5.37,16.34,16.34,0,0,0-1.92,7.32l-.46,10.59-10.67-12.68.29-1.86a27.28,27.28,0,0,1,9.67-17.1,28.15,28.15,0,0,1,21-6.78,28.42,28.42,0,0,1,15.65,50.18A26.19,26.19,0,0,1,838.94,908Z"/><polygon class="cls-1" points="813.62 927.36 788.21 887.62 769.15 899.81 770.67 902.2 787.11 891.68 798.73 909.85 782.65 920.14 784.17 922.53 800.26 912.23 809.48 926.66 793.03 937.18 794.56 939.55 813.62 927.36"/><polygon class="cls-1" points="793.32 945.23 787.31 935.94 803.78 925.41 799.01 917.94 782.91 928.22 776.97 918.89 793.04 908.6 785.87 897.38 769.44 907.88 763.45 898.56 789.46 881.92 819.29 928.61 793.32 945.23"/><polygon class="cls-1" points="746.01 965.29 770.74 953.08 769.48 950.55 758.51 955.96 738.88 916.21 736.09 917.59 755.73 957.34 744.76 962.76 746.01 965.29"/><polygon class="cls-1" points="744.15 970.8 739.24 960.89 750.22 955.47 730.56 915.71 740.76 910.69 760.39 950.44 771.35 945.02 776.25 954.93 744.15 970.8"/><polygon class="cls-1" points="667.8 944.67 683.3 989.76 701.96 940.48 714.98 978.34 717.92 977.33 702.19 931.58 683.53 980.85 670.75 943.67 667.8 944.67"/><polygon class="cls-1" points="683.12 1001.89 662.56 942.12 673.3 938.44 683.71 968.73 702.37 919.47 723.14 979.87 712.44 983.6 701.77 952.6 683.12 1001.89"/><path class="cls-1" d="M293.09,697.53a4.6,4.6,0,0,0,6.27,1.53,338.67,338.67,0,0,1,59.77-27.46,4.6,4.6,0,0,0,2.94-5.42,511.77,511.77,0,0,1-13.6-102.43,4.61,4.61,0,0,0-4.61-4.46h-89a4.59,4.59,0,0,0-4.59,4.92,290,290,0,0,0,42.78,133.31Zm22.58,31.58A293.5,293.5,0,0,0,419.51,809a4.43,4.43,0,0,0,1.92.42,4.54,4.54,0,0,0,3.64-1.78,4.6,4.6,0,0,0-.07-5.73c-21.7-26.69-39.4-60.21-52.58-99.58a4.65,4.65,0,0,0-2.36-2.69,4.75,4.75,0,0,0-2-.45,4.57,4.57,0,0,0-1.56.27,310.51,310.51,0,0,0-49.57,22.72,4.63,4.63,0,0,0-1.25,6.93ZM520,832.93a4.29,4.29,0,0,0,1,.12,4.64,4.64,0,0,0,2.89-1,4.59,4.59,0,0,0,1.72-3.6v-152a4.61,4.61,0,0,0-4.61-4.61h-.14c-41.07,1.3-80.39,6.72-116.85,16.1a4.58,4.58,0,0,0-2.91,2.28,4.63,4.63,0,0,0-.31,3.68c26.07,76,70.63,128,119.2,139Zm34.48-194.51a4.6,4.6,0,0,0,4.47,4.6c43.89,1.33,86.09,7.19,125.41,17.44a5.66,5.66,0,0,0,1.16.14,4.59,4.59,0,0,0,4.48-3.52,475,475,0,0,0,12.68-93,4.71,4.71,0,0,0-1.28-3.38,4.66,4.66,0,0,0-3.32-1.41h-139a4.61,4.61,0,0,0-4.6,4.62v74.51Zm0,190a4.59,4.59,0,0,0,4.6,4.61,4.44,4.44,0,0,0,1-.12c48.58-11,93.14-63,119.21-139a4.64,4.64,0,0,0-3.22-6c-36.44-9.37-75.76-14.77-116.87-16.06h-.14a4.57,4.57,0,0,0-4.6,4.61v152ZM655,807.64a4.56,4.56,0,0,0,3.65,1.78,4.39,4.39,0,0,0,1.91-.42,293.09,293.09,0,0,0,103.83-79.89,4.67,4.67,0,0,0,1-3.76,4.6,4.6,0,0,0-2.24-3.15,308.19,308.19,0,0,0-49.52-22.79,4.71,4.71,0,0,0-1.57-.27,4.55,4.55,0,0,0-2,.46,4.67,4.67,0,0,0-2.37,2.68c-13.19,39.4-30.89,72.92-52.6,99.63A4.61,4.61,0,0,0,655,807.64ZM783,699.73a4.61,4.61,0,0,0,3.91-2.19,290,290,0,0,0,42.8-133.33,4.59,4.59,0,0,0-4.6-4.92h-89a4.62,4.62,0,0,0-4.62,4.46A510.13,510.13,0,0,1,718,666.17a4.62,4.62,0,0,0,2.94,5.42,338.81,338.81,0,0,1,59.76,27.49,4.72,4.72,0,0,0,2.36.65ZM377.39,564.08a474.19,474.19,0,0,0,12.68,93,4.62,4.62,0,0,0,2.11,2.87,4.52,4.52,0,0,0,2.37.65,5,5,0,0,0,1.16-.14c39.36-10.25,81.56-16.12,125.41-17.45a4.6,4.6,0,0,0,4.47-4.6V563.91a4.61,4.61,0,0,0-4.61-4.62H382a4.61,4.61,0,0,0-4.59,4.79ZM859.26,548.4C857.37,722.83,714.9,864.14,540,864.14S222.66,722.83,220.77,548.4c0-1,0-2,0-3.06h0A12.2,12.2,0,0,1,233,533.14H847.08a12.21,12.21,0,0,1,12.21,12.2h0C859.29,546.36,859.28,547.37,859.26,548.4Z"/><path class="cls-1" d="M540,894a93,93,0,0,0-84.42,132c.59,1.29,1.22,2.56,1.88,3.82a93,93,0,0,0,165.07,0c.66-1.26,1.28-2.54,1.88-3.83A93,93,0,0,0,540,894Zm77.93,133c-.67,1.3-1.37,2.57-2.1,3.83a87.6,87.6,0,0,1-151.67,0c-.74-1.25-1.43-2.53-2.1-3.82a87.64,87.64,0,1,1,155.87,0Z"/><path class="cls-1" d="M540,894a93,93,0,0,0-84.42,132c.59,1.29,1.22,2.56,1.88,3.82a93,93,0,0,0,165.07,0c.66-1.26,1.28-2.54,1.88-3.83A93,93,0,0,0,540,894Zm77.93,133c-.67,1.3-1.37,2.57-2.1,3.83a87.6,87.6,0,0,1-151.67,0c-.74-1.25-1.43-2.53-2.1-3.82a87.64,87.64,0,1,1,155.87,0Z"/><path class="cls-1" d="M515,931.21a.9.9,0,0,0-.41.09,61.86,61.86,0,0,0-21.89,16.85,1,1,0,0,0,.26,1.46,65.8,65.8,0,0,0,10.46,4.79.74.74,0,0,0,.33.05,1.22,1.22,0,0,0,.42-.09,1,1,0,0,0,.49-.56,66.89,66.89,0,0,1,11.1-21,1,1,0,0,0,0-1.2A1,1,0,0,0,515,931.21Zm50,0a1,1,0,0,0-.77.38,1,1,0,0,0,0,1.2,66.68,66.68,0,0,1,11.1,21,.94.94,0,0,0,.5.57,1,1,0,0,0,.42.09,1,1,0,0,0,.33-.05,66.74,66.74,0,0,0,10.44-4.8,1,1,0,0,0,.47-.67.94.94,0,0,0-.2-.79,62.07,62.07,0,0,0-21.89-16.85.9.9,0,0,0-.41-.09Zm-29-5a.61.61,0,0,0-.23,0c-10.23,2.31-19.63,13.27-25.13,29.3a1.08,1.08,0,0,0,.07.79,1,1,0,0,0,.62.47A113.64,113.64,0,0,0,536,960.21h0a.94.94,0,0,0,.67-.27,1,1,0,0,0,.3-.69v-32a1,1,0,0,0-.36-.76,1,1,0,0,0-.61-.22Zm8,0a.91.91,0,0,0-.6.22.94.94,0,0,0-.36.75v32a1,1,0,0,0,.29.69.94.94,0,0,0,.67.27h0a112.42,112.42,0,0,0,24.63-3.39,1,1,0,0,0,.62-.47,1,1,0,0,0,.07-.77c-5.5-16-14.89-27-25.14-29.33a.78.78,0,0,0-.22,0Zm-55.26,28.12a1,1,0,0,0-.82.45,61.23,61.23,0,0,0-9,28.12,1,1,0,0,0,.27.72,1,1,0,0,0,.71.32h18.76a1,1,0,0,0,1-.93,108,108,0,0,1,2.87-21.61,1,1,0,0,0-.62-1.15,71.51,71.51,0,0,1-12.61-5.78A1,1,0,0,0,488.75,954.35Zm20.57,8.25a1,1,0,0,0-.49.13.94.94,0,0,0-.45.61,99.35,99.35,0,0,0-2.68,19.6,1,1,0,0,0,.27.71.91.91,0,0,0,.7.31H536a1,1,0,0,0,1-1V967.27a1,1,0,0,0-1-1,119,119,0,0,1-26.44-3.68,1.06,1.06,0,0,0-.25,0Zm61.36,0a.72.72,0,0,0-.25,0A119.44,119.44,0,0,1,544,966.3a1,1,0,0,0-.94,1V983a1,1,0,0,0,1,1h29.32a.93.93,0,0,0,.7-.31,1,1,0,0,0,.27-.71,100.86,100.86,0,0,0-2.67-19.6,1,1,0,0,0-.46-.61,1,1,0,0,0-.49-.14Zm20.56-8.26a1.13,1.13,0,0,0-.5.13,70.22,70.22,0,0,1-12.59,5.8,1,1,0,0,0-.63,1.15A106.53,106.53,0,0,1,580.39,983a1,1,0,0,0,1,.93h18.75a1,1,0,0,0,1-1,61.09,61.09,0,0,0-9-28.12.94.94,0,0,0-.82-.46ZM544,990a1,1,0,0,0-1,1v15.71a1,1,0,0,0,.94,1,119.52,119.52,0,0,1,26.44,3.68,1.09,1.09,0,0,0,.25,0,1,1,0,0,0,.49-.14,1,1,0,0,0,.46-.61,101,101,0,0,0,2.67-19.61,1,1,0,0,0-1-1Zm-37.34,0a.94.94,0,0,0-.7.3,1,1,0,0,0-.27.71,99.55,99.55,0,0,0,2.68,19.62.94.94,0,0,0,.45.6,1,1,0,0,0,.49.14,1.09,1.09,0,0,0,.25,0A119.6,119.6,0,0,1,536,1007.7a1,1,0,0,0,1-1V991a1,1,0,0,0-1-1H506.67Zm-26.79,0a.94.94,0,0,0-.71.3,1,1,0,0,0-.27.74,61.19,61.19,0,0,0,9,28.11,1,1,0,0,0,.82.46,1,1,0,0,0,.5-.14,71.85,71.85,0,0,1,12.61-5.79,1,1,0,0,0,.62-1.13A108.15,108.15,0,0,1,499.61,991a1,1,0,0,0-1-.94Zm101.49,0a1,1,0,0,0-1,.94,106.72,106.72,0,0,1-2.87,21.61,1,1,0,0,0,.63,1.13,71.25,71.25,0,0,1,12.59,5.8,1.13,1.13,0,0,0,.5.13,1,1,0,0,0,.82-.45,61.13,61.13,0,0,0,9-28.12,1,1,0,0,0-.27-.74.94.94,0,0,0-.71-.29H581.37Zm-5.1,29.49a.87.87,0,0,0-.42.1,1,1,0,0,0-.5.56,66.63,66.63,0,0,1-11.1,21,1,1,0,0,0,0,1.2,1,1,0,0,0,.77.38,1,1,0,0,0,.41-.09,61.84,61.84,0,0,0,21.89-16.85,1,1,0,0,0-.27-1.45,64.06,64.06,0,0,0-10.44-4.81A1,1,0,0,0,576.27,1019.53Zm-72.53,0a.93.93,0,0,0-.33.07,65.8,65.8,0,0,0-10.46,4.79,1,1,0,0,0-.47.67,1,1,0,0,0,.21.79,61.75,61.75,0,0,0,21.89,16.85,1,1,0,0,0,.41.09,1,1,0,0,0,.77-.38,1,1,0,0,0,0-1.2,66.94,66.94,0,0,1-11.1-21,.93.93,0,0,0-.49-.57.91.91,0,0,0-.42-.11Zm32.21-5.75a113,113,0,0,0-24.63,3.4,1,1,0,0,0-.62.47,1.06,1.06,0,0,0-.07.78c5.5,16,14.9,27,25.13,29.32l.23,0a1,1,0,0,0,.61-.21,1,1,0,0,0,.36-.76v-32a1,1,0,0,0-.3-.7,1,1,0,0,0-.67-.28Zm8.06,0a1,1,0,0,0-1,1v32a1,1,0,0,0,1,1l.22,0c10.24-2.34,19.63-13.3,25.14-29.33a1,1,0,0,0-.07-.77,1,1,0,0,0-.62-.48,113.11,113.11,0,0,0-24.63-3.39Zm-4,40.55A67.33,67.33,0,1,1,607.32,987,67.41,67.41,0,0,1,540,1054.33Z"/><path class="cls-1" d="M540,1057a70,70,0,1,1,70-70A70.1,70.1,0,0,1,540,1057Zm0-134.65A64.64,64.64,0,1,0,604.64,987,64.72,64.72,0,0,0,540,922.36Zm4,128.1a3.6,3.6,0,0,1-2.31-.85,3.4,3.4,0,0,1-1.34-2.81v-32a3.71,3.71,0,0,1,1.07-2.61,3.76,3.76,0,0,1,2.58-1.06h0a114.42,114.42,0,0,1,25.31,3.49,3.54,3.54,0,0,1,2.3,1.74,3.68,3.68,0,0,1,.21,3.09c-5.75,16.79-15.88,28.41-27,30.95Zm1.72-33.92v28c8-2.81,15.56-12,20.45-25.26A110.56,110.56,0,0,0,545.73,1016.54Zm22.24,3.22a.42.42,0,0,0,.15,0Zm-1.15-2.2a.16.16,0,0,0,0,.08A.16.16,0,0,1,566.82,1017.56ZM536,1050.46l-.83-.08c-11.14-2.55-21.25-14.17-27.08-31.07a3.83,3.83,0,0,1,.22-2.87,3.74,3.74,0,0,1,2.34-1.86,116.27,116.27,0,0,1,25.23-3.49H536a3.66,3.66,0,0,1,2.58,1.07,3.6,3.6,0,0,1,1.08,2.6v32a3.68,3.68,0,0,1-1.36,2.85l-.74.6Zm-22.2-31.13c4.82,13,12.32,22.22,20.49,25.18v-28A111.2,111.2,0,0,0,513.79,1019.33ZM565,1045.48a3.67,3.67,0,0,1-2.85-6,63.46,63.46,0,0,0,10.62-20.19,3.77,3.77,0,0,1,1.92-2.13l2-.35.79.23a68.1,68.1,0,0,1,10.86,5,3.75,3.75,0,0,1,1.76,2.47,3.64,3.64,0,0,1-.77,3,64.34,64.34,0,0,1-22.86,17.6Zm12.31-22.75a73.46,73.46,0,0,1-6.71,14.15,59.44,59.44,0,0,0,13.28-11.17A65,65,0,0,0,577.32,1022.73ZM515,1045.48h-.7l-1-.44a64,64,0,0,1-22.67-17.49,3.66,3.66,0,0,1,1-5.47,66.67,66.67,0,0,1,10.91-5l1.75-.23.91.28a3.86,3.86,0,0,1,2.06,2.22,63.83,63.83,0,0,0,10.61,20.16,3.62,3.62,0,0,1,.08,4.53A3.76,3.76,0,0,1,515,1045.48Zm-1.34-2.59,0,0Zm-17.54-17.18a59.22,59.22,0,0,0,13.28,11.17,74,74,0,0,1-6.69-14.14A65.58,65.58,0,0,0,496.11,1025.71Zm95.13-3.36h-.68l-1.11-.47a70.88,70.88,0,0,0-12.19-5.63,3.67,3.67,0,0,1-2.33-4.37,105.64,105.64,0,0,0,2.78-21,3.65,3.65,0,0,1,3.65-3.54h18.76a3.67,3.67,0,0,1,2.68,1.15,3.6,3.6,0,0,1,1,2.72,64.14,64.14,0,0,1-9.43,29.41A3.69,3.69,0,0,1,591.24,1022.35Zm-10.74-10.63a74.79,74.79,0,0,1,10.14,4.65,58.83,58.83,0,0,0,7.62-23.65H583A112.24,112.24,0,0,1,580.5,1011.72Zm-.33,1.39a.38.38,0,0,1,0,.1A.29.29,0,0,0,580.17,1013.11Zm2.91-22.06v0Zm-94.33,31.28a3.66,3.66,0,0,1-3.06-1.65,64.14,64.14,0,0,1-9.47-29.42,3.77,3.77,0,0,1,1-2.76,3.67,3.67,0,0,1,2.68-1.15h18.76a3.65,3.65,0,0,1,3.65,3.56,105.76,105.76,0,0,0,2.8,21.05,3.67,3.67,0,0,1-2.29,4.28,69.59,69.59,0,0,0-12.19,5.6l-.63.36Zm-7-29.61a58.74,58.74,0,0,0,7.63,23.63,74.49,74.49,0,0,1,10.16-4.63,110.38,110.38,0,0,1-2.53-19Zm15.19-1.66v0Zm73.76,23c-.23,0-.47,0-.7-.05a117.43,117.43,0,0,0-26.08-3.66,3.67,3.67,0,0,1-3.54-3.65V991a3.67,3.67,0,0,1,3.65-3.67h29.31a3.67,3.67,0,0,1,3.67,3.7,102.7,102.7,0,0,1-2.74,20.23,3.78,3.78,0,0,1-1.65,2.26l-.65.41Zm-24.95-9a121.67,121.67,0,0,1,23.67,3.28,97.63,97.63,0,0,0,2.13-15.63h-25.8Zm-36.41,9a3.63,3.63,0,0,1-3.57-2.84A103.19,103.19,0,0,1,503,991.16a3.74,3.74,0,0,1,1-2.64,3.62,3.62,0,0,1,2.69-1.17l29.31,0a3.66,3.66,0,0,1,3.66,3.65v15.71a3.67,3.67,0,0,1-3.56,3.65,118,118,0,0,0-25.83,3.6ZM511,1010s0,0,0,0S511,1010,511,1010Zm-2.51-17.25a97.36,97.36,0,0,0,2.14,15.64,119.24,119.24,0,0,1,23.67-3.31V992.74Zm91.65-6.1H581.36a3.68,3.68,0,0,1-3.65-3.55,105.76,105.76,0,0,0-2.8-21.05,3.65,3.65,0,0,1,2.39-4.32,68.31,68.31,0,0,0,12.06-5.54l.64-.39,1.24-.14a3.65,3.65,0,0,1,3.11,1.73,63.87,63.87,0,0,1,9.43,29.36,3.67,3.67,0,0,1-1,2.81A3.61,3.61,0,0,1,600.12,986.64Zm-17-3.73v0Zm-.07-1.64h15.26a58.41,58.41,0,0,0-7.64-23.62,72.76,72.76,0,0,1-10.15,4.63A110.07,110.07,0,0,1,583,981.27Zm-3.89-18.48h0Zm1-2.06a.56.56,0,0,1,0,.07S580.13,960.76,580.13,960.73Zm-6.81,25.91H544a3.66,3.66,0,0,1-3.65-3.66v-15.7a3.65,3.65,0,0,1,3.55-3.67A117.24,117.24,0,0,0,569.74,960l1.62-.12,1.11.46a3.7,3.7,0,0,1,1.75,2.25,102.31,102.31,0,0,1,2.77,20.2,3.68,3.68,0,0,1-1.15,2.8A3.38,3.38,0,0,1,573.32,986.64Zm-27.59-5.37h25.8a97.3,97.3,0,0,0-2.13-15.61,122.89,122.89,0,0,1-23.67,3.27ZM536,986.64H506.68a3.65,3.65,0,0,1-2.75-1.23A3.58,3.58,0,0,1,503,983a102.48,102.48,0,0,1,2.76-20.25,3.6,3.6,0,0,1,1.73-2.31l.61-.34,1.65-.14.67.15a115.82,115.82,0,0,0,25.67,3.55,3.65,3.65,0,0,1,3.55,3.67V983A3.67,3.67,0,0,1,536,986.64Zm-27.52-5.37h25.81V968.93a122.25,122.25,0,0,1-23.68-3.27A98.48,98.48,0,0,0,508.47,981.27ZM511,963.93s0,0,0,.05A.11.11,0,0,1,511,963.93Zm-12.37,22.71H479.88a3.66,3.66,0,0,1-3.66-3.86,64,64,0,0,1,9.42-29.4,3.72,3.72,0,0,1,3.11-1.71h.85l1.19.62a70.56,70.56,0,0,0,12,5.46,3.62,3.62,0,0,1,2.33,4.27,106.16,106.16,0,0,0-2.8,21.09A3.67,3.67,0,0,1,498.64,986.64Zm-1.72-3.72v0Zm-15.18-1.65H497a110.13,110.13,0,0,1,2.53-19,75.55,75.55,0,0,1-10.18-4.63A58.73,58.73,0,0,0,481.74,981.27ZM501,962.8a0,0,0,0,1,0,0A0,0,0,0,0,501,962.8Zm35,.1a116.14,116.14,0,0,1-25.34-3.48,3.71,3.71,0,0,1-2.3-1.75,3.81,3.81,0,0,1-.31-2.84c5.87-17.06,16-28.67,27.12-31.2l1.81-.08,1.35.84a3.62,3.62,0,0,1,1.33,2.81v32a3.69,3.69,0,0,1-1,2.53A3.81,3.81,0,0,1,536,962.9Zm-22.2-8.24a111,111,0,0,0,20.49,2.8v-28C526.31,932.2,518.71,941.44,513.79,954.66ZM536,926.23v0Zm8.14,36.67a3.64,3.64,0,0,1-3.77-3.65v-32a3.56,3.56,0,0,1,1.42-2.88l.73-.56,1.77-.21.47.06c11.24,2.55,21.36,14.17,27.15,31.1a3.46,3.46,0,0,1-.2,2.85,3.66,3.66,0,0,1-2.47,1.89,115.81,115.81,0,0,1-25.1,3.45Zm1.6-33.41v28a111.47,111.47,0,0,0,20.46-2.78C561.33,941.58,553.87,932.44,545.73,929.49Zm21.07,26.92a.84.84,0,0,0,.06.14Zm1.21-2.19a.29.29,0,0,0-.11,0A.29.29,0,0,1,568,954.22Zm8.25,2.93a3.7,3.7,0,0,1-1.5-.31,3.79,3.79,0,0,1-2-2.13,64,64,0,0,0-10.64-20.24,3.61,3.61,0,0,1-.11-4.47,3.69,3.69,0,0,1,3-1.48h.7l1,.44a63.67,63.67,0,0,1,22.66,17.49,3.59,3.59,0,0,1,.78,3,3.79,3.79,0,0,1-1.75,2.46,69.12,69.12,0,0,1-10.88,5Zm-5.65-20a72.87,72.87,0,0,1,6.72,14.21c2.19-.91,4.45-1.93,6.55-3.06A58.78,58.78,0,0,0,570.61,937.13Zm14.6,12.72s0,0,.06.07S585.23,949.87,585.21,949.85ZM566.29,931l.09.1Zm-62.55,26.11a3.3,3.3,0,0,1-1.67-.41,60.42,60.42,0,0,1-10.47-4.79,3.7,3.7,0,0,1-1.76-2.47,3.8,3.8,0,0,1,.74-3,64.48,64.48,0,0,1,22.89-17.62l1.52-.34a3.65,3.65,0,0,1,2.74,6.08,64.48,64.48,0,0,0-10.53,20,3.72,3.72,0,0,1-1.83,2.1l-.57.29Zm-7.63-8.85a61.33,61.33,0,0,0,6.59,3,73.81,73.81,0,0,1,6.68-14.1A59.16,59.16,0,0,0,496.11,948.28Zm17.54-17.19-.1.13A1.47,1.47,0,0,0,513.65,931.09Z"/></g></svg>