<svg id="Layer_1" data-name="Layer 1" xmlns="http://www.w3.org/2000/svg" viewBox="0 0 1080 1080"><defs><style>.cls-1,.cls-2{fill:#3a60aa;}.cls-2{font-size:70.78px;font-family:FuturaPT-Heavy, Futura PT;font-weight:800;}</style></defs><path class="cls-1" d="M515.91,553.27c0,1.18,0,2.35,0,3.53s-.63,1.58-1.72,1.82c-6.49,1.41-8.18.07-8.18-6.41,0-58.83,0,24.85,0-34,0-5,0-5-5.1-5q-77,0-153.9,0a8.24,8.24,0,0,1-6.46-2.68c-14.22-14.38-28.63-28.57-42.78-43-3.43-3.5-6.11-5.32-11.58-3.37-9.23,3.3-19.48-1.82-24.07-10.6a21.39,21.39,0,0,1,31-27.39c8.18,5.78,11.67,16.38,7.72,25.27-1.3,2.93-.62,4.4,1.31,6.31q21.65,21.5,43.17,43.13a6.85,6.85,0,0,0,5.32,2.09q39.36-.07,78.72,0c.88,0,2.11.5,2.57-.52.56-1.23-.77-1.82-1.47-2.51-12.8-12.81-25.66-25.57-38.42-38.43-1.78-1.81-3.19-1.93-5.51-1A21.28,21.28,0,0,1,363,426.29,21.4,21.4,0,0,1,390.09,423a21.06,21.06,0,0,1,8,26.32c-.78,1.82-.93,3.09.64,4.65q23.78,23.63,47.42,47.38a5.22,5.22,0,0,0,4,1.74c6.94-.09,13.89-.16,20.83,0,2.91.07,3.59-1.08,3.57-3.74q-.15-16.41,0-32.82a6.73,6.73,0,0,0-2.29-5.22q-35.5-35.37-70.84-70.9a9,9,0,0,0-7.07-2.94c-21.65.09-43.3,0-64.95.14a10.14,10.14,0,0,1-8-3.37c-12.14-12.31-24.45-24.44-36.6-36.74-1.74-1.76-3.2-2.06-5.55-1.37a20.2,20.2,0,0,1-18.14-3A21.31,21.31,0,1,1,292,335.93c-1.18,2.16-1.1,3.39.64,5.12q16.83,16.59,33.44,33.41a9,9,0,0,0,7.11,3c21.53-.12,43.06,0,64.59-.14a10.63,10.63,0,0,1,8.32,3.42q37.82,38,75.84,75.86a8.66,8.66,0,0,1,2.83,6.79c-.14,12,0,24-.12,36,0,3,.95,3.85,3.82,3.72,4.58-.2,9.19-.23,13.76,0,3.05.17,3.82-1,3.8-3.84q-.15-22.41,0-44.83a6.78,6.78,0,0,0-2.25-5.24Q484.81,430.42,466,411.52q-50.76-50.76-101.55-101.47a7.6,7.6,0,0,1-2.4-5.91c.09-13.18-.09-26.36.09-39.53.05-3.35-.64-5.16-4-6.61a21.18,21.18,0,0,1,9.11-40.44,21.29,21.29,0,0,1,20.63,16.54c2.17,10.06-2.64,20-12.18,24.06-3,1.26-3.68,2.84-3.65,5.72.1,12.12,0,24.24,0,36.36a6.06,6.06,0,0,0,1.72,4.75q40.61,40.49,81.13,81c.7.71,1.35,2.1,2.44,1.67,1.32-.53.72-2.08.73-3.18.05-7.41-.06-14.82.08-22.23a8.23,8.23,0,0,0-2.7-6.51c-12.54-12.41-25-24.94-37.49-37.37a7.08,7.08,0,0,1-2.33-5.58c.11-5.29-.1-10.59.06-15.88.08-2.6-.77-3.91-3.25-5a21.1,21.1,0,0,1-12.51-24.84,21.31,21.31,0,0,1,41.59,1.12,21,21,0,0,1-12.5,23.6c-2.68,1.07-3.62,2.42-3.48,5.19.2,3.75.16,7.53,0,11.29a7.27,7.27,0,0,0,2.51,5.88c12.53,12.41,24.94,24.95,37.5,37.33a8.64,8.64,0,0,1,2.81,6.82c-.11,12.48.05,24.95-.11,37.42a8.21,8.21,0,0,0,2.75,6.46c14,13.91,27.92,28,42,41.83a9.11,9.11,0,0,1,2.91,6.12Q515.91,501.74,515.91,553.27Z"/><path class="cls-1" d="M574,464.91c0-29.29,0,83.91,0,54.62,0-1.42.09-2.83.1-4.24s.77-2.09,2.23-2c1.06.05,2.12,0,3.18,0q76.77,0,153.54,0a8.27,8.27,0,0,0,6.43-2.77c15.32-15.45,30.77-30.77,46.08-46.24,1.79-1.8,3.1-1.59,5.2-.73a21.28,21.28,0,0,0,27.41-28.72,21.55,21.55,0,0,0-19.82-12.33,21.15,21.15,0,0,0-18.92,29.68c.89,2.07.61,3.32-1,4.91q-21.94,21.74-43.69,43.66a7.12,7.12,0,0,1-5.56,2.3C703,503,676.75,503,650.51,503c-.89,0-2.15.54-2.63-.39-.63-1.24.84-1.76,1.51-2.43,12.68-12.76,25.42-25.46,38.08-38.25,1.86-1.88,3.43-2.44,6.12-1.35a21,21,0,0,0,24.47-6.33,21.33,21.33,0,1,0-37.94-14.71,18.65,18.65,0,0,0,1.74,9.62c1.07,2.24.59,3.58-1.05,5.2q-23.52,23.38-46.91,46.9a5.62,5.62,0,0,1-4.36,1.79c-6.94-.07-13.88-.12-20.82,0-2.49.05-3.29-.82-3.27-3.25q.12-16.95,0-33.89a5.58,5.58,0,0,1,2-4.29q36.2-36.17,72.32-72.4c1.52-1.53,3.19-1.71,5.12-1.71,22.24,0,44.48,0,66.71.08a7.9,7.9,0,0,0,6.2-2.53c12.32-12.46,24.78-24.79,37.08-37.26,1.87-1.9,3.4-2.45,6.09-1.65,11.77,3.49,23.58-3.65,26.49-15.72,2.79-11.54-4.87-23.27-16.77-25.67-11.65-2.35-23,5.77-25,17.71a21.11,21.11,0,0,0,2.62,13.92c1,1.82.82,2.88-.57,4.26Q770,358.2,752.52,375.86c-1.55,1.56-3.33,1.49-5.21,1.49-22.12,0-44.24,0-66.36-.05a7.87,7.87,0,0,0-6.17,2.51q-37.83,38-75.88,75.84a11.25,11.25,0,0,0-3.67,8.93c.21,11.77,0,23.54.14,35.3,0,2.48-.76,3.26-3.22,3.18-5-.16-10.12-.16-15.17,0-2.38.08-3-.78-3-3q.12-22.95,0-45.89c0-2.26,1-3.69,2.49-5.15q35.21-35.16,70.37-70.36,33.79-33.81,67.65-67.57a10.47,10.47,0,0,0,3.43-8.3c-.2-12.82,0-25.65-.14-38.47,0-3.21.75-4.92,4-6.26,8.92-3.66,13.83-13.57,12.09-23.18a21.32,21.32,0,1,0-29,23.62c2.47,1,3.06,2.34,3,4.71q-.12,18.53,0,37.06a6.85,6.85,0,0,1-2.21,5.29q-40.24,40.11-80.43,80.26c-.76.75-1.37,2.37-2.69,1.79s-.66-2.12-.67-3.22c-.06-7.65,0-15.3-.07-22.94a6.41,6.41,0,0,1,2.1-5c12.68-12.59,25.26-25.27,38-37.83a7.36,7.36,0,0,0,2.46-5.87c-.12-5.41.06-10.83,0-16.24,0-2.33.75-3.5,3-4.41,9.35-3.76,14.25-12.42,13.1-22.6a21.11,21.11,0,0,0-17.26-18.1,21.51,21.51,0,0,0-23.88,13.8c-3.51,10.22.77,21.66,10.47,26,4.06,1.81,4.4,4.16,4.83,8,1,9-2.06,15.4-8.79,21.44-10.83,9.73-20.74,20.49-31.14,30.71a8.71,8.71,0,0,0-2.86,6.81c.11,12.94,0,25.88,0,38.82a6.06,6.06,0,0,1-2.12,4.6C595.43,415.74,581.24,430,567,444.15A8.72,8.72,0,0,0,564,450.9c.07,81.89.05,21.28.1,103.17,0,1.48-1,3.8,1.14,4.3,2.58.61,5.46.87,8-.24,1.41-.62.76-2.56.76-3.91q0-35.84,0-71.66Z"/><path class="cls-1" d="M545,417.47c0-45.53,0,51.44,0,5.9a7.88,7.88,0,0,1,2.58-6.17c11.39-11.23,22.64-22.6,34-33.84a7.89,7.89,0,0,0,2.44-6.27c-.14-9.17-.06-18.35-.11-27.53a6.51,6.51,0,0,1,2.11-5c13-12.92,26-25.93,39-38.86a7.22,7.22,0,0,0,2.36-5.58c-.08-20.59,0-41.18-.13-61.77,0-3.57.66-5.49,4.31-7.12,10.76-4.78,14.9-17.94,9.61-28.75-5-10.14-18-14.39-28.45-9.27a21.24,21.24,0,0,0-9.77,28.25,20.48,20.48,0,0,0,11.66,10.7,3.26,3.26,0,0,1,2.52,3.61q-.06,30.53,0,61.06a5.26,5.26,0,0,1-1.72,4q-14.26,14.17-28.48,28.41c-.64.63-1.2,1.79-2.23,1.42s-.76-1.64-.76-2.53c0-17.29.11-34.59-.09-51.88,0-3.51,2.27-3.88,4.41-4.9A21.24,21.24,0,0,0,578.7,231a21.2,21.2,0,0,0-8,40.77c2.47,1,3.28,2.33,3.28,4.95q-.12,48,0,96a7.91,7.91,0,0,1-2.37,6.3c-7.83,7.64-15.49,15.45-23.28,23.13-.74.73-1.29,2.37-2.7,1.74-1.13-.51-.6-1.91-.6-2.91q0-103.95-.07-207.91c0-2.56.93-3.64,3.24-4.56,9.49-3.82,14.6-13.6,12.71-23.82a21.33,21.33,0,0,0-41.5-1.29,21,21,0,0,0,12.2,24.95c2.83,1.19,3.49,2.71,3.49,5.52Q535,297.34,535,400.76c0,1.09.64,2.65-.74,3.15-1.07.39-1.71-1-2.43-1.72-7.87-7.77-15.67-15.6-23.58-23.32a7.14,7.14,0,0,1-2.25-5.62q.08-48,0-96c0-2.79.62-4.34,3.5-5.51a21.13,21.13,0,0,0,12.37-24.3c-2.42-10.12-11.56-16.84-22.23-16.36-10,.44-18.21,8.09-19.62,18.4a20.67,20.67,0,0,0,12.81,22.38c2.53,1,3.32,2.34,3.3,4.94-.1,16.94-.05,33.88-.09,50.83,0,1.09.55,2.65-.83,3.11-1.06.35-1.74-1-2.46-1.73-9.25-9.21-18.44-18.49-27.72-27.68a6.74,6.74,0,0,1-2.22-5.25q.1-29.47,0-58.95c0-2.65.57-4.14,3.31-5.27A21.06,21.06,0,0,0,479,209.38c-1.16-9.24-8.28-16.35-18.13-18.12-8.8-1.57-17.82,3.17-22.18,11.64-5.46,10.62-.54,24.1,10.77,28.89,2.47,1.05,3.28,2.3,3.27,4.92-.09,21.06,0,42.13-.09,63.19a7.57,7.57,0,0,0,2.46,5.88c12.86,12.76,25.61,25.62,38.48,38.37a8,8,0,0,1,2.54,6.24c-.1,8.83.1,17.65-.09,26.47a8.9,8.9,0,0,0,3,7.11c11.21,11.06,22.27,22.27,33.51,33.31a7.92,7.92,0,0,1,2.5,6.23c-.06,13.76,0,27.53,0,41.3V552.1c0,1.29.06,2.59,0,3.88-.09,2,.8,2.7,2.74,2.68,8.51-.12,7.18.76,7.19-6.7q.06-67.25,0-134.49Z"/><path class="cls-1" d="M617.07,1031.67c1.44-.21,2.88-.43,4.31-.66a518.3,518.3,0,0,0,437.28-512.35A518.8,518.8,0,0,0,62.1,316.77a519.25,519.25,0,0,0,276,679.8A512.82,512.82,0,0,0,458.62,1031c1.44.24,2.88.46,4.32.67-.73-1.28-1.43-2.57-2.09-3.89l-4.17-.66C212.08,987.18,24.81,774.39,24.81,518.66,24.81,234.58,255.93,3.46,540,3.46s515.19,231.12,515.19,515.2c0,255.73-187.27,468.53-431.87,508.47-1.39.23-2.78.45-4.18.66m-54.45,8.76,18.71-4.5q-5.83.5-11.71.84l-1.34.08"/><text class="cls-2" transform="translate(226.96 836.12) rotate(-132.52)">У</text><text class="cls-2" transform="matrix(-0.54, -0.84, 0.84, -0.54, 176.84, 777.21)">Ч</text><text class="cls-2" transform="translate(137.05 708.78) rotate(-113.04)">Е</text><text class="cls-2" transform="translate(112.47 644.19) rotate(-104.3)">Т</text><text class="cls-2" transform="translate(98.77 579.27) rotate(-96.73)"> </text><text class="cls-2" transform="translate(94.09 529.36) rotate(-87.93)">И</text><text class="cls-2" transform="matrix(0.19, -0.98, 0.98, 0.19, 101.14, 443.41)"> </text><text class="cls-2" transform="matrix(0.33, -0.94, 0.94, 0.33, 111.86, 394.37)">А</text><text class="cls-2" transform="translate(140.6 320.71) rotate(-60.86)">У</text><text class="cls-2" transform="matrix(0.63, -0.78, 0.78, 0.63, 178.5, 257.49)">Д</text><text class="cls-2" transform="matrix(0.77, -0.64, 0.64, 0.77, 232.95, 195.1)">И</text><text class="cls-2" transform="translate(301.26 142.67) rotate(-30.63)">Т</text><text class="cls-2" transform="translate(359.78 111.48) rotate(-22.89)"> </text><text class="cls-2" transform="translate(407.02 93.63) rotate(-16.36)"> </text><text class="cls-2" transform="translate(456.01 81.28) rotate(-9.81)"> </text><text class="cls-2" transform="matrix(1, -0.04, 0.04, 1, 505.84, 74.34)">Е</text><text class="cls-2" transform="translate(574.82 74.29) rotate(7.28)">С</text><text class="cls-2" transform="matrix(0.96, 0.29, -0.29, 0.96, 650.06, 86.94)">Е</text><text class="cls-2" transform="matrix(0.9, 0.44, -0.44, 0.9, 715.46, 108.74)">П</text><text class="cls-2" transform="matrix(0.82, 0.57, -0.57, 0.82, 788.62, 149.17)"> </text><text class="cls-2" transform="translate(829.19 178.41) rotate(44.67)">Ж</text><text class="cls-2" transform="translate(895.23 248.92) rotate(56.33)">Ә</text><text class="cls-2" transform="matrix(0.39, 0.92, -0.92, 0.39, 940.86, 323.36)">Н</text><text class="cls-2" transform="translate(970.19 402.37) rotate(77.14)">Е</text><text class="cls-2" transform="translate(982.75 470.51) rotate(84.89)"> </text><text class="cls-2" transform="translate(985.89 520.58) rotate(93.38)">А</text><text class="cls-2" transform="translate(978.37 599.31) rotate(103.27)">У</text><text class="cls-2" transform="translate(959.21 670.52) rotate(113.06)">Д</text><text class="cls-2" transform="matrix(-0.56, 0.83, -0.83, -0.56, 924.05, 745.49)">И</text><text class="cls-2" transform="translate(873 814.75) rotate(133.76)">Т</text><path class="cls-1" d="M540,895.74a92.09,92.09,0,0,0-83.32,131.38c.6,1.31,1.25,2.61,1.94,3.88a92.08,92.08,0,0,0,162.76,0c.69-1.27,1.34-2.57,2-3.88A92.1,92.1,0,0,0,540,895.74Zm79.15,132c-.66,1.31-1.36,2.61-2.08,3.88a88.62,88.62,0,0,1-154.13,0c-.73-1.28-1.43-2.57-2.09-3.89a88.66,88.66,0,1,1,158.3,0Z"/><path class="cls-1" d="M836.56,551.44H243.47a16.37,16.37,0,0,0-16.42,16.41c0,1,0,2,0,3C228,653.6,261,731.33,320,789.73c53,52.48,121.42,83.79,194.82,89.64q12.53,1,25.25,1t25.1-1a310.77,310.77,0,0,0,195-89.65c59-58.4,92-136.13,92.87-218.89v-.24c0-.91,0-1.84,0-2.75A16.43,16.43,0,0,0,836.56,551.44Zm7.15,19.06v.24C842,727.86,719.34,857.19,565.33,870.07q-12.51,1-25.31,1.06t-25.46-1.07C360.61,857.1,238,727.81,236.32,570.75c0-1,0-1.94,0-2.9a7.15,7.15,0,0,1,7.17-7.17H836.56a7.18,7.18,0,0,1,7.17,7.17C843.73,568.73,843.72,569.62,843.71,570.5Z"/><path class="cls-1" d="M554.88,951.83a36.87,36.87,0,1,0-7.33,54.54,38.18,38.18,0,0,0,3.33-2.55,34.59,34.59,0,0,0,3-2.9A36.93,36.93,0,0,0,554.88,951.83Zm-8.08,43.72a28,28,0,1,1,2.78-36.17A28.06,28.06,0,0,1,546.8,995.55Z"/><path class="cls-1" d="M583.41,1032.05a10.65,10.65,0,0,1-3.39,5.56l-.09.07-.13.11a10.73,10.73,0,0,1-14.92-1l-.18-.2-2.7-3.15-10.71-12.5a4.18,4.18,0,0,1,.46-5.9l1.84-1.58,6.35-5.45,1.85-1.58a4.18,4.18,0,0,1,5.9.46l13.41,15.64A10.81,10.81,0,0,1,583.41,1032.05Z"/><path class="cls-1" d="M577.11,1028.25l-5.41,4.64-.7.6a.15.15,0,0,1-.22,0l-.42-.5-16.77-19.55-6-7-4.15-4.84a.15.15,0,0,1,0-.22l6.11-5.24a.16.16,0,0,1,.22,0l4.15,4.84,6,7.05L577.13,1028A.15.15,0,0,1,577.11,1028.25Z"/><rect class="cls-1" x="510.95" y="971.32" width="9.43" height="23.47" rx="0.18" transform="translate(-539.13 637.06) rotate(-44.16)"/><rect class="cls-1" x="527.06" y="956.83" width="9.43" height="40.72" rx="0.18" transform="translate(201.21 2039.46) rotate(-134.16)"/><path class="cls-1" d="M544.81,829.51H446.9a46.68,46.68,0,0,1-5-.13c-2.72-.28-4.46-1.86-4.38-4.64a4.41,4.41,0,0,1,4.53-4.56,97.34,97.34,0,0,1,11.71,0c3.57.27,4.75-.72,4.72-4.55-.2-22.73-.1-45.46-.1-68.2,0-7,.94-8,7.92-8h28.87c6.77,0,7.63.87,7.63,7.8,0,22.59.14,45.19-.12,67.78-.05,4.45,1.35,5.52,5.43,5.18a94.25,94.25,0,0,1,12.12,0c2.72.13,3.68-.77,3.59-3.54-.17-5.71,0-11.43,0-17.15V727.07c0-6,1.37-7.33,7.4-7.34q15.06,0,30.13,0c5.56,0,6.91,1.32,6.92,6.93,0,29.43.12,58.86-.09,88.28,0,4.37,1.21,5.56,5.37,5.23a104.8,104.8,0,0,1,13.38,0c3,.14,3.75-1,3.73-3.87-.11-17.57-.05-35.15-.05-52.72q0-28.46,0-56.91c0-5.8,1.34-7.11,7.14-7.12q15.06,0,30.13,0c5.93,0,7.14,1.21,7.14,7.09q0,54,0,108c0,6.3-.45,5.44,5.7,5.51,2.37,0,4.75-.07,7.11,0,2.91.15,4.83,1.66,4.82,4.68s-1.9,4.58-4.84,4.6c-7.81.08-15.62.07-23.43.07Zm80.81-65c0-17-.11-34,.09-51,0-3.78-1.12-4.78-4.74-4.6-5.84.29-11.71.18-17.56,0-2.71-.07-3.59.82-3.58,3.59q.12,52.08,0,104.15c0,2.8,1,3.57,3.65,3.49,6-.18,12-.24,18,0,3.31.14,4.26-.88,4.23-4.21C625.53,798.81,625.62,781.66,625.62,764.51Zm-66.8,10c0-13.8-.05-27.6,0-41.4,0-2.66-.35-4.09-3.56-4-6.4.24-12.82.14-19.23,0-2.18,0-2.91.78-2.91,2.92q.08,42.45,0,84.89c0,2.34.78,3.18,3.15,3.14,6.27-.12,12.55-.19,18.81,0,3,.1,3.76-.94,3.74-3.81C558.75,802.41,558.82,788.47,558.82,774.53Zm-91.06,10.2c0,10.59.06,21.18,0,31.77,0,2.58.57,3.76,3.49,3.66,6.26-.21,12.54-.19,18.81,0,2.83.09,3.49-1,3.48-3.64q-.13-32,0-64c0-2.79-.63-4-3.68-3.87q-9.18.32-18.39,0c-3-.11-3.75,1-3.72,3.86C467.84,763.26,467.77,774,467.76,784.73Z"/><path class="cls-1" d="M545.85,586.64a53.71,53.71,0,1,1-53.53,54A53.86,53.86,0,0,1,545.85,586.64Zm44.41,53.51a44.25,44.25,0,0,0-88.5.21c0,24.27,20,44.33,44.15,44.31A44.44,44.44,0,0,0,590.26,640.15Z"/><path class="cls-1" d="M545,645c-.28,0-.56,0-.84,0-18.56,1.21-20.29-8.88-19.2-22A12.53,12.53,0,0,1,537,611.29c4-.12,4.69-1.77,4.32-5.07a8.42,8.42,0,0,1,.21-3.32,4.59,4.59,0,0,1,8.88.05,6.93,6.93,0,0,1,.19,2.9c-.57,3.8.66,5.19,4.8,5.49,8.81.63,14.83,11.4,11.4,19.59a4.32,4.32,0,0,1-5,2.88c-2.33-.39-3.57-1.9-3.89-4.27-1.26-9.16-1.28-9.16-10.48-9.11-2.51,0-5,.06-7.53,0-3.8-.13-5.81,1.51-5.65,5.44,0,.56,0,1.12,0,1.68,0,7.64.45,8.12,8,8.12,3.91,0,7.82-.1,11.72,0a13.32,13.32,0,0,1,13.22,13c.13,2.5.1,5,0,7.53-.27,7.54-5.26,13-12.79,13.35-3.31.15-4.17,1.33-3.72,4.24a7.85,7.85,0,0,1,0,.84c.19,3.43-.67,6.25-4.64,6.62-2.92.27-4.8-2.29-4.66-6.54.12-3.35-.37-4.88-4.52-5.32C526,668.28,523.58,658.69,525.15,650a4.14,4.14,0,0,1,4.26-3.39c2.4-.06,3.85,1.34,4.61,3.52a5.68,5.68,0,0,1,.23,1.23c1.14,8.85,1.14,8.85,10.18,8.85q4.4,0,8.79,0c2.86,0,4.37-1.6,4.61-4.36a44.05,44.05,0,0,0,.06-5c-.13-4.4-1.42-5.7-5.81-5.81C549.71,645,547.34,645,545,645Z"/></svg>