<?xml version="1.0" encoding="utf-8"?>
<!-- Generator: Adobe Illustrator 26.0.3, SVG Export Plug-In . SVG Version: 6.00 Build 0)  -->
<svg version="1.1" id="Слой_1" xmlns="http://www.w3.org/2000/svg" xmlns:xlink="http://www.w3.org/1999/xlink" x="0px" y="0px"
	 viewBox="0 0 1632.8 308.8" style="enable-background:new 0 0 1632.8 308.8;" xml:space="preserve">
<style type="text/css">
	.st0{fill:#5176E8;}
	.st1{fill:#7FC123;}
	.st2{fill:#31333F;}
	.st3{fill:#FFFFFF;}
	.st4{fill:#E1EAFB;}
	.st5{fill:#7BC029;}
	.st6{fill:none;stroke:#7FC123;stroke-width:6;stroke-linecap:round;stroke-linejoin:round;stroke-miterlimit:10;}
	.st7{fill:#7FBD2A;}
</style>
<g>
	<g>
		<g id="g59_1_">
			<path id="path12-9_1_" class="st0" d="M350.6,78.9L350.6,78.9c0-17.4-14.1-31.6-31.6-31.6l0,0c17.4,0,31.6-14.1,31.6-31.6l0,0
				c0,17.4,14.1,31.6,31.6,31.6l0,0C364.7,47.3,350.6,61.4,350.6,78.9z"/>
			<path id="path13-3_1_" class="st0" d="M194.8,234.6L194.8,234.6c0-17.4-14.1-31.6-31.6-31.6l0,0c17.4,0,31.6-14.1,31.6-31.6l0,0
				c0,17.4,14.1,31.6,31.6,31.6l0,0C209,203.1,194.8,217.2,194.8,234.6z"/>
			<path id="path15-2_1_" class="st0" d="M519.4,29.8H416.5c-3.8,0-7,3.1-7,7v95.6c0,3.8,3.1,7,7,7h102.8c3.8,0,7-3.1,7-7V36.8
				C526.3,32.9,523.2,29.8,519.4,29.8z"/>
			<path id="path16-6_1_" class="st1" d="M519.4,29.8H416.5c-3.8,0-7,3.1-7,7v14.8h116.8V36.8C526.3,32.9,523.2,29.8,519.4,29.8z"/>
			<circle id="circle16-1_1_" class="st2" cx="421.8" cy="40.7" r="4.6"/>
			<circle id="circle17-8_1_" class="st2" cx="436.4" cy="40.7" r="4.6"/>
			<circle id="circle18-7_1_" class="st2" cx="451.1" cy="40.7" r="4.6"/>
			<path id="path18-9_1_" class="st3" d="M446.9,117.4c-1,0-2-0.4-2.7-1.1l-20-20c-1.5-1.5-1.5-3.9,0-5.4l19.7-19.7
				c1.5-1.5,3.9-1.5,5.4,0c1.5,1.5,1.5,3.9,0,5.4l-17,17l17.3,17.3c1.5,1.5,1.5,3.9,0,5.4C448.8,117,447.8,117.4,446.9,117.4z"/>
			<path id="path19-2_1_" class="st3" d="M489.4,117.4c-1,0-2-0.4-2.7-1.1c-1.5-1.5-1.5-3.9,0-5.4L504,93.6l-17-17
				c-1.5-1.5-1.5-3.9,0-5.4s3.9-1.5,5.4,0l19.7,19.7c0.7,0.7,1.1,1.7,1.1,2.7s-0.4,2-1.1,2.7l-20,20
				C491.4,117,490.4,117.4,489.4,117.4z"/>
			<path id="path20-0_1_" class="st3" d="M460.9,118.4c-0.4,0-0.9-0.1-1.3-0.2c-2-0.7-3-3-2.3-4.9l15.2-40.8c0.7-2,3-3,4.9-2.3
				c2,0.7,3,3,2.3,4.9l-15.2,40.8C463.9,117.5,462.5,118.4,460.9,118.4L460.9,118.4z"/>
			<g id="g27-2_1_" transform="matrix(-1,0,0,1,3290.09,96.419987)">
				<path id="path21-3_1_" class="st1" d="M1909.9-37.6H1872c-20.5,0-37,16.6-37,37v21.8c0,20.5,16.6,37,37,37h37.9
					c20.5,0,37-16.6,37-37V-0.6C1946.9-21.1,1930.3-37.6,1909.9-37.6z M1929.8,16.6c0,12.7-10.3,23.1-23.1,23.1h-31.6
					c-12.7,0-23.1-10.3-23.1-23.1V3.9c0-12.7,10.3-23.1,23.1-23.1h31.6c12.7,0,23.1,10.3,23.1,23.1V16.6z"/>
				<path id="path22-7_1_" class="st1" d="M1948.6,24.8h-1.7c-3.7,0-6.6-3-6.6-6.6V4c0-3.7,3-6.6,6.6-6.6h1.7c3.7,0,6.6,3,6.6,6.6
					v14.2C1955.2,21.8,1952.2,24.8,1948.6,24.8z"/>
				<path id="path23-5_1_" class="st1" d="M1909.3-37.7v1.7c0,3.7-3,6.6-6.6,6.6h-23.5c-3.7,0-6.6-3-6.6-6.6v-1.7
					c0-3.7,3-6.6,6.6-6.6h23.5C1906.3-44.3,1909.3-41.4,1909.3-37.7z"/>
				<path id="path24-2_1_" class="st1" d="M1834.9,24.8h-1.7c-3.7,0-6.6-3-6.6-6.6V4c0-3.7,3-6.6,6.6-6.6h1.7c3.7,0,6.6,3,6.6,6.6
					v14.2C1841.5,21.8,1838.5,24.8,1834.9,24.8z"/>
				<path id="path25-2_1_" class="st4" d="M1874.7,1L1874.7,1c-5.7,0-10.3,4.6-10.3,10.3v2.4c0,1.5,1.2,2.7,2.7,2.7h15.1
					c1.5,0,2.7-1.2,2.7-2.7v-2.4C1885,5.6,1880.4,1,1874.7,1L1874.7,1z"/>
				<path id="path26-8_1_" class="st4" d="M1907.8,1L1907.8,1c-5.7,0-10.3,4.6-10.3,10.3v2.4c0,1.5,1.2,2.7,2.7,2.7h15.1
					c1.5,0,2.7-1.2,2.7-2.7v-2.4C1918.1,5.6,1913.5,1,1907.8,1L1907.8,1z"/>
				<path id="path27-9_1_" class="st4" d="M1891.8,31.1h-1.2c-3.7,0-6.7-3-6.7-6.7l0,0h14.6l0,0
					C1898.5,28.1,1895.5,31.1,1891.8,31.1z"/>
				<circle id="circle27-7_1_" class="st0" cx="1891" cy="-62" r="10"/>
			</g>
			<path id="path28-3_1_" class="st1" d="M1107.5,217.3c0.9,1,7.7,9,19.1,8.8c10.9-0.2,17.4-7.7,18.3-8.8c0-5.2,0-10.3,0-15.5h-37.4
				V217.3z"/>
			<polygon id="polygon28-6_1_" class="st0" points="1159.3,197 1126.6,214 1093.9,197 1126.6,180 			"/>
			<rect id="rect34-4_1_" x="1220.2" y="85.1" class="st2" width="42.9" height="43.4"/>
			<path id="path35-5_1_" class="st2" d="M1176.5,104.7l38.5-38.3c1.9-1.9,5.2-0.6,5.2,2.2v76.5c0,2.7-3.3,4.1-5.2,2.2l-38.5-38.3
				C1175.3,107.8,1175.3,105.9,1176.5,104.7L1176.5,104.7z"/>
			<rect id="rect35-0_1_" x="1220.2" y="41.8" class="st5" width="42.8" height="43.4"/>
			<path id="path36-3_1_" class="st5" d="M1306.8,61.4l-38.5-38.3c-1.9-1.9-5.2-0.6-5.2,2.2v76.5c0,2.7,3.3,4.1,5.2,2.2l38.5-38.3
				C1308,64.5,1308,62.6,1306.8,61.4L1306.8,61.4z"/>
			<line id="line36-6_1_" class="st6" x1="117" y1="232.1" x2="117" y2="175"/>
			<line id="line37-1_1_" class="st6" x1="88.4" y1="203.6" x2="145.5" y2="203.6"/>
			<line id="line38-0_1_" class="st6" x1="96.8" y1="223.7" x2="137.1" y2="183.4"/>
			<line id="line39-6_1_" class="st6" x1="96.8" y1="183.4" x2="137.1" y2="223.7"/>
			<g id="g50-3_1_" transform="matrix(-1,0,0,1,559.36003,88.745)">
				<g id="g49-2_1_">
					<path id="path39-0_1_" class="st7" d="M263.8,62c-1.6,0-3-1.3-3-3V36.2c0-7.3,5.9-13.2,13.2-13.2h21.4c1.6,0,3,1.3,3,3
						c0,1.6-1.3,3-3,3H274c-4,0-7.2,3.2-7.2,7.2v22.7C266.8,60.6,265.5,62,263.8,62z"/>
					<path id="path40-6_1_" class="st7" d="M295.4-10.6H274c-7.3,0-13.2-5.9-13.2-13.2v-22.7c0-1.6,1.3-3,3-3s3,1.3,3,3v22.7
						c0,4,3.2,7.2,7.2,7.2h21.4c1.6,0,3,1.3,3,3S297.1-10.6,295.4-10.6L295.4-10.6z"/>
					<path id="path41-1_1_" class="st7" d="M293.9,9.2h-30.1c-1.6,0-3-1.3-3-3c0-1.6,1.3-3,3-3h30.1c1.6,0,3,1.3,3,3
						S295.6,9.2,293.9,9.2L293.9,9.2z"/>
					<path id="path42-5_1_" class="st7" d="M321-33.8V59c-4.6-2.2-21.9-11-29.8-30.9c-8-20.3-3.1-44.2,12.3-61.9
						C309.3-33.8,315.1-33.8,321-33.8z"/>
					<path id="path43-5_1_" class="st7" d="M386.4,62c1.6,0,3-1.3,3-3V36.2c0-7.3-5.9-13.2-13.2-13.2h-21.4c-1.6,0-3,1.3-3,3
						c0,1.6,1.3,3,3,3h21.4c4,0,7.2,3.2,7.2,7.2v22.7C383.4,60.6,384.7,62,386.4,62z"/>
					<path id="path44-4_1_" class="st7" d="M354.8-10.6h21.4c7.3,0,13.2-5.9,13.2-13.2v-22.7c0-1.6-1.3-3-3-3c-1.6,0-3,1.3-3,3v22.7
						c0,4-3.2,7.2-7.2,7.2h-21.4c-1.6,0-3,1.3-3,3S353.1-10.6,354.8-10.6L354.8-10.6z"/>
					<path id="path45-7_1_" class="st7" d="M356.2,9.2h30.1c1.6,0,3-1.3,3-3c0-1.6-1.3-3-3-3h-30.1c-1.6,0-3,1.3-3,3
						C353.3,7.9,354.6,9.2,356.2,9.2z"/>
					<path id="path46-6_1_" class="st7" d="M329.2-33.8V59c4.6-2.2,21.9-11,29.8-30.9c8-20.3,3.1-44.2-12.3-61.9
						C340.8-33.8,335-33.8,329.2-33.8z"/>
					<g id="g47-5_1_">
						<path id="path47-6_1_" class="st2" d="M328.6-60.3h-6.8c-9.9,0-18,8.1-18,18l0,0h42.9l0,0C346.6-52.2,338.5-60.3,328.6-60.3z"
							/>
					</g>
					<path id="path48-9_1_" class="st2" d="M330.7-49.6L330.7-49.6c-1.3-1.3-1.3-3.4,0-4.7l11.6-11.6c1.3-1.3,3.4-1.3,4.7,0l0,0
						c1.3,1.3,1.3,3.4,0,4.7l-11.6,11.6C334.1-48.3,332-48.3,330.7-49.6z"/>
					<path id="path49-3_1_" class="st2" d="M319.7-49.6L319.7-49.6c1.3-1.3,1.3-3.4,0-4.7l-11.6-11.6c-1.3-1.3-3.4-1.3-4.7,0l0,0
						c-1.3,1.3-1.3,3.4,0,4.7L315-49.6C316.3-48.3,318.4-48.3,319.7-49.6z"/>
				</g>
			</g>
			<g id="g52-7_1_" transform="matrix(-1,0,0,1,2464.0976,368.12267)">
				<g id="g51-4_1_">
					<path id="path50-5_1_" class="st2" d="M1444.4-153.2c-0.7,5.5-4,9-9.2,10.8c-1,0.4-2.1,0.5-3.1,0.5c-5,0-10,0-15,0
						c-4.8,0-9.6-0.1-14.5,0c-6,0.2-11.1-4.7-12.2-9.3c-1.4-5.6,0.9-11.5,6-14.3c1.1-0.6,1.6-1.2,1.9-2.6c1.3-6.4,7.2-10.7,13.8-9.9
						c0.9,0.1,1.4-0.1,2-0.8c3.7-4.2,8.4-5.7,13.8-4.2c5.2,1.4,8.4,4.9,9.5,10.2c0.4,1.6,0.3,3.3,0,4.9c-0.1,0.7,0,1,0.6,1.4
						C1443-163.4,1445.2-158.9,1444.4-153.2z"/>
				</g>
			</g>
			<g id="g55-2_1_" transform="matrix(-1,0,0,1,2015.43,268.08)">
				<g id="g54-5_1_">
					<path id="path52-4_1_" class="st5" d="M1143.2-235.8c11.2,0,22.4,0,33.6,0c2,1.6,3.4,3.4,3.8,6.1c0.9,5.1,2.4,10.1,3.2,15.2
						c0.6,3.5,2.3,5.2,5.8,6.1c8.1,1.9,15.7,5.2,22.9,9.5c2.7,1.6,4.7,1.5,7.3-0.3c4.7-3.4,9.7-6.3,14.5-9.6
						c3.4-2.3,6.3-2.3,9.2,0.7c6.3,6.5,12.7,12.9,19.2,19.2c3,3,3,5.9,0.7,9.2c-3.3,4.8-6.2,9.8-9.6,14.5c-1.8,2.6-2,4.7-0.3,7.3
						c2.9,4.6,6,9.4,6.6,14.6c1.5,12,9.4,15.2,19.6,16.3c3.9,0.4,8.2,0.7,10.6,4.7c0,11.2,0,22.4,0,33.6c-1.6,2-3.4,3.4-6.1,3.8
						c-5.1,0.9-10.1,2.3-15.2,3.3c-3.3,0.6-5.4,2-6.2,5.6c-1.8,7.9-5.1,15.4-9.3,22.3c-1.9,3.1-1.6,5.4,0.5,8.2
						c3.5,4.8,6.5,10,9.8,15c2,3,1.7,5.7-0.9,8.3c-4,3.9-7.9,8-11.9,11.9c-13.3,13-9.8,13.4-25.1,2.7c-7-4.8-12.9-7.6-20.2-1.4
						c-1.3,1.1-3.1,1.8-4.7,2c-14.1,1.7-19.3,10.6-19.9,23.7c-0.1,3.1-1.1,6.5-4.3,8.4c-11.2,0-22.4,0-33.6,0
						c-2-1.6-3.3-3.4-3.8-6.1c-1-5.7-2.5-11.3-3.7-16.9c-0.6-2.7-1.8-4.1-4.7-4.9c-8.1-2-15.8-5.1-22.9-9.4
						c-2.8-1.7-4.8-1.4-7.2,0.3c-5.1,3.5-10.3,6.7-15.4,10.2c-3.2,2.2-6,2-8.8-0.8c-6.5-6.6-13.1-13.1-19.6-19.6
						c-2.6-2.6-2.9-5.2-0.9-8.3c3.2-4.8,6.1-9.8,9.5-14.5c2.3-3.2,2.7-5.7,0.5-9.3c-2.5-4.1-5.4-8.5-6-13c-1.7-12-9.3-15.8-20-16.7
						c-3.9-0.3-8.2-0.7-10.6-4.7c0-11.2,0-22.4,0-33.6c1.6-2,3.4-3.4,6.1-3.8c5.1-0.9,10.1-2.4,15.2-3.2c3.5-0.6,5.2-2.3,6-5.8
						c1.9-8.1,5.2-15.7,9.5-22.9c1.6-2.7,1.5-4.7-0.3-7.3c-3.4-4.7-6.3-9.7-9.6-14.5c-2.3-3.4-2.3-6.3,0.7-9.2
						c6.5-6.3,12.9-12.7,19.2-19.2c3-3,5.9-3,9.2-0.7c4.8,3.3,9.8,6.2,14.5,9.6c2.6,1.9,4.7,2,7.3,0.3c4.6-2.9,9.4-6,14.6-6.6
						c12-1.5,15.2-9.4,16.3-19.6C1138.9-229,1139.2-233.3,1143.2-235.8L1143.2-235.8z M1105.8-25c0.8-0.1,2.4,1.3,4,2.2
						c7.8,4.7,16,8.7,25,10.5c6.5,1.3,9.6,4.2,10.6,10.8c0.8,5.4,0.2,12.9,4.4,15.5c4.1,2.6,10.9,0.6,16.4,1
						c4.2,0.3,5.8-1.2,6.3-5.3c0.5-4.6,2.3-9,2.9-13.5s2.9-6.7,7.2-7.7c9.1-2,17.9-5.1,25.6-10.2c5.6-3.8,9.9-3.3,15.1,0.6
						c4.5,3.5,9.9,8.8,14.6,8.4c5.2-0.4,8.5-7.7,13.1-11.5c2.8-2.3,2.4-4.2,0.5-6.8c-3.3-4.5-6-9.4-9.3-14c-2-2.9-2.2-5.6-0.3-8.6
						c6-9.3,10.3-19.4,12.7-30.2c0.7-3.3,2.6-5.3,6.2-5.9c5.3-0.9,10.5-2.4,15.8-3.4c2.5-0.5,3.5-1.5,3.7-4.2
						c1.5-18.7,1.5-18.7-16.4-22.8c-0.6-0.1-1.1-0.4-1.7-0.5c-5-0.2-6.9-3.2-7.8-7.7c-2-9.3-5.3-18.2-10.6-26.1
						c-3.6-5.3-3.4-9.5,0.5-14.5c3.4-4.4,8.5-9.4,8.4-14.1c-0.2-5.1-7.4-8.2-11.1-12.7c-2.4-2.9-4.5-3.4-7.6-1
						c-4.1,3.2-8.8,5.6-13,8.7c-3.3,2.4-6.2,2.3-9.5,0.1c-8.5-5.5-17.7-9.7-27.5-11.6c-5.6-1.1-8.1-3.9-9.1-9.4
						c-1.1-5.5-0.2-13.3-4.8-15.9c-4.3-2.6-11.3-0.7-17-0.8c-0.2,0-0.4,0-0.6,0c-2.9-0.3-4.1,1-4.6,3.8c-0.9,4.9-2.5,9.7-3.2,14.7
						c-0.6,4.4-3,6.3-7,7.2c-9.7,2-18.9,5.5-27.2,11c-5,3.3-8.8,3.2-13.5-0.3c-4.8-3.5-10-9.6-15-8.6c-4.9,1-8.7,7.6-13.1,11.7
						c-0.1,0.1-0.3,0.3-0.4,0.4c-2.2,1.6-2,3.3-0.5,5.4c3.3,4.8,6.2,9.8,9.6,14.5c2.1,2.9,2.2,5.5,0.2,8.5
						c-6.1,9.5-10.3,19.8-12.7,30.8c-0.7,3.4-2.8,5.2-6.3,5.8c-5.1,0.9-10.1,2.4-15.3,3.3c-2.8,0.5-4,1.7-3.9,4.6
						c0.2,5,0.2,10.1,0,15.1c-0.1,2.8,0.9,4.2,3.8,4.7c5.3,0.9,10.5,2.4,15.8,3.4c3.3,0.6,5.2,2.3,5.9,5.5
						c2.5,11,6.7,21.3,12.9,30.8c1.9,3,1.6,5.7-0.4,8.5c-3.2,4.6-6,9.5-9.3,14c-2,2.7-2,4.5,0.6,6.8c4.6,3.8,7.9,11.2,13.1,11.5
						c4.7,0.3,9.7-5.4,14.6-8.4C1099.3-22.6,1101.3-24.9,1105.8-25L1105.8-25z"/>
					<path id="path53-7_1_" class="st2" d="M1154.9-75.6c0-10.4-0.1-20.9,0.1-31.3c0-2.8-0.6-4.3-3.4-5.7
						c-9-4.3-13.4-13.5-11.3-22.4c2.3-9.7,10.4-16.3,20-16.2c9.4,0.1,17.2,6.4,19.5,15.9c2.2,9-2,18.2-11,22.5
						c-3,1.4-3.7,3.1-3.6,6.1c0.1,20.7,0,41.3,0.1,62c0,2.1-1.3,5.7,3.2,4.8c3.1-0.6,7.3,0.8,7.2-5c-0.2-12.6,0-25.1-0.1-37.7
						c0-3.4,0.9-5.9,3.4-8.2c3.4-3.1,6.5-6.6,9.9-9.8c4.3-4,8.3-7.9,7.2-14.7c-0.5-2.9,1.4-5.3,4.8-5.3c3.5,0.1,4.9,2.3,5.2,5.7
						c0.6,7-0.1,13.4-6.5,17.9c-11.8,8.2-16.5,19.4-14.2,33.7c0.8,4.7,0.3,9.6,0.1,14.5c-0.2,3.8,1,4.3,4.2,2.6
						c19.7-10.4,32.3-26.4,35.9-48.4c6.6-40.7-23.4-76.4-64.6-77.5c-26.4-0.7-53.1,17.5-62.5,42.7c-0.4,1.1-0.8,2.2-1.1,3.3
						c-1,3.7-3.2,6-7.2,4.6c-3.8-1.3-3.5-4.6-2.4-7.8c9.6-27.3,28.4-44.9,56.6-51c51.1-11.1,97.6,31.4,91.9,83.2
						c-3.8,34.6-32.6,63.4-67.2,67.2c-35.5,3.9-69.6-17.5-80.8-50.8c-0.7-2.1-1.9-4.3-0.9-6.7c0.9-2,2.4-3,4.5-3
						c3.1,0,4.5,2,5.3,4.5c2.8,8.8,7.1,16.6,13.2,23.6c5.9,6.8,12.9,12.1,21,16.1c3.2,1.6,3.9,0.7,3.9-2.6
						c-0.1-10.4-0.1-20.9,0-31.3c0-2.4-0.9-4-2.5-5.5c-4.8-4.7-9.6-9.5-14.3-14.3c-3.4-3.4-5.4-13.5-3.4-17.8c1-2.1,2.6-3.3,5.1-3.1
						c2.1,0.2,4.3,1.3,4.1,3.4c-1.4,11.5,7.6,16.6,14.1,22.8c5.1,4.8,7.1,9.8,6.8,16.7c-0.5,10.6,0.2,21.3-0.3,31.9
						c-0.3,6.3,4,5.4,7.6,5.8c4.7,0.5,2.8-3.3,2.8-5.2C1155-55.1,1154.9-65.4,1154.9-75.6L1154.9-75.6z M1170.2-130.7
						c0-5.7-4.6-10.3-10.2-10.2c-5.7,0-10.2,4.7-10.1,10.4c0.1,5.4,4.5,9.8,9.9,10C1165.4-120.5,1170.1-125.1,1170.2-130.7
						L1170.2-130.7z"/>
					<path id="path54-4_1_" class="st5" d="M1093.5-105.6c0,3.4-1.8,5.2-4.9,5.2c-2.7,0-4.6-1.7-4.7-4.7c-0.1-3.3,1.8-5.1,4.9-5.1
						C1091.5-110.2,1093.3-108.5,1093.5-105.6L1093.5-105.6z"/>
				</g>
			</g>
			<g id="g57-4_1_" transform="matrix(-1,0,0,1,3655.1998,88.740121)">
				<g id="g56-3_1_">
					<path id="path55-0_1_" class="st2" d="M2101.2,26.2c0-1.7-0.1-3.4,0-5.1c0.3-4.5,0.2-8.5-4.6-11.2c-2.7-1.5-3.3-4.9-2.9-8
						c0.3-2.2-0.6-3.5-2.2-4.6c-5.6-4.1-11.2-8.2-16.7-12.6c-2.1-1.7-3.9-0.9-5.9-0.3c-4.2,1.3-8.4-0.2-10.9-3.6
						c-2.5-3.5-2.7-8.1-0.2-11.6c2.2-3.2,5.5-4.5,9.3-4c3.1,0.4,5.4-0.5,7.8-2.4c4.4-3.5,9-7,13.6-10.2c2.9-2,4.5-4,4.4-7.9
						c-0.2-5.6,4.8-9.9,10.3-9.6c5.4,0.3,9.5,4.6,9.5,10.1c-0.1,5.7-4.7,11.3-9.8,9.8c-7.2-2.2-11.1,1.9-15.7,5.4
						c-2,1.5-3.9,3.4-6.2,4.5c-4.7,2.5-6.1,6.1-5.1,11.2c0.3,1.9,0.8,3.5,2.4,4.7c5.6,4.1,11.1,8.3,16.7,12.5
						c0.2,0.2,0.5,0.5,0.7,0.5c5.8-0.4,12,1.9,17.2-1c5.9-3.3,11-8,16.5-12c1.8-1.3,2.5-2.5,2.3-4.9c-0.6-5.9,3.2-10.3,8.9-11
						c5.2-0.6,10.2,3.2,11,8.5c0.8,5-2.8,10.1-8,11.4c-1.3,0.3-2.7,0.6-3.8-0.1c-3.8-2.3-6.6-0.4-9.5,1.9
						c-4.8,3.8-9.7,7.4-14.6,11.1c-1.4,1.1-2.6,2-2,4.2c1,4.1-0.8,7.4-4.2,9.5c-2.6,1.6-3.2,3.6-3.1,6.4c0.1,6.3,0.1,12.5,0,18.8
						c0,1.7-0.1,3.4,1.7,4.5c1.8,1.1,3.2,0.1,4.6-0.9c7.6-5.6,15.1-11.1,22.7-16.6c1.9-1.4,2.5-3.2,2.4-5.5c-0.1-5.2,2.4-8.5,7-9.9
						c4.2-1.3,8.4,0.3,11.2,4.1c2.3,3.2,2.2,8.2-0.4,11.5c-2.7,3.6-7,5-11.3,3.3c-2.5-1-4.1-0.6-6.2,1c-7,5.3-14.2,10.5-21.3,15.7
						c-2.1,1.5-3.6,2.9-3.1,6.2c0.8,5.1-4.5,10.2-9.8,10.3c-5.3,0.2-9.7-3.7-9.8-9.1c0-3.9-1.6-6.3-4.7-8.4c-4.5-3-8.7-6.4-12.9-9.7
						c-2.6-2.1-5-2.8-8.5-1.9c-5.4,1.4-9.7-1.2-11.6-6.1c-1.7-4.4-0.1-9.3,3.9-11.9c6.4-4.1,14.9-0.1,15,7.4
						c0.1,4.2,1.8,6.5,4.9,8.6c4.9,3.4,9.6,7.1,14.3,10.7c1.4,1.1,2.7,2.1,4.6,1c1.9-1,2-2.5,1.9-4.3
						C2101.1,33,2101.2,29.6,2101.2,26.2L2101.2,26.2L2101.2,26.2z M2143,17.9c0.3,2.3,1.8,4.2,4.5,4.2c2.9,0,4.8-1.9,4.7-4.9
						c-0.1-2.9-1.9-4.5-4.7-4.4C2144.8,12.8,2143.2,14.6,2143,17.9L2143,17.9z M2104.2-1.6c-3,0.1-5,1.6-5.1,4.5
						c-0.2,2.7,1.6,4.6,4.3,4.8c2.9,0.2,4.9-1.6,5.1-4.5C2108.6,0.6,2107-1.2,2104.2-1.6z M2070.7-24.9c-0.1-2.8-1.4-4.6-4.3-4.8
						c-3.1-0.1-4.9,1.7-4.9,4.6c0,2.8,1.9,4.5,4.6,4.6C2068.8-20.4,2070.5-22.1,2070.7-24.9L2070.7-24.9z M2066,26
						c2.7-0.3,4.5-1.7,4.5-4.6s-1.8-4.6-4.5-4.7c-2.8,0-4.9,1.6-4.8,4.8C2061.3,24.4,2063.2,25.7,2066,26L2066,26z M2103.1-59.5
						c-3.2,0.1-4.8,1.7-4.9,4.5c-0.1,3,1.6,5,4.7,4.9c2.7-0.1,4.5-1.8,4.5-4.7C2107.3-57.8,2105.7-59.3,2103.1-59.5L2103.1-59.5z
						 M2136.9-25.3c0.3,2.9,2,4.5,4.8,4.5c2.8-0.1,4.6-1.8,4.6-4.6c-0.1-2.9-2.1-4.9-5-4.7C2138.6-30,2137-28,2136.9-25.3
						L2136.9-25.3z M2103.6,54.4c2.8-0.3,4.8-1.6,4.8-4.5c0-3.1-1.9-4.8-4.8-4.8c-2.7,0-4.5,2-4.5,4.7
						C2099,52.6,2100.8,54.2,2103.6,54.4z"/>
				</g>
			</g>
		</g>
		<g>
			<path class="st5" d="M597.9,120.1c-0.4,2.4-3.1,3.3-5.1,1.7c-3.2-2.5-6-5.4-8.5-8.6c-5.4-7-8.9-14.9-10.4-23.6
				c-0.3-1.8-0.5-3.6-0.7-5.3v-6.6c0-0.4,0.1-0.7,0.1-1.1c0.2-1.6,0.4-3.1,0.7-4.7c2.3-12.9,8.6-23.5,18.7-31.8
				c1.6-1.3,3.4-1.2,4.5,0.2c1.2,1.4,0.9,3.2-0.6,4.5c-5.9,4.8-10.4,10.6-13.4,17.6c-2,4.6-3.2,9.3-3.7,14.2
				c-0.2,2.4-0.2,4.7-0.1,7.1c0.1,1.4,0.2,2.7,0.4,4.1c1.8,11.7,7.4,21.3,16.5,28.9C597.4,117.6,598.2,118.6,597.9,120.1z"/>
			<path class="st2" d="M640.5,77.4c-0.1-0.3-0.1-0.6-0.2-0.8c-2.3-7.5-9.9-12.3-17.7-10.7c-5.7,1.2-10.2,5.4-11.8,10.7
				c-0.4,1.2-0.6,2.4-0.6,3.6s0,2.4,0.3,3.5c1.1,5.7,5.2,10.4,11.1,12c0.7,0.2,0.9,0.5,0.9,1.2c0,5.5,0,11,0,16.5v8.7
				c0,2.7,0,5.5,0,8.2c0,1.7,1.4,3,3.1,3c1.6,0,2.9-1.3,3-3c0-0.3,0-0.7,0-1c0-10.7,0-21.4,0-32.1c0-0.9,0.2-1.3,1.1-1.5
				c5.8-1.6,9.9-6.4,10.9-11.9C641.1,81.7,641,79.5,640.5,77.4z M625.6,90.1c-4.1,0-7.6-2.7-8.8-6.4c-0.3-0.9-0.5-1.8-0.4-2.8
				c0-1.6,0.4-3,1.1-4.3c1.6-2.9,4.6-4.9,8.1-4.9s6.5,2,8.1,4.9c0.7,1.3,1.1,2.8,1.1,4.3c0,1-0.2,1.9-0.4,2.8
				C633.2,87.4,629.7,90.1,625.6,90.1z"/>
			<path class="st5" d="M678,80.9c0,1-0.1,1.9-0.1,2.8c-0.9,15.3-7.3,28-19.3,37.9c-1.6,1.3-3.4,1.2-4.5-0.2c-1.2-1.4-1-3.2,0.7-4.6
				c5.1-4.2,9.3-9.2,12.3-15.2c2.9-5.8,4.5-11.8,4.9-18c0.1-2.1,0.1-4.2-0.1-6.3c0-0.3,0-0.6-0.1-0.8c-1.2-12.6-6.8-23-16.4-31.3
				c-0.3-0.3-0.6-0.5-0.9-0.8c-1.2-1.2-1.3-3-0.3-4.2c1.1-1.3,2.8-1.5,4.2-0.4c2.4,1.9,4.7,4,6.7,6.3c7.6,8.7,12,18.9,12.9,30.4
				c0,0.1,0,0.3,0,0.4c0,0.5,0.1,0.9,0.1,1.4C678,79.3,678,80.1,678,80.9z"/>
			<path class="st5" d="M608.1,107.4c-0.3,1.2-1.1,2-2.3,2.3c-1.1,0.3-2-0.1-2.8-0.7c-6.8-5.6-11.2-12.8-12.8-21.5
				c-0.2-1.2-0.4-2.5-0.5-3.7c-0.1-1-0.1-1.9-0.1-2.9c0-1.4,0.1-2.9,0.3-4.2c1.2-9.4,5.5-17.4,13.1-23.7c1.4-1.2,3.3-1.1,4.4,0.2
				c1.2,1.3,1.1,3.2-0.4,4.4c-2.3,2.1-4.5,4.2-6.3,6.9c-2.5,3.8-4.1,7.9-4.7,12.3c-0.3,1.9-0.3,3.8-0.3,5.7c0,0.5,0.1,0.9,0.1,1.4
				c0.5,5.6,2.5,10.7,6,15.3c1.5,1.9,3.2,3.6,5.1,5.2C607.9,105.1,608.4,106.1,608.1,107.4z"/>
			<path class="st5" d="M661.5,83.7c-0.6,9.6-5,17.9-13.1,25c-2,1.7-4.7,1.1-5.3-1.3c-0.4-1.3,0.2-2.4,1.2-3.3
				c1.9-1.7,3.8-3.4,5.3-5.5c3.2-4.3,5-9.1,5.7-15c0.1-1,0.2-2,0.2-3.1c0-1.4-0.1-2.7-0.3-4.1c-0.9-6.3-3.8-12.4-9.2-17.4
				c-0.6-0.6-1.3-1.2-2-1.8c-1.3-1.3-1.4-3-0.3-4.3c1.1-1.3,2.9-1.4,4.3-0.3c6.1,4.9,10.4,11.1,12.2,18.7c0.4,1.8,0.8,3.5,1,5.2
				C661.6,79,661.7,81.4,661.5,83.7z"/>
		</g>
		<g>
			<path class="st4" d="M1093.2,88.7c0,1.5,0,3,0,4.5c0,3.1-2.4,5.6-5.4,5.6s-5.5-2.4-5.5-5.6c0-3,0-6,0-9.1c0-0.6-0.2-1-0.8-1.2
				c-2.3-1.1-4.5-2.2-6.7-3.4c-2.9-1.4-4-4.6-2.6-7.4c1.3-2.8,4.6-3.8,7.4-2.5c2.5,1.2,4.9,2.4,7.4,3.7c0.6,0.3,1,0.3,1.6,0
				c2.4-1.3,4.9-2.5,7.4-3.7c3.3-1.6,7,0.1,7.8,3.5c0.6,2.5-0.5,5-2.8,6.2s-4.5,2.3-6.8,3.4c-0.7,0.3-0.9,0.7-0.9,1.5
				C1093.2,85.8,1093.2,87.2,1093.2,88.7z"/>
			<path class="st5" d="M1082.2,121.6c0-0.8-0.1-1.7,0.1-2.7c0.6-2.9,3.1-4.7,6-4.4c2.6,0.3,4.8,2.6,4.8,5.3c0,1.3,0,2.6,0,3.8
				c0,0.6,0.2,0.7,0.7,0.4c0.7-0.4,1.4-0.7,2.1-1.1c3.7-1.7,7.7,0.8,7.8,4.8c0.1,2.1-0.9,3.9-2.8,4.9c-3.7,1.9-7.4,3.8-11.2,5.6
				c-1.5,0.7-3.1,0.7-4.6-0.1c-3.6-1.8-7.2-3.6-10.8-5.4c-2.7-1.4-3.7-4.6-2.4-7.3c1.3-2.7,4.5-3.8,7.2-2.6c0.8,0.3,1.5,0.7,2.3,1.1
				c0.5,0.3,0.6,0.1,0.6-0.4C1082.2,123.1,1082.2,122.4,1082.2,121.6z"/>
			<path class="st5" d="M1118.1,58.6c-1-0.5-1.9-1-2.5-1.8c-1.6-1.9-1.7-4.6-0.3-6.6c1.5-2.1,4.2-3,6.5-1.9
				c3.9,1.8,7.7,3.8,11.5,5.8c1.9,1,2.6,2.9,2.6,5c0,4.3,0,8.5,0,12.8c0,2.4-1.1,4.2-3.3,5.2c-2.1,0.9-4.1,0.6-5.8-0.9
				c-1.1-1-1.8-2.3-1.8-3.8c0-1.3,0-2.7,0-4c0-0.8-0.2-0.8-0.8-0.5c-1.2,0.6-2.4,1.4-3.8,1.6c-2.5,0.3-4.9-1.2-5.8-3.7
				c-0.8-2.4,0.2-5.1,2.3-6.4C1117.3,59,1117.6,58.8,1118.1,58.6z"/>
			<path class="st5" d="M1057.4,58.6c0.2,0.3,0.6,0.4,0.9,0.6c2.6,1.5,3.5,4.7,2.1,7.3c-1.3,2.6-4.5,3.6-7.1,2.4
				c-0.8-0.4-1.5-0.7-2.3-1.1c-0.5-0.2-0.7-0.2-0.6,0.4c0,1.3,0,2.6,0,3.9c0,2.9-2.3,5.2-5.1,5.4c-2.9,0.2-5.3-1.8-5.7-4.7
				c-0.1-0.5-0.1-1-0.1-1.5c0-3.9,0-7.8,0-11.7c0-2.9,1.1-5,3.8-6.2c3.3-1.6,6.6-3.3,9.9-4.9c3.8-1.8,8.1,0.9,7.9,5
				c-0.1,2-1.1,3.6-2.8,4.6C1058,58.2,1057.7,58.3,1057.4,58.6C1057.5,58.5,1057.5,58.5,1057.4,58.6z"/>
			<path class="st4" d="M1039.4,104.8c0.1-2-0.2-4.4,0.1-6.9c0.4-2.9,2.9-4.9,5.8-4.7c2.9,0.2,5,2.5,5.1,5.4c0,3,0,6,0,9
				c0,0.7,0.2,1.1,0.9,1.4c2.3,1.1,4.5,2.2,6.7,3.4c2.2,1.1,3.4,3.4,3.1,5.6c-0.4,2.5-2.1,4.3-4.6,4.8c-1.1,0.2-2.2,0-3.2-0.5
				c-3.6-1.8-7.2-3.6-10.8-5.4c-2.1-1.1-3-2.9-3-5.2C1039.4,109.5,1039.4,107.4,1039.4,104.8z"/>
			<path class="st4" d="M1135.9,105.8c-0.1,1.9,0.2,4.4-0.1,6.9c-0.2,1.9-1.2,3.3-2.9,4.2c-3.6,1.8-7.2,3.6-10.8,5.4
				c-2.8,1.3-6,0.2-7.3-2.5s-0.3-5.9,2.5-7.3c2.3-1.2,4.5-2.3,6.8-3.4c0.6-0.3,0.9-0.7,0.9-1.4c0-2.9,0-5.8,0-8.7
				c0-3.3,2.3-5.7,5.4-5.7c3.2,0,5.5,2.3,5.6,5.7C1136,101,1135.9,103.2,1135.9,105.8z"/>
			<path class="st4" d="M1098.3,48c-0.9,0.1-1.8-0.3-2.6-0.7c-2.4-1.2-4.9-2.4-7.3-3.7c-0.5-0.2-0.9-0.2-1.3,0
				c-2.5,1.2-4.9,2.5-7.4,3.7c-3.7,1.8-7.5-0.2-8.1-4.3c-0.3-2,0.8-4.2,2.7-5.2c3.7-1.9,7.5-3.8,11.2-5.6c1.4-0.7,2.9-0.7,4.3,0
				c3.8,1.8,7.5,3.7,11.2,5.6c2.2,1.2,3.2,3.7,2.5,6.1C1103,46.4,1100.9,48,1098.3,48z"/>
		</g>
		<g transform="translate(0.000000,330.000000) scale(0.100000,-0.100000)">
			<path class="st0" d="M6595.3,1527.5c-4.8-1.3-14.8-5.2-22.2-8.7c-18.9-9.2-36.7-27.2-45.7-46c-15.1-31.1-15.1-63-0.2-93.5
				c5.4-11,9.2-16,20.3-27c21.6-21.4,43.7-30.6,73.2-30.6s51.6,9.2,73.2,30.6c11.1,11,14.9,16,20.3,27c14.9,30.5,14.9,62.4-0.2,93.5
				c-9.1,18.9-26.8,36.8-45.7,45.9c-7.5,3.7-17.8,7.8-23,9.1C6633.4,1530.7,6607.1,1530.7,6595.3,1527.5z"/>
			<path class="st0" d="M6515.9,1311.6c-17.9-4.9-32.5-17.8-43.5-38.6c-18.9-35.9-26.7-85.7-27-170.8c-0.2-49.2,0-51,3.3-57.3
				c11.9-22.2,36.7-30.8,98.4-34.1c38.1-2.1,152-1,175.1,1.7c44,5.1,65.9,16.8,72.4,39.2c2.4,8.1,2.5,14.8,1.7,55.3
				c-1.7,80.3-9.2,127.3-25.9,162c-10.2,21.1-24.9,36.2-41.1,41.6c-12.7,4.1-19.5,3.7-28.3-2.5c-4.3-2.9-13.7-8.1-20.8-11.4
				c-44.6-20.8-99.4-16.5-139.9,11.3C6532.1,1313.5,6526.4,1314.5,6515.9,1311.6z"/>
		</g>
		<g>
			<circle id="circle16-1_4_" class="st4" cx="49.7" cy="50" r="4.6"/>
			<circle id="circle17-8_4_" class="st4" cx="63.4" cy="50" r="4.6"/>
			<g>
				<g>
					<g id="_x39_50_x2C__Coding_x2C__Html_x2C__Html_Coding_x2C__Programming_x2C__Web_3_">
						<g>
							<path class="st0" d="M125.9,76.8l-0.2-15.3V48.8c0-7.7-6.5-14.2-14.2-14.2h-64c-7.7,0-14.2,6.5-14.2,14.2l0.3,28V77v8.1
								l-0.3,43.5c0,7.7,6.5,14.2,14.2,14.2h64.3c7.7,0,14.2-6.5,14.2-14.2V84.7L125.9,76.8z M41,48.8c0-3.7,2.8-6.5,6.5-6.5h64.3
								c3.4,0,6.5,2.8,6.5,6.5v9H41V48.8z M118.3,128.5c0,3.4-2.8,6.5-6.5,6.5H47.5c-3.4,0-6.5-2.8-6.5-6.5v-63h77.2L118.3,128.5
								L118.3,128.5z"/>
							<rect x="60.2" y="111.8" class="st7" width="27.2" height="7.7"/>
							<rect x="52.8" y="100.1" class="st7" width="42.3" height="7.7"/>
							<rect x="98.8" y="100.1" class="st7" width="7.7" height="7.7"/>
							<rect x="52.8" y="123.3" class="st7" width="54.1" height="7.7"/>
							<path class="st0" d="M102.5,85l-1.2,1.2l-5.6,5.6c-1.4,1.4-3.5,1.4-4.9,0s-1.4-3.5,0-4.9l0.7-0.7l3.6-3.6l-4.3-4.3
								c-1.4-1.4-1.4-3.5,0-4.9s3.5-1.4,4.9,0l5.6,5.6l1.2,1.2C103.8,81.5,103.8,83.7,102.5,85z"/>
							<path class="st0" d="M68.5,87c1.4,1.4,1.4,3.5,0,4.9s-3.5,1.4-4.9,0l-6.8-6.8c-1.4-1.4-1.4-3.5,0-4.9L58,79l5.6-5.6
								c1.4-1.4,3.5-1.4,4.9,0s1.4,3.5,0,4.9L67.8,79l-3.7,3.7L68.5,87z"/>
							<path class="st0" d="M85.9,77.2L85,79l-3.6,7.3l-2.3,4.5c-0.5,1.1-1.6,1.9-3,1.9c-2.4,0-4.1-2.4-3.3-4.9l0.8-1.5l3.6-7.3
								l2.4-4.8c0.8-1.9,3-2.4,4.6-1.6C86.2,73.4,86.7,75.5,85.9,77.2z"/>
						</g>
					</g>
				</g>
			</g>
		</g>
	</g>
</g>
</svg>
